<svg width="130" height="19" viewBox="0 0 130 19" fill="none" xmlns="http://www.w3.org/2000/svg">
<path d="M20.2578 5.69531C20.2344 5.80469 20.1836 5.89062 20.1055 5.95312C20.0273 6.01562 19.9414 6.04688 19.8477 6.04688C19.707 6.04688 19.5938 6.00391 19.5078 5.91797C19.4219 5.82422 19.3789 5.71875 19.3789 5.60156C19.3789 5.48438 19.3906 5.37109 19.4141 5.26172C19.4375 5.14453 19.4492 5.03125 19.4492 4.92188C19.4492 4.35156 19.2734 3.83984 18.9219 3.38672C18.5703 2.93359 18.0703 2.55469 17.4219 2.25C16.7812 1.9375 16 1.69922 15.0781 1.53516C14.1562 1.37109 13.1289 1.28906 11.9961 1.28906C11.1289 1.28906 10.2539 1.34766 9.37109 1.46484C8.49609 1.57422 7.65234 1.73828 6.83984 1.95703C6.03516 2.16797 5.28125 2.4375 4.57812 2.76562C3.875 3.08594 3.26172 3.46094 2.73828 3.89062C2.22266 4.3125 1.81641 4.78516 1.51953 5.30859C1.22266 5.82422 1.07422 6.39062 1.07422 7.00781C1.07422 7.48438 1.17578 7.90625 1.37891 8.27344C1.58984 8.63281 1.875 8.94922 2.23438 9.22266C2.59375 9.48828 3.01562 9.71875 3.5 9.91406C3.99219 10.1016 4.52344 10.2617 5.09375 10.3945C5.66406 10.5195 6.25781 10.625 6.875 10.7109C7.49219 10.7891 8.11328 10.8555 8.73828 10.9102L10.543 11.0625C11.4414 11.1406 12.2461 11.2227 12.957 11.3086C13.668 11.3945 14.293 11.5039 14.832 11.6367C15.7305 11.8633 16.3945 12.1875 16.8242 12.6094C17.2539 13.0312 17.4688 13.5938 17.4688 14.2969C17.4688 14.9766 17.2812 15.5742 16.9062 16.0898C16.5312 16.6055 16.0195 17.0391 15.3711 17.3906C14.7227 17.7422 13.9648 18.0078 13.0977 18.1875C12.2305 18.3672 11.3008 18.457 10.3086 18.457C9.23047 18.457 8.28125 18.3828 7.46094 18.2344C6.64844 18.0938 5.96484 17.9375 5.41016 17.7656C4.86328 17.5859 4.44531 17.4219 4.15625 17.2734C3.86719 17.125 3.71094 17.043 3.6875 17.0273C3.54688 16.9492 3.47656 16.8242 3.47656 16.6523C3.47656 16.5195 3.52344 16.4141 3.61719 16.3359C3.71094 16.25 3.8125 16.207 3.92188 16.207C4.00781 16.207 4.08594 16.2305 4.15625 16.2773C4.16406 16.2773 4.29688 16.3477 4.55469 16.4883C4.82031 16.6211 5.21094 16.7695 5.72656 16.9336C6.25 17.0977 6.89453 17.2461 7.66016 17.3789C8.42578 17.5117 9.31641 17.5781 10.332 17.5781C11.3398 17.5781 12.2305 17.4961 13.0039 17.332C13.7773 17.168 14.4258 16.9414 14.9492 16.6523C15.4805 16.3555 15.8789 16.0117 16.1445 15.6211C16.418 15.2227 16.5547 14.793 16.5547 14.332C16.5547 14.0586 16.5039 13.8242 16.4023 13.6289C16.3086 13.4258 16.1758 13.2539 16.0039 13.1133C15.832 12.9648 15.625 12.8398 15.3828 12.7383C15.1484 12.6367 14.8906 12.5508 14.6094 12.4805C14.3125 12.4023 13.9922 12.3359 13.6484 12.2812C13.3125 12.2266 12.9648 12.1797 12.6055 12.1406C12.2461 12.1016 11.8828 12.0664 11.5156 12.0352C11.1562 12.0039 10.8008 11.9727 10.4492 11.9414L8.64453 11.7891C7.22266 11.6719 5.98047 11.4922 4.91797 11.25C3.86328 11 2.98438 10.6836 2.28125 10.3008C1.57812 9.91016 1.05078 9.44531 0.699219 8.90625C0.347656 8.36719 0.171875 7.73828 0.171875 7.01953C0.171875 6.28516 0.335938 5.61328 0.664062 5.00391C1 4.38672 1.45312 3.83203 2.02344 3.33984C2.60156 2.84766 3.27344 2.42188 4.03906 2.0625C4.8125 1.69531 5.63672 1.39063 6.51172 1.14844C7.38672 0.90625 8.29297 0.726562 9.23047 0.609375C10.168 0.484375 11.0898 0.421875 11.9961 0.421875C13.1289 0.421875 14.1133 0.492188 14.9492 0.632812C15.793 0.765625 16.5117 0.941406 17.1055 1.16016C17.707 1.37109 18.1992 1.61328 18.582 1.88672C18.9648 2.16016 19.2734 2.42969 19.5078 2.69531C20.0625 3.34375 20.3398 4.08203 20.3398 4.91016C20.3398 5.18359 20.3125 5.44531 20.2578 5.69531ZM24.5586 16.7109C24.3633 16.7109 24.1914 16.6953 24.043 16.6641C23.9258 16.8984 23.7852 17.1172 23.6211 17.3203C23.457 17.5156 23.2656 17.6875 23.0469 17.8359C22.8359 17.9844 22.5977 18.1016 22.332 18.1875C22.0664 18.2734 21.7773 18.3164 21.4648 18.3164C21.0977 18.3164 20.7617 18.25 20.457 18.1172C20.1523 17.9922 19.8867 17.8164 19.6602 17.5898C19.4336 17.3555 19.2578 17.0781 19.1328 16.7578C19.0078 16.4297 18.9453 16.0703 18.9453 15.6797C18.9453 15.1797 19.0352 14.7461 19.2148 14.3789C19.3945 14.0039 19.6016 13.6953 19.8359 13.4531C20.0703 13.2031 20.3047 13.0195 20.5391 12.9023C20.7734 12.7773 20.9492 12.7148 21.0664 12.7148C21.1992 12.7148 21.2969 12.75 21.3594 12.8203C21.4297 12.8906 21.4648 12.9844 21.4648 13.1016C21.4648 13.2344 21.4219 13.3359 21.3359 13.4062C21.2578 13.4688 21.1562 13.5312 21.0312 13.5938C20.9062 13.6562 20.7734 13.7461 20.6328 13.8633C20.4922 13.9727 20.3594 14.1133 20.2344 14.2852C20.1172 14.457 20.0195 14.6602 19.9414 14.8945C19.8633 15.1289 19.8242 15.3906 19.8242 15.6797C19.8242 15.9375 19.8633 16.1797 19.9414 16.4062C20.0195 16.625 20.1328 16.8164 20.2812 16.9805C20.4297 17.1367 20.6055 17.2617 20.8086 17.3555C21.0117 17.4414 21.2383 17.4844 21.4883 17.4844C21.9336 17.4844 22.3008 17.3828 22.5898 17.1797C22.8867 16.9688 23.1133 16.7031 23.2695 16.3828C22.8086 16.1406 22.4297 15.7969 22.1328 15.3516C21.8359 14.9062 21.6875 14.4062 21.6875 13.8516C21.6875 13.4062 21.793 13.043 22.0039 12.7617C22.2227 12.4805 22.5078 12.3398 22.8594 12.3398C23.0703 12.3398 23.2695 12.3906 23.457 12.4922C23.6445 12.5938 23.8086 12.7539 23.9492 12.9727C24.0977 13.1914 24.2148 13.4727 24.3008 13.8164C24.3867 14.1602 24.4297 14.5703 24.4297 15.0469C24.4297 15.2969 24.3984 15.5586 24.3359 15.832C24.3828 15.8398 24.4297 15.8438 24.4766 15.8438C24.5234 15.8438 24.5742 15.8438 24.6289 15.8438C24.8945 15.8438 25.1328 15.8125 25.3438 15.75C25.5547 15.6875 25.7461 15.5938 25.918 15.4688C26.0898 15.3438 26.2422 15.1836 26.375 14.9883C26.5156 14.793 26.6484 14.5664 26.7734 14.3086C26.7969 14.2617 26.8477 14.2188 26.9258 14.1797C27.0039 14.1328 27.082 14.1094 27.1602 14.1094C27.2617 14.1094 27.3555 14.1523 27.4414 14.2383C27.5352 14.3164 27.582 14.4219 27.582 14.5547C27.582 14.6172 27.5664 14.6875 27.5352 14.7656C27.5039 14.8359 27.4727 14.9023 27.4414 14.9648C27.3086 15.1992 27.1523 15.4258 26.9727 15.6445C26.8008 15.8555 26.5938 16.043 26.3516 16.207C26.1172 16.3633 25.8516 16.4883 25.5547 16.582C25.2578 16.6758 24.9258 16.7188 24.5586 16.7109ZM22.5547 13.7578C22.5547 13.9062 22.5742 14.0625 22.6133 14.2266C22.6523 14.3906 22.7109 14.5547 22.7891 14.7188C22.875 14.875 22.9766 15.0273 23.0938 15.1758C23.2188 15.3164 23.3633 15.4375 23.5273 15.5391C23.5508 15.375 23.5625 15.2148 23.5625 15.0586C23.5625 14.8477 23.5469 14.6328 23.5156 14.4141C23.4844 14.1953 23.4375 13.9961 23.375 13.8164C23.3203 13.6289 23.25 13.4805 23.1641 13.3711C23.0781 13.2539 22.9766 13.1953 22.8594 13.1953C22.8125 13.1953 22.75 13.2305 22.6719 13.3008C22.5938 13.3711 22.5547 13.5234 22.5547 13.7578ZM30.6406 16.6875C30.3672 17.1328 30.0469 17.4844 29.6797 17.7422C29.3203 18 28.957 18.1289 28.5898 18.1289C28.293 18.1289 28.0273 18.0742 27.793 17.9648C27.5586 17.8555 27.3555 17.7031 27.1836 17.5078C27.0117 17.3047 26.8789 17.0625 26.7852 16.7812C26.6992 16.5 26.6562 16.1836 26.6562 15.832C26.6562 15.2852 26.707 14.8008 26.8086 14.3789C26.918 13.957 27.0352 13.6055 27.1602 13.3242C27.2852 13.0352 27.4023 12.8164 27.5117 12.668C27.6211 12.5195 27.6758 12.4453 27.6758 12.4453C27.7148 12.3984 27.7617 12.3633 27.8164 12.3398C27.8789 12.3164 27.9414 12.3047 28.0039 12.3047C28.1289 12.3047 28.2305 12.3516 28.3086 12.4453C28.3945 12.5312 28.4375 12.6328 28.4375 12.75C28.4375 12.7969 28.4258 12.8438 28.4023 12.8906C28.3867 12.9375 28.3672 12.9844 28.3438 13.0312C28.3047 13.1016 28.2422 13.2109 28.1562 13.3594C28.0703 13.5 27.9805 13.6875 27.8867 13.9219C27.793 14.1562 27.7109 14.4336 27.6406 14.7539C27.5703 15.0664 27.5352 15.4258 27.5352 15.832C27.5352 16.293 27.625 16.6445 27.8047 16.8867C27.9922 17.1211 28.2539 17.2383 28.5898 17.2383C28.7305 17.2383 28.8906 17.1953 29.0703 17.1094C29.2578 17.0156 29.4375 16.875 29.6094 16.6875C29.7891 16.5 29.9453 16.2617 30.0781 15.9727C30.2109 15.6836 30.2969 15.3438 30.3359 14.9531L30.5117 12.9375C30.5273 12.8203 30.5781 12.7227 30.6641 12.6445C30.75 12.5664 30.8516 12.5273 30.9688 12.5273C31.1016 12.5273 31.207 12.5781 31.2852 12.6797C31.3633 12.7734 31.4023 12.8828 31.4023 13.0078L31.25 14.9531C31.2344 15.1172 31.2383 15.332 31.2617 15.5977C31.293 15.8633 31.3516 16.125 31.4375 16.3828C31.5234 16.6406 31.6523 16.8633 31.8242 17.0508C31.9961 17.2305 32.2227 17.3203 32.5039 17.3203C32.707 17.3203 32.9062 17.2695 33.1016 17.168C33.2969 17.0586 33.4844 16.918 33.6641 16.7461C33.8438 16.5742 34.0078 16.3828 34.1562 16.1719C34.3125 15.9531 34.4531 15.7344 34.5781 15.5156C34.7109 15.2969 34.8242 15.0898 34.918 14.8945C35.0117 14.6914 35.0898 14.5195 35.1523 14.3789C35.1914 14.293 35.2461 14.2266 35.3164 14.1797C35.3867 14.1328 35.4648 14.1094 35.5508 14.1094C35.6914 14.1094 35.8008 14.1562 35.8789 14.25C35.957 14.3438 35.9961 14.4453 35.9961 14.5547C35.9961 14.6172 35.9844 14.6758 35.9609 14.7305C35.9297 14.793 35.8672 14.9258 35.7734 15.1289C35.6875 15.3242 35.5703 15.5508 35.4219 15.8086C35.2812 16.0586 35.1094 16.3242 34.9062 16.6055C34.7031 16.8867 34.4766 17.1484 34.2266 17.3906C33.9766 17.625 33.7031 17.8203 33.4062 17.9766C33.1172 18.125 32.8047 18.1992 32.4688 18.1992C32.0078 18.1992 31.625 18.0703 31.3203 17.8125C31.0156 17.5469 30.7891 17.1719 30.6406 16.6875ZM44.6562 6.26953C44.6562 6.39453 44.6133 6.49609 44.5273 6.57422C44.4414 6.64453 44.3359 6.67969 44.2109 6.67969H38.2695V6.80859C38.2695 7.28516 38.2344 7.79297 38.1641 8.33203C38.0938 8.87109 37.9961 9.41016 37.8711 9.94922C37.7539 10.4805 37.6172 11 37.4609 11.5078C37.3125 12.0156 37.1562 12.4844 36.9922 12.9141C36.8359 13.3438 36.6797 13.7188 36.5234 14.0391C36.3672 14.3516 36.2266 14.5859 36.1016 14.7422C36.2031 15.1016 36.3242 15.4375 36.4648 15.75C36.6055 16.0547 36.7617 16.3242 36.9336 16.5586C37.1133 16.7852 37.3047 16.9648 37.5078 17.0977C37.7109 17.2305 37.9297 17.2969 38.1641 17.2969C38.4375 17.2969 38.707 17.1836 38.9727 16.957C39.2461 16.7227 39.4961 16.4492 39.7227 16.1367C39.957 15.8164 40.1602 15.4961 40.332 15.1758C40.5117 14.8477 40.6406 14.5859 40.7188 14.3906C40.7969 14.2031 40.9336 14.1094 41.1289 14.1094C41.2617 14.1094 41.3672 14.1562 41.4453 14.25C41.5312 14.3438 41.5742 14.4453 41.5742 14.5547C41.5742 14.6094 41.5625 14.6641 41.5391 14.7188C41.5156 14.7734 41.457 14.8984 41.3633 15.0938C41.2773 15.2891 41.1602 15.5156 41.0117 15.7734C40.8711 16.0312 40.7031 16.3047 40.5078 16.5938C40.3203 16.875 40.1055 17.1328 39.8633 17.3672C39.6289 17.6016 39.375 17.7969 39.1016 17.9531C38.8281 18.1094 38.5391 18.1875 38.2344 18.1875C37.6953 18.1875 37.2109 18.0117 36.7812 17.6602C36.3516 17.3086 35.9844 16.8164 35.6797 16.1836C35.3828 15.5508 35.1562 14.8008 35 13.9336C34.8438 13.0664 34.7656 12.1172 34.7656 11.0859C34.7656 10.8281 34.7695 10.5273 34.7773 10.1836C34.7852 9.83203 34.8008 9.46484 34.8242 9.08203C34.8477 8.69141 34.8828 8.29297 34.9297 7.88672C34.9766 7.47266 35.0391 7.07031 35.1172 6.67969H30.9102C30.7852 6.67969 30.6797 6.64453 30.5938 6.57422C30.5078 6.49609 30.4648 6.39453 30.4648 6.26953C30.4648 6.14453 30.5078 6.04688 30.5938 5.97656C30.6797 5.89844 30.7852 5.85938 30.9102 5.85938H35.3164C35.3945 5.57812 35.4844 5.32031 35.5859 5.08594C35.6953 4.85156 35.8164 4.64844 35.9492 4.47656C36.0898 4.30469 36.2422 4.17188 36.4062 4.07812C36.5781 3.97656 36.7656 3.92578 36.9688 3.92578C37.1641 3.92578 37.332 3.97656 37.4727 4.07812C37.6211 4.17188 37.7461 4.30469 37.8477 4.47656C37.9492 4.64844 38.0273 4.85156 38.082 5.08594C38.1445 5.32031 38.1914 5.57812 38.2227 5.85938H44.2109C44.3359 5.85938 44.4414 5.89844 44.5273 5.97656C44.6133 6.04688 44.6562 6.14453 44.6562 6.26953ZM35.832 13.5703C36.0664 13.0547 36.2773 12.5 36.4648 11.9062C36.6602 11.3047 36.8242 10.6992 36.957 10.0898C37.0977 9.48047 37.2031 8.88281 37.2734 8.29688C37.3516 7.71094 37.3906 7.17188 37.3906 6.67969H36.0078C35.8984 7.16406 35.8086 7.76562 35.7383 8.48438C35.6758 9.19531 35.6445 10.0625 35.6445 11.0859C35.6445 11.6562 35.6602 12.1367 35.6914 12.5273C35.7227 12.9102 35.7695 13.2578 35.832 13.5703ZM36.9219 4.80469C36.8516 4.80469 36.75 4.88281 36.6172 5.03906C36.4844 5.1875 36.3516 5.46094 36.2188 5.85938H37.3438C37.3047 5.53125 37.2461 5.27344 37.168 5.08594C37.0977 4.89844 37.0156 4.80469 36.9219 4.80469ZM36.0195 14.4141V14.4258V14.4141ZM41.6914 17.0039C41.8164 16.7383 41.9609 16.4531 42.125 16.1484C42.2891 15.8359 42.4648 15.5195 42.6523 15.1992C42.8398 14.8711 43.0391 14.5469 43.25 14.2266C43.4609 13.9062 43.6797 13.6055 43.9062 13.3242C44.1328 13.0508 44.3594 12.8555 44.5859 12.7383C44.8203 12.6133 45.0391 12.5508 45.2422 12.5508C45.4453 12.5508 45.6211 12.5938 45.7695 12.6797C45.9258 12.7578 46.0508 12.8672 46.1445 13.0078C46.2461 13.1484 46.3203 13.3125 46.3672 13.5C46.4219 13.6875 46.4492 13.8906 46.4492 14.1094C46.4492 14.2891 46.4297 14.5312 46.3906 14.8359C46.3594 15.1328 46.3438 15.4453 46.3438 15.7734C46.3438 15.9609 46.3516 16.1484 46.3672 16.3359C46.3906 16.5156 46.4258 16.6797 46.4727 16.8281C46.5273 16.9688 46.6055 17.0859 46.707 17.1797C46.8086 17.2656 46.9414 17.3086 47.1055 17.3086C47.293 17.3086 47.4805 17.2578 47.668 17.1562C47.8555 17.0469 48.0391 16.9062 48.2188 16.7344C48.3984 16.5547 48.5703 16.3594 48.7344 16.1484C48.8984 15.9297 49.0469 15.7148 49.1797 15.5039C49.3125 15.2852 49.4297 15.0781 49.5312 14.8828C49.6328 14.6797 49.7148 14.5117 49.7773 14.3789C49.8555 14.1992 49.9922 14.1094 50.1875 14.1094C50.3203 14.1094 50.4258 14.1562 50.5039 14.25C50.582 14.3438 50.6211 14.4453 50.6211 14.5547C50.6211 14.6172 50.6094 14.6758 50.5859 14.7305C50.5547 14.793 50.4922 14.9219 50.3984 15.1172C50.3125 15.3125 50.1914 15.5391 50.0352 15.7969C49.8867 16.0547 49.7109 16.3242 49.5078 16.6055C49.3047 16.8867 49.0781 17.1484 48.8281 17.3906C48.5859 17.625 48.3203 17.8203 48.0312 17.9766C47.75 18.125 47.4531 18.1992 47.1406 18.1992C46.7812 18.1992 46.4922 18.125 46.2734 17.9766C46.0547 17.8203 45.8828 17.625 45.7578 17.3906C45.6406 17.1562 45.5586 16.8945 45.5117 16.6055C45.4727 16.3164 45.4531 16.0352 45.4531 15.7617C45.4531 15.6211 45.457 15.4727 45.4648 15.3164C45.4805 15.1523 45.4961 14.9922 45.5117 14.8359C45.5273 14.6797 45.5391 14.5352 45.5469 14.4023C45.5625 14.2617 45.5703 14.1445 45.5703 14.0508C45.5703 13.8086 45.5352 13.6445 45.4648 13.5586C45.4023 13.4727 45.3281 13.4297 45.2422 13.4297C45.1172 13.4297 44.9727 13.5039 44.8086 13.6523C44.6523 13.793 44.4844 13.9805 44.3047 14.2148C44.1328 14.4492 43.957 14.7148 43.7773 15.0117C43.6055 15.3008 43.4375 15.5898 43.2734 15.8789C43.1094 16.168 42.9609 16.4453 42.8281 16.7109C42.6953 16.9688 42.5859 17.1836 42.5 17.3555C42.3359 17.6836 42.168 17.9023 41.9961 18.0117C41.832 18.1289 41.6836 18.1875 41.5508 18.1875C41.3086 18.1875 41.1211 18.0938 40.9883 17.9062C40.8633 17.7109 40.8008 17.4766 40.8008 17.2031V16.4648C40.8008 14.9883 40.8008 13.582 40.8008 12.2461C40.8086 10.9023 40.8281 9.65625 40.8594 8.50781C40.8984 7.35156 40.957 6.30859 41.0352 5.37891C41.1211 4.44141 41.2461 3.64453 41.4102 2.98828C41.5742 2.32422 41.7812 1.8125 42.0312 1.45312C42.2891 1.09375 42.6094 0.914062 42.9922 0.914062C43.3203 0.914062 43.5977 1.00391 43.8242 1.18359C44.0508 1.36328 44.2344 1.60937 44.375 1.92188C44.5156 2.22656 44.6172 2.58594 44.6797 3C44.7422 3.40625 44.7734 3.83594 44.7734 4.28906C44.7734 5.21094 44.6875 6.11719 44.5156 7.00781C44.3516 7.89062 44.1289 8.75391 43.8477 9.59766C43.5664 10.4414 43.2383 11.2656 42.8633 12.0703C42.4883 12.8672 42.0938 13.6445 41.6797 14.4023C41.6797 14.543 41.6797 14.7109 41.6797 14.9062C41.6797 15.1016 41.6797 15.2969 41.6797 15.4922C41.6797 15.6875 41.6797 15.8711 41.6797 16.043C41.6797 16.2148 41.6797 16.3516 41.6797 16.4531L41.6914 17.0039ZM41.6914 12.6797C42.0195 11.9609 42.3164 11.2617 42.582 10.582C42.8555 9.89453 43.0859 9.21094 43.2734 8.53125C43.4688 7.85156 43.6211 7.16406 43.7305 6.46875C43.8398 5.76562 43.8945 5.03516 43.8945 4.27734C43.8945 4.15234 43.8867 3.95312 43.8711 3.67969C43.8633 3.40625 43.8281 3.12891 43.7656 2.84766C43.7109 2.56641 43.6211 2.32031 43.4961 2.10938C43.3789 1.89844 43.2109 1.79297 42.9922 1.79297C42.8203 1.79297 42.6719 1.91016 42.5469 2.14453C42.4219 2.37109 42.3125 2.68359 42.2188 3.08203C42.125 3.47266 42.0469 3.92969 41.9844 4.45312C41.9219 4.97656 41.8711 5.53125 41.832 6.11719C41.793 6.70312 41.7617 7.30469 41.7383 7.92188C41.7227 8.53906 41.7109 9.14062 41.7031 9.72656C41.6953 10.3047 41.6914 10.8477 41.6914 11.3555C41.6914 11.8633 41.6914 12.3047 41.6914 12.6797ZM51.1953 16.7109C51.3594 16.9375 51.5703 17.1211 51.8281 17.2617C52.0859 17.3945 52.4023 17.4609 52.7773 17.4609C53.1602 17.4609 53.5078 17.3711 53.8203 17.1914C54.1328 17.0039 54.418 16.7617 54.6758 16.4648C54.9336 16.168 55.1641 15.8359 55.3672 15.4688C55.5703 15.1016 55.7539 14.7344 55.918 14.3672C55.957 14.2812 56.0117 14.2188 56.082 14.1797C56.1523 14.1328 56.2305 14.1094 56.3164 14.1094C56.4492 14.1094 56.5547 14.1562 56.6328 14.25C56.7188 14.3438 56.7617 14.4453 56.7617 14.5547C56.7617 14.5938 56.7578 14.6289 56.75 14.6602C56.7422 14.6836 56.7305 14.7109 56.7148 14.7422C56.1758 15.9297 55.5859 16.8242 54.9453 17.4258C54.3125 18.0273 53.5938 18.3359 52.7891 18.3516C52.2734 18.3516 51.8281 18.25 51.4531 18.0469C51.0781 17.8516 50.7695 17.5977 50.5273 17.2852C50.2852 16.9648 50.1055 16.6055 49.9883 16.207C49.8711 15.8086 49.8125 15.4102 49.8125 15.0117C49.8125 14.6133 49.8594 14.2461 49.9531 13.9102C50.0547 13.5742 50.1953 13.2812 50.375 13.0312C50.5625 12.7812 50.7812 12.5859 51.0312 12.4453C51.2891 12.3047 51.5703 12.2344 51.875 12.2344C52.0547 12.2344 52.2305 12.2734 52.4023 12.3516C52.582 12.4219 52.7422 12.5273 52.8828 12.668C53.0234 12.8008 53.1367 12.9648 53.2227 13.1602C53.3086 13.3555 53.3516 13.5781 53.3516 13.8281C53.3516 14.1484 53.2969 14.4492 53.1875 14.7305C53.0781 15.0117 52.9258 15.2734 52.7305 15.5156C52.543 15.7578 52.3164 15.9805 52.0508 16.1836C51.7852 16.3867 51.5 16.5625 51.1953 16.7109ZM50.8438 15.9492C51.0859 15.8477 51.3047 15.7188 51.5 15.5625C51.7031 15.4062 51.875 15.2344 52.0156 15.0469C52.1562 14.8594 52.2656 14.6641 52.3438 14.4609C52.4219 14.25 52.4609 14.0391 52.4609 13.8281C52.4609 13.5938 52.4023 13.418 52.2852 13.3008C52.168 13.1758 52.0312 13.1133 51.875 13.1133C51.6641 13.1133 51.4844 13.1719 51.3359 13.2891C51.1875 13.4062 51.0664 13.5586 50.9727 13.7461C50.8789 13.9336 50.8086 14.1445 50.7617 14.3789C50.7227 14.6055 50.7031 14.832 50.7031 15.0586C50.7031 15.1992 50.7148 15.3477 50.7383 15.5039C50.7695 15.6602 50.8047 15.8086 50.8438 15.9492ZM57.1602 13.1836C57.1289 13.3945 57.0898 13.5938 57.043 13.7812C56.9961 13.9609 56.9492 14.1211 56.9023 14.2617C56.8633 14.3945 56.8281 14.5039 56.7969 14.5898C56.7656 14.6758 56.7461 14.7227 56.7383 14.7305C56.6602 14.9102 56.5234 15 56.3281 15C56.2188 15 56.1172 14.9609 56.0234 14.8828C55.9297 14.7969 55.8828 14.6914 55.8828 14.5664C55.8828 14.5195 55.8906 14.4844 55.9062 14.4609C55.9219 14.4375 55.9453 14.3906 55.9766 14.3203C56.0078 14.25 56.0469 14.1328 56.0938 13.9688C56.1406 13.8047 56.1992 13.5508 56.2695 13.207C56.1367 13.207 56 13.2031 55.8594 13.1953C55.7188 13.1875 55.5898 13.1602 55.4727 13.1133C55.3477 13.0664 55.2461 12.9922 55.168 12.8906C55.0898 12.7891 55.0508 12.6484 55.0508 12.4688C55.0508 12.3359 55.0898 12.1562 55.168 11.9297C55.2383 11.7031 55.3359 11.4805 55.4609 11.2617C55.5859 11.043 55.7266 10.8555 55.8828 10.6992C56.0391 10.5352 56.1953 10.4531 56.3516 10.4531C56.5312 10.4531 56.6758 10.5195 56.7852 10.6523C56.9023 10.7852 56.9922 10.9492 57.0547 11.1445C57.1172 11.332 57.1602 11.5312 57.1836 11.7422C57.2148 11.9531 57.2305 12.1367 57.2305 12.293C57.3633 12.293 57.4922 12.293 57.6172 12.293C57.75 12.2852 57.875 12.2812 57.9922 12.2812C58.4375 12.2812 58.7773 12.3789 59.0117 12.5742C59.2461 12.7695 59.3633 13.0898 59.3633 13.5352C59.3633 13.7148 59.3516 13.9023 59.3281 14.0977C59.3047 14.293 59.2773 14.4961 59.2461 14.707C59.2148 14.9102 59.1875 15.1133 59.1641 15.3164C59.1406 15.5195 59.1289 15.7188 59.1289 15.9141C59.1289 16.1953 59.168 16.4297 59.2461 16.6172C59.3242 16.7969 59.4219 16.9414 59.5391 17.0508C59.6562 17.1602 59.7812 17.2383 59.9141 17.2852C60.0469 17.3242 60.168 17.3438 60.2773 17.3438C60.6133 17.3438 60.9297 17.2344 61.2266 17.0156C61.5234 16.7969 61.7969 16.5352 62.0469 16.2305C62.2969 15.918 62.5195 15.5898 62.7148 15.2461C62.918 14.9023 63.0859 14.6016 63.2188 14.3438C63.2578 14.2734 63.3125 14.2188 63.3828 14.1797C63.4531 14.1406 63.5273 14.1211 63.6055 14.1211C63.7461 14.1211 63.8555 14.168 63.9336 14.2617C64.0117 14.3477 64.0508 14.4453 64.0508 14.5547C64.0508 14.6328 64.0352 14.7031 64.0039 14.7656C63.8242 15.0859 63.6133 15.4492 63.3711 15.8555C63.1367 16.2539 62.8672 16.6289 62.5625 16.9805C62.2578 17.332 61.9141 17.6289 61.5312 17.8711C61.1562 18.1133 60.7422 18.2344 60.2891 18.2344C60.0078 18.2344 59.7422 18.1797 59.4922 18.0703C59.2422 17.9688 59.0234 17.8203 58.8359 17.625C58.6562 17.4219 58.5117 17.1758 58.4023 16.8867C58.293 16.5898 58.2383 16.2578 58.2383 15.8906C58.2383 15.5 58.2773 15.1133 58.3555 14.7305C58.4336 14.3398 58.4727 13.9688 58.4727 13.6172C58.4727 13.4688 58.4375 13.3594 58.3672 13.2891C58.3047 13.2109 58.1602 13.1719 57.9336 13.1719C57.8242 13.1719 57.7031 13.1719 57.5703 13.1719C57.4453 13.1719 57.3086 13.1758 57.1602 13.1836ZM56.375 12.3164C56.375 12.2617 56.3711 12.1914 56.3633 12.1055C56.3633 12.0117 56.3555 11.9219 56.3398 11.8359C56.332 11.75 56.3164 11.6758 56.293 11.6133C56.2773 11.5508 56.2578 11.5195 56.2344 11.5195C56.2109 11.5195 56.1797 11.5508 56.1406 11.6133C56.1094 11.668 56.0742 11.7383 56.0352 11.8242C55.9961 11.9023 55.9609 11.9883 55.9297 12.082C55.8984 12.1758 55.875 12.2539 55.8594 12.3164H56.375ZM65.8203 16.9453C65.9453 16.6875 66.0898 16.4062 66.2539 16.1016C66.418 15.7891 66.5938 15.4766 66.7812 15.1641C66.9688 14.8438 67.1641 14.5273 67.3672 14.2148C67.5781 13.9023 67.7969 13.6055 68.0234 13.3242C68.25 13.0508 68.4766 12.8555 68.7031 12.7383C68.9375 12.6133 69.1562 12.5508 69.3594 12.5508C69.7656 12.5508 70.0664 12.6992 70.2617 12.9961C70.457 13.293 70.5547 13.6602 70.5547 14.0977C70.5547 14.1992 70.5469 14.3242 70.5312 14.4727C70.5234 14.6133 70.5117 14.7656 70.4961 14.9297C70.4883 15.0938 70.4766 15.2617 70.4609 15.4336C70.4531 15.5977 70.4492 15.7539 70.4492 15.9023C70.4492 16.0898 70.457 16.2695 70.4727 16.4414C70.4961 16.6133 70.5352 16.7656 70.5898 16.8984C70.6445 17.0234 70.7227 17.125 70.8242 17.2031C70.9258 17.2734 71.0586 17.3086 71.2227 17.3086C71.5195 17.3086 71.8086 17.1953 72.0898 16.9688C72.3711 16.7344 72.6289 16.4609 72.8633 16.1484C73.1055 15.8281 73.3125 15.5039 73.4844 15.1758C73.6641 14.8477 73.7969 14.582 73.8828 14.3789C73.9219 14.293 73.9766 14.2266 74.0469 14.1797C74.125 14.1328 74.207 14.1094 74.293 14.1094C74.4258 14.1094 74.5312 14.1602 74.6094 14.2617C74.6953 14.3555 74.7383 14.457 74.7383 14.5664C74.7383 14.6211 74.7266 14.6758 74.7031 14.7305C74.6719 14.793 74.6094 14.9219 74.5156 15.1172C74.4219 15.3125 74.2969 15.5391 74.1406 15.7969C73.9922 16.0469 73.8164 16.3164 73.6133 16.6055C73.4102 16.8867 73.1836 17.1445 72.9336 17.3789C72.6914 17.6133 72.4258 17.8086 72.1367 17.9648C71.8555 18.1211 71.5586 18.1992 71.2461 18.1992C70.8945 18.1992 70.6094 18.1328 70.3906 18C70.1719 17.8594 70 17.6797 69.875 17.4609C69.75 17.2344 69.6641 16.9883 69.6172 16.7227C69.5781 16.4492 69.5586 16.1758 69.5586 15.9023C69.5586 15.7852 69.5625 15.6523 69.5703 15.5039C69.5859 15.3555 69.6016 15.1992 69.6172 15.0352C69.6406 14.8711 69.6562 14.707 69.6641 14.543C69.6797 14.3789 69.6875 14.2227 69.6875 14.0742C69.6875 13.8242 69.6484 13.6562 69.5703 13.5703C69.4922 13.4766 69.4219 13.4297 69.3594 13.4297C69.2344 13.4297 69.0898 13.5039 68.9258 13.6523C68.7695 13.793 68.6016 13.9805 68.4219 14.2148C68.25 14.4492 68.0703 14.7148 67.8828 15.0117C67.7031 15.3008 67.5312 15.5898 67.3672 15.8789C67.2109 16.168 67.0625 16.4453 66.9219 16.7109C66.7891 16.9688 66.6836 17.1836 66.6055 17.3555C66.4492 17.6836 66.293 17.9023 66.1367 18.0117C65.9805 18.1289 65.8203 18.1875 65.6562 18.1875C65.4297 18.1875 65.2461 18.1211 65.1055 17.9883C64.9727 17.8477 64.9062 17.6523 64.9062 17.4023C64.9062 17.3477 64.9141 17.2422 64.9297 17.0859C64.9453 16.9219 64.9648 16.7305 64.9883 16.5117C65.0117 16.2852 65.0352 16.043 65.0586 15.7852C65.082 15.5273 65.1055 15.2734 65.1289 15.0234C65.1523 14.7656 65.1719 14.5273 65.1875 14.3086C65.2031 14.0898 65.2109 13.9062 65.2109 13.7578C65.2109 13.5625 65.2031 13.375 65.1875 13.1953C65.1719 13.0156 65.1406 12.9062 65.0938 12.8672C65.0234 12.8906 64.8984 13.0391 64.7188 13.3125C64.5391 13.5781 64.3086 14.0508 64.0273 14.7305C63.9883 14.8164 63.9297 14.8828 63.8516 14.9297C63.7734 14.9766 63.6914 15 63.6055 15C63.4727 15 63.3672 14.957 63.2891 14.8711C63.2109 14.7773 63.1719 14.6719 63.1719 14.5547C63.1719 14.5 63.1836 14.4414 63.207 14.3789C63.5586 13.543 63.8867 12.9297 64.1914 12.5391C64.5039 12.1406 64.8125 11.9414 65.1172 11.9414C65.2969 11.9414 65.4492 11.9883 65.5742 12.082C65.6992 12.168 65.7969 12.2852 65.8672 12.4336C65.9453 12.582 66 12.7461 66.0312 12.9258C66.0703 13.1055 66.0898 13.2891 66.0898 13.4766C66.0898 13.6172 66.0781 13.8359 66.0547 14.1328C66.0391 14.4297 66.0156 14.75 65.9844 15.0938C65.9531 15.4297 65.9219 15.7656 65.8906 16.1016C65.8672 16.4375 65.8438 16.7188 65.8203 16.9453ZM100.742 9.85547C101.414 10.043 101.984 10.2578 102.453 10.5C102.93 10.7422 103.328 10.9961 103.648 11.2617C103.977 11.5195 104.234 11.7852 104.422 12.0586C104.609 12.332 104.754 12.5938 104.855 12.8438C104.957 13.0938 105.02 13.3281 105.043 13.5469C105.074 13.7578 105.09 13.9375 105.09 14.0859C105.09 14.6328 104.984 15.1211 104.773 15.5508C104.57 15.9805 104.293 16.3594 103.941 16.6875C103.59 17.0156 103.18 17.293 102.711 17.5195C102.25 17.7461 101.766 17.9297 101.258 18.0703C100.75 18.2188 100.23 18.3242 99.6992 18.3867C99.168 18.457 98.6641 18.4922 98.1875 18.4922C97.4141 18.4922 96.6133 18.4141 95.7852 18.2578C94.9648 18.1016 94.1328 17.8477 93.2891 17.4961C93.1016 17.418 93.0078 17.2812 93.0078 17.0859C93.0078 16.9531 93.0547 16.8477 93.1484 16.7695C93.2422 16.6836 93.3438 16.6406 93.4531 16.6406C93.5078 16.6406 93.5664 16.6523 93.6289 16.6758C94.3555 16.9805 95.1016 17.2109 95.8672 17.3672C96.6328 17.5234 97.4023 17.6016 98.1758 17.6016C99.2305 17.6016 100.137 17.5 100.895 17.2969C101.652 17.0938 102.273 16.8281 102.758 16.5C103.25 16.1641 103.613 15.7891 103.848 15.375C104.082 14.9531 104.199 14.5273 104.199 14.0977C104.199 13.6211 104.066 13.1797 103.801 12.7734C103.543 12.3672 103.172 12.0039 102.688 11.6836C102.211 11.3633 101.637 11.0898 100.965 10.8633C100.293 10.6367 99.5469 10.4688 98.7266 10.3594C98.1875 10.4531 97.6641 10.5195 97.1562 10.5586C96.6484 10.5977 96.1797 10.6172 95.75 10.6172H95.4805C95.4258 10.6172 95.375 10.6133 95.3281 10.6055C94.7656 11.957 94.0938 13.125 93.3125 14.1094C92.5391 15.0938 91.7109 15.9102 90.8281 16.5586C89.9531 17.1992 89.0508 17.6758 88.1211 17.9883C87.1992 18.293 86.3125 18.4453 85.4609 18.4453C84.5781 18.4453 83.7656 18.3203 83.0234 18.0703C82.2891 17.8281 81.6562 17.4805 81.125 17.0273C80.5938 16.5742 80.1797 16.0273 79.8828 15.3867C79.5859 14.7383 79.4375 14.0156 79.4375 13.2188C79.4375 12.3906 79.5977 11.5352 79.918 10.6523C80.2461 9.76172 80.7305 8.85938 81.3711 7.94531C81.9805 7.08594 82.6562 6.31641 83.3984 5.63672C84.1406 4.94922 84.918 4.34766 85.7305 3.83203C86.5508 3.31641 87.3945 2.875 88.2617 2.50781C89.1289 2.14063 89.9883 1.83984 90.8398 1.60547C91.6992 1.37109 92.5352 1.20313 93.3477 1.10156C94.168 0.992188 94.9375 0.9375 95.6562 0.9375C96.2422 0.9375 96.8008 0.957031 97.332 0.996094C97.8633 1.03516 98.3711 1.09375 98.8555 1.17188C99.1367 0.859375 99.3633 0.636719 99.5352 0.503906C99.707 0.363281 99.8047 0.285156 99.8281 0.269531C99.9219 0.222656 100.004 0.199219 100.074 0.199219C100.184 0.199219 100.281 0.230469 100.367 0.292969C100.453 0.355469 100.496 0.445312 100.496 0.5625C100.496 0.71875 100.441 0.851563 100.332 0.960938C100.223 1.0625 100.074 1.20313 99.8867 1.38281C101.316 1.73438 102.41 2.26562 103.168 2.97656C103.926 3.67969 104.305 4.55078 104.305 5.58984C104.305 6.16016 104.211 6.67188 104.023 7.125C103.836 7.57812 103.578 7.97656 103.25 8.32031C102.93 8.66406 102.551 8.96484 102.113 9.22266C101.684 9.47266 101.227 9.68359 100.742 9.85547ZM98.7383 9.46875C99.082 9.40625 99.4336 9.32422 99.793 9.22266C100.16 9.12109 100.516 9 100.859 8.85938C101.211 8.71094 101.543 8.53906 101.855 8.34375C102.168 8.14062 102.438 7.90625 102.664 7.64062C102.898 7.36719 103.082 7.0625 103.215 6.72656C103.355 6.39062 103.426 6.00781 103.426 5.57812C103.426 4.70312 103.062 3.98047 102.336 3.41016C101.609 2.83984 100.566 2.41797 99.207 2.14453C98.8164 2.62891 98.4492 3.16406 98.1055 3.75C97.7617 4.33594 97.4453 4.94531 97.1562 5.57812C96.8672 6.20312 96.6055 6.83984 96.3711 7.48828C96.1445 8.12891 95.957 8.75 95.8086 9.35156C95.9648 9.34375 96.1094 9.33984 96.2422 9.33984C96.375 9.33984 96.4883 9.33984 96.582 9.33984C96.8867 9.33984 97.2188 9.35156 97.5781 9.375C97.9375 9.39062 98.3242 9.42188 98.7383 9.46875ZM98.2109 1.98047C97.8125 1.92578 97.4023 1.88672 96.9805 1.86328C96.5586 1.83984 96.1172 1.82812 95.6562 1.82812C94.9688 1.82812 94.2383 1.87891 93.4648 1.98047C92.6914 2.08203 91.8984 2.24219 91.0859 2.46094C90.2734 2.67969 89.4531 2.96484 88.625 3.31641C87.8047 3.66016 87.0039 4.07812 86.2227 4.57031C85.4492 5.05469 84.7109 5.62109 84.0078 6.26953C83.3047 6.91797 82.6641 7.64844 82.0859 8.46094C81.5 9.28906 81.0586 10.1055 80.7617 10.9102C80.4648 11.7148 80.3164 12.4805 80.3164 13.207C80.3164 13.8867 80.4375 14.4961 80.6797 15.0352C80.9297 15.5742 81.2812 16.0312 81.7344 16.4062C82.1875 16.7734 82.7305 17.0586 83.3633 17.2617C83.9961 17.457 84.6953 17.5547 85.4609 17.5547C86.2266 17.5547 87.0234 17.418 87.8516 17.1445C88.6797 16.8633 89.4883 16.4375 90.2773 15.8672C91.0664 15.2891 91.8164 14.5625 92.5273 13.6875C93.2383 12.8047 93.8594 11.7578 94.3906 10.5469C94.25 10.5469 94.1055 10.5078 93.957 10.4297C93.8086 10.3438 93.7344 10.2109 93.7344 10.0312C93.7344 9.84375 93.8242 9.71094 94.0039 9.63281C94.1836 9.54688 94.4648 9.47656 94.8477 9.42188C95.0586 8.78125 95.2734 8.14062 95.4922 7.5C95.7109 6.85938 95.9531 6.22656 96.2188 5.60156C96.4844 4.97656 96.7773 4.36328 97.0977 3.76172C97.418 3.15234 97.7891 2.55859 98.2109 1.98047ZM115.895 14.7305C115.863 14.793 115.797 14.9258 115.695 15.1289C115.602 15.3242 115.477 15.5508 115.32 15.8086C115.172 16.0664 114.996 16.3359 114.793 16.6172C114.59 16.8984 114.363 17.1562 114.113 17.3906C113.863 17.625 113.594 17.8203 113.305 17.9766C113.016 18.125 112.711 18.1992 112.391 18.1992C111.938 18.1992 111.555 18.0547 111.242 17.7656C110.938 17.4766 110.715 17.1133 110.574 16.6758C110.309 17.1211 109.992 17.4766 109.625 17.7422C109.258 18 108.891 18.1289 108.523 18.1289C108.234 18.1289 107.973 18.0781 107.738 17.9766C107.504 17.8672 107.305 17.7188 107.141 17.5312C106.977 17.3359 106.848 17.1094 106.754 16.8516C106.668 16.5938 106.625 16.3125 106.625 16.0078C106.625 15.3984 106.727 14.8633 106.93 14.4023C107.141 13.9336 107.406 13.543 107.727 13.2305C108.047 12.918 108.398 12.6836 108.781 12.5273C109.172 12.3711 109.547 12.293 109.906 12.293C110.148 12.293 110.371 12.3281 110.574 12.3984C110.777 12.4609 110.949 12.5312 111.09 12.6094C111.238 12.6875 111.352 12.7617 111.43 12.832C111.508 12.8945 111.551 12.9297 111.559 12.9375C111.645 13.0391 111.688 13.1445 111.688 13.2539C111.688 13.3711 111.645 13.4766 111.559 13.5703C111.473 13.6562 111.371 13.6992 111.254 13.6992C111.129 13.6992 111.023 13.6562 110.938 13.5703C110.922 13.5547 110.887 13.5273 110.832 13.4883C110.777 13.4414 110.703 13.3945 110.609 13.3477C110.516 13.3008 110.402 13.2617 110.27 13.2305C110.145 13.1914 110 13.1719 109.836 13.1719C109.594 13.1719 109.336 13.2266 109.062 13.3359C108.789 13.4453 108.539 13.6172 108.312 13.8516C108.086 14.0781 107.895 14.3672 107.738 14.7188C107.59 15.0625 107.516 15.4727 107.516 15.9492C107.516 16.0977 107.531 16.25 107.562 16.4062C107.594 16.5547 107.648 16.6914 107.727 16.8164C107.805 16.9414 107.91 17.043 108.043 17.1211C108.176 17.1992 108.34 17.2383 108.535 17.2383C108.676 17.2383 108.836 17.1914 109.016 17.0977C109.203 17.0039 109.379 16.8594 109.543 16.6641C109.715 16.4688 109.867 16.2227 110 15.9258C110.141 15.6289 110.238 15.2773 110.293 14.8711C110.309 14.7617 110.359 14.6719 110.445 14.6016C110.531 14.5234 110.633 14.4844 110.75 14.4844C110.859 14.4844 110.953 14.5273 111.031 14.6133C111.117 14.6992 111.164 14.7969 111.172 14.9062C111.18 15.0547 111.195 15.2656 111.219 15.5391C111.242 15.8047 111.293 16.0703 111.371 16.3359C111.457 16.6016 111.582 16.832 111.746 17.0273C111.91 17.2227 112.137 17.3203 112.426 17.3203C112.613 17.3203 112.797 17.2695 112.977 17.168C113.164 17.0664 113.344 16.9336 113.516 16.7695C113.695 16.5977 113.863 16.4062 114.02 16.1953C114.184 15.9766 114.332 15.7578 114.465 15.5391C114.598 15.3203 114.715 15.1094 114.816 14.9062C114.918 14.7031 115.004 14.5273 115.074 14.3789C115.113 14.293 115.168 14.2266 115.238 14.1797C115.316 14.1328 115.398 14.1094 115.484 14.1094C115.617 14.1094 115.723 14.1602 115.801 14.2617C115.887 14.3555 115.93 14.457 115.93 14.5664C115.93 14.6211 115.918 14.6758 115.895 14.7305ZM116.316 13.1836C116.285 13.3945 116.246 13.5938 116.199 13.7812C116.152 13.9609 116.105 14.1211 116.059 14.2617C116.02 14.3945 115.984 14.5039 115.953 14.5898C115.922 14.6758 115.902 14.7227 115.895 14.7305C115.816 14.9102 115.68 15 115.484 15C115.375 15 115.273 14.9609 115.18 14.8828C115.086 14.7969 115.039 14.6914 115.039 14.5664C115.039 14.5195 115.047 14.4844 115.062 14.4609C115.078 14.4375 115.102 14.3906 115.133 14.3203C115.164 14.25 115.203 14.1328 115.25 13.9688C115.297 13.8047 115.355 13.5508 115.426 13.207C115.293 13.207 115.156 13.2031 115.016 13.1953C114.875 13.1875 114.746 13.1602 114.629 13.1133C114.504 13.0664 114.402 12.9922 114.324 12.8906C114.246 12.7891 114.207 12.6484 114.207 12.4688C114.207 12.3359 114.246 12.1562 114.324 11.9297C114.395 11.7031 114.492 11.4805 114.617 11.2617C114.742 11.043 114.883 10.8555 115.039 10.6992C115.195 10.5352 115.352 10.4531 115.508 10.4531C115.688 10.4531 115.832 10.5195 115.941 10.6523C116.059 10.7852 116.148 10.9492 116.211 11.1445C116.273 11.332 116.316 11.5312 116.34 11.7422C116.371 11.9531 116.387 12.1367 116.387 12.293C116.52 12.293 116.648 12.293 116.773 12.293C116.906 12.2852 117.031 12.2812 117.148 12.2812C117.594 12.2812 117.934 12.3789 118.168 12.5742C118.402 12.7695 118.52 13.0898 118.52 13.5352C118.52 13.7148 118.508 13.9023 118.484 14.0977C118.461 14.293 118.434 14.4961 118.402 14.707C118.371 14.9102 118.344 15.1133 118.32 15.3164C118.297 15.5195 118.285 15.7188 118.285 15.9141C118.285 16.1953 118.324 16.4297 118.402 16.6172C118.48 16.7969 118.578 16.9414 118.695 17.0508C118.812 17.1602 118.938 17.2383 119.07 17.2852C119.203 17.3242 119.324 17.3438 119.434 17.3438C119.77 17.3438 120.086 17.2344 120.383 17.0156C120.68 16.7969 120.953 16.5352 121.203 16.2305C121.453 15.918 121.676 15.5898 121.871 15.2461C122.074 14.9023 122.242 14.6016 122.375 14.3438C122.414 14.2734 122.469 14.2188 122.539 14.1797C122.609 14.1406 122.684 14.1211 122.762 14.1211C122.902 14.1211 123.012 14.168 123.09 14.2617C123.168 14.3477 123.207 14.4453 123.207 14.5547C123.207 14.6328 123.191 14.7031 123.16 14.7656C122.98 15.0859 122.77 15.4492 122.527 15.8555C122.293 16.2539 122.023 16.6289 121.719 16.9805C121.414 17.332 121.07 17.6289 120.688 17.8711C120.312 18.1133 119.898 18.2344 119.445 18.2344C119.164 18.2344 118.898 18.1797 118.648 18.0703C118.398 17.9688 118.18 17.8203 117.992 17.625C117.812 17.4219 117.668 17.1758 117.559 16.8867C117.449 16.5898 117.395 16.2578 117.395 15.8906C117.395 15.5 117.434 15.1133 117.512 14.7305C117.59 14.3398 117.629 13.9688 117.629 13.6172C117.629 13.4688 117.594 13.3594 117.523 13.2891C117.461 13.2109 117.316 13.1719 117.09 13.1719C116.98 13.1719 116.859 13.1719 116.727 13.1719C116.602 13.1719 116.465 13.1758 116.316 13.1836ZM115.531 12.3164C115.531 12.2617 115.527 12.1914 115.52 12.1055C115.52 12.0117 115.512 11.9219 115.496 11.8359C115.488 11.75 115.473 11.6758 115.449 11.6133C115.434 11.5508 115.414 11.5195 115.391 11.5195C115.367 11.5195 115.336 11.5508 115.297 11.6133C115.266 11.668 115.23 11.7383 115.191 11.8242C115.152 11.9023 115.117 11.9883 115.086 12.082C115.055 12.1758 115.031 12.2539 115.016 12.3164H115.531ZM123.781 16.7109C123.945 16.9375 124.156 17.1211 124.414 17.2617C124.672 17.3945 124.988 17.4609 125.363 17.4609C125.746 17.4609 126.094 17.3711 126.406 17.1914C126.719 17.0039 127.004 16.7617 127.262 16.4648C127.52 16.168 127.75 15.8359 127.953 15.4688C128.156 15.1016 128.34 14.7344 128.504 14.3672C128.543 14.2812 128.598 14.2188 128.668 14.1797C128.738 14.1328 128.816 14.1094 128.902 14.1094C129.035 14.1094 129.141 14.1562 129.219 14.25C129.305 14.3438 129.348 14.4453 129.348 14.5547C129.348 14.5938 129.344 14.6289 129.336 14.6602C129.328 14.6836 129.316 14.7109 129.301 14.7422C128.762 15.9297 128.172 16.8242 127.531 17.4258C126.898 18.0273 126.18 18.3359 125.375 18.3516C124.859 18.3516 124.414 18.25 124.039 18.0469C123.664 17.8516 123.355 17.5977 123.113 17.2852C122.871 16.9648 122.691 16.6055 122.574 16.207C122.457 15.8086 122.398 15.4102 122.398 15.0117C122.398 14.6133 122.445 14.2461 122.539 13.9102C122.641 13.5742 122.781 13.2812 122.961 13.0312C123.148 12.7812 123.367 12.5859 123.617 12.4453C123.875 12.3047 124.156 12.2344 124.461 12.2344C124.641 12.2344 124.816 12.2734 124.988 12.3516C125.168 12.4219 125.328 12.5273 125.469 12.668C125.609 12.8008 125.723 12.9648 125.809 13.1602C125.895 13.3555 125.938 13.5781 125.938 13.8281C125.938 14.1484 125.883 14.4492 125.773 14.7305C125.664 15.0117 125.512 15.2734 125.316 15.5156C125.129 15.7578 124.902 15.9805 124.637 16.1836C124.371 16.3867 124.086 16.5625 123.781 16.7109ZM123.43 15.9492C123.672 15.8477 123.891 15.7188 124.086 15.5625C124.289 15.4062 124.461 15.2344 124.602 15.0469C124.742 14.8594 124.852 14.6641 124.93 14.4609C125.008 14.25 125.047 14.0391 125.047 13.8281C125.047 13.5938 124.988 13.418 124.871 13.3008C124.754 13.1758 124.617 13.1133 124.461 13.1133C124.25 13.1133 124.07 13.1719 123.922 13.2891C123.773 13.4062 123.652 13.5586 123.559 13.7461C123.465 13.9336 123.395 14.1445 123.348 14.3789C123.309 14.6055 123.289 14.832 123.289 15.0586C123.289 15.1992 123.301 15.3477 123.324 15.5039C123.355 15.6602 123.391 15.8086 123.43 15.9492Z" fill="white"/>
</svg>
