<svg width="422" height="62" viewBox="0 0 422 62" fill="none" xmlns="http://www.w3.org/2000/svg">
<path d="M40.5156 11.3906C40.4688 11.6094 40.3672 11.7812 40.2109 11.9062C40.0547 12.0312 39.8828 12.0938 39.6953 12.0938C39.4141 12.0938 39.1875 12.0078 39.0156 11.8359C38.8438 11.6484 38.7578 11.4375 38.7578 11.2031C38.7578 10.9688 38.7812 10.7422 38.8281 10.5234C38.875 10.2891 38.8984 10.0625 38.8984 9.84375C38.8984 8.70312 38.5469 7.67969 37.8438 6.77344C37.1406 5.86719 36.1406 5.10938 34.8438 4.5C33.5625 3.875 32 3.39844 30.1562 3.07031C28.3125 2.74219 26.2578 2.57812 23.9922 2.57812C22.2578 2.57812 20.5078 2.69531 18.7422 2.92969C16.9922 3.14844 15.3047 3.47656 13.6797 3.91406C12.0703 4.33594 10.5625 4.875 9.15625 5.53125C7.75 6.17187 6.52344 6.92187 5.47656 7.78125C4.44531 8.625 3.63281 9.57031 3.03906 10.6172C2.44531 11.6484 2.14844 12.7812 2.14844 14.0156C2.14844 14.9688 2.35156 15.8125 2.75781 16.5469C3.17969 17.2656 3.75 17.8984 4.46875 18.4453C5.1875 18.9766 6.03125 19.4375 7 19.8281C7.98438 20.2031 9.04688 20.5234 10.1875 20.7891C11.3281 21.0391 12.5156 21.25 13.75 21.4219C14.9844 21.5781 16.2266 21.7109 17.4766 21.8203L21.0859 22.125C22.8828 22.2812 24.4922 22.4453 25.9141 22.6172C27.3359 22.7891 28.5859 23.0078 29.6641 23.2734C31.4609 23.7266 32.7891 24.375 33.6484 25.2188C34.5078 26.0625 34.9375 27.1875 34.9375 28.5938C34.9375 29.9531 34.5625 31.1484 33.8125 32.1797C33.0625 33.2109 32.0391 34.0781 30.7422 34.7812C29.4453 35.4844 27.9297 36.0156 26.1953 36.375C24.4609 36.7344 22.6016 36.9141 20.6172 36.9141C18.4609 36.9141 16.5625 36.7656 14.9219 36.4688C13.2969 36.1875 11.9297 35.875 10.8203 35.5312C9.72656 35.1719 8.89062 34.8438 8.3125 34.5469C7.73438 34.25 7.42188 34.0859 7.375 34.0547C7.09375 33.8984 6.95312 33.6484 6.95312 33.3047C6.95312 33.0391 7.04688 32.8281 7.23438 32.6719C7.42188 32.5 7.625 32.4141 7.84375 32.4141C8.01562 32.4141 8.17188 32.4609 8.3125 32.5547C8.32812 32.5547 8.59375 32.6953 9.10938 32.9766C9.64062 33.2422 10.4219 33.5391 11.4531 33.8672C12.5 34.1953 13.7891 34.4922 15.3203 34.7578C16.8516 35.0234 18.6328 35.1562 20.6641 35.1562C22.6797 35.1562 24.4609 34.9922 26.0078 34.6641C27.5547 34.3359 28.8516 33.8828 29.8984 33.3047C30.9609 32.7109 31.7578 32.0234 32.2891 31.2422C32.8359 30.4453 33.1094 29.5859 33.1094 28.6641C33.1094 28.1172 33.0078 27.6484 32.8047 27.2578C32.6172 26.8516 32.3516 26.5078 32.0078 26.2266C31.6641 25.9297 31.25 25.6797 30.7656 25.4766C30.2969 25.2734 29.7812 25.1016 29.2188 24.9609C28.625 24.8047 27.9844 24.6719 27.2969 24.5625C26.625 24.4531 25.9297 24.3594 25.2109 24.2812C24.4922 24.2031 23.7656 24.1328 23.0312 24.0703C22.3125 24.0078 21.6016 23.9453 20.8984 23.8828L17.2891 23.5781C14.4453 23.3438 11.9609 22.9844 9.83594 22.5C7.72656 22 5.96875 21.3672 4.5625 20.6016C3.15625 19.8203 2.10156 18.8906 1.39844 17.8125C0.695312 16.7344 0.34375 15.4766 0.34375 14.0391C0.34375 12.5703 0.671875 11.2266 1.32812 10.0078C2 8.77344 2.90625 7.66406 4.04688 6.67969C5.20312 5.69531 6.54688 4.84375 8.07812 4.125C9.625 3.39063 11.2734 2.78125 13.0234 2.29688C14.7734 1.8125 16.5859 1.45312 18.4609 1.21875C20.3359 0.96875 22.1797 0.84375 23.9922 0.84375C26.2578 0.84375 28.2266 0.984375 29.8984 1.26562C31.5859 1.53125 33.0234 1.88281 34.2109 2.32031C35.4141 2.74219 36.3984 3.22656 37.1641 3.77344C37.9297 4.32031 38.5469 4.85937 39.0156 5.39062C40.125 6.6875 40.6797 8.16406 40.6797 9.82031C40.6797 10.3672 40.625 10.8906 40.5156 11.3906ZM49.1172 33.4219C48.7266 33.4219 48.3828 33.3906 48.0859 33.3281C47.8516 33.7969 47.5703 34.2344 47.2422 34.6406C46.9141 35.0312 46.5312 35.375 46.0938 35.6719C45.6719 35.9688 45.1953 36.2031 44.6641 36.375C44.1328 36.5469 43.5547 36.6328 42.9297 36.6328C42.1953 36.6328 41.5234 36.5 40.9141 36.2344C40.3047 35.9844 39.7734 35.6328 39.3203 35.1797C38.8672 34.7109 38.5156 34.1562 38.2656 33.5156C38.0156 32.8594 37.8906 32.1406 37.8906 31.3594C37.8906 30.3594 38.0703 29.4922 38.4297 28.7578C38.7891 28.0078 39.2031 27.3906 39.6719 26.9062C40.1406 26.4062 40.6094 26.0391 41.0781 25.8047C41.5469 25.5547 41.8984 25.4297 42.1328 25.4297C42.3984 25.4297 42.5938 25.5 42.7188 25.6406C42.8594 25.7812 42.9297 25.9688 42.9297 26.2031C42.9297 26.4688 42.8438 26.6719 42.6719 26.8125C42.5156 26.9375 42.3125 27.0625 42.0625 27.1875C41.8125 27.3125 41.5469 27.4922 41.2656 27.7266C40.9844 27.9453 40.7188 28.2266 40.4688 28.5703C40.2344 28.9141 40.0391 29.3203 39.8828 29.7891C39.7266 30.2578 39.6484 30.7812 39.6484 31.3594C39.6484 31.875 39.7266 32.3594 39.8828 32.8125C40.0391 33.25 40.2656 33.6328 40.5625 33.9609C40.8594 34.2734 41.2109 34.5234 41.6172 34.7109C42.0234 34.8828 42.4766 34.9688 42.9766 34.9688C43.8672 34.9688 44.6016 34.7656 45.1797 34.3594C45.7734 33.9375 46.2266 33.4062 46.5391 32.7656C45.6172 32.2812 44.8594 31.5938 44.2656 30.7031C43.6719 29.8125 43.375 28.8125 43.375 27.7031C43.375 26.8125 43.5859 26.0859 44.0078 25.5234C44.4453 24.9609 45.0156 24.6797 45.7188 24.6797C46.1406 24.6797 46.5391 24.7812 46.9141 24.9844C47.2891 25.1875 47.6172 25.5078 47.8984 25.9453C48.1953 26.3828 48.4297 26.9453 48.6016 27.6328C48.7734 28.3203 48.8594 29.1406 48.8594 30.0938C48.8594 30.5938 48.7969 31.1172 48.6719 31.6641C48.7656 31.6797 48.8594 31.6875 48.9531 31.6875C49.0469 31.6875 49.1484 31.6875 49.2578 31.6875C49.7891 31.6875 50.2656 31.625 50.6875 31.5C51.1094 31.375 51.4922 31.1875 51.8359 30.9375C52.1797 30.6875 52.4844 30.3672 52.75 29.9766C53.0312 29.5859 53.2969 29.1328 53.5469 28.6172C53.5938 28.5234 53.6953 28.4375 53.8516 28.3594C54.0078 28.2656 54.1641 28.2188 54.3203 28.2188C54.5234 28.2188 54.7109 28.3047 54.8828 28.4766C55.0703 28.6328 55.1641 28.8438 55.1641 29.1094C55.1641 29.2344 55.1328 29.375 55.0703 29.5312C55.0078 29.6719 54.9453 29.8047 54.8828 29.9297C54.6172 30.3984 54.3047 30.8516 53.9453 31.2891C53.6016 31.7109 53.1875 32.0859 52.7031 32.4141C52.2344 32.7266 51.7031 32.9766 51.1094 33.1641C50.5156 33.3516 49.8516 33.4375 49.1172 33.4219ZM45.1094 27.5156C45.1094 27.8125 45.1484 28.125 45.2266 28.4531C45.3047 28.7812 45.4219 29.1094 45.5781 29.4375C45.75 29.75 45.9531 30.0547 46.1875 30.3516C46.4375 30.6328 46.7266 30.875 47.0547 31.0781C47.1016 30.75 47.125 30.4297 47.125 30.1172C47.125 29.6953 47.0938 29.2656 47.0312 28.8281C46.9688 28.3906 46.875 27.9922 46.75 27.6328C46.6406 27.2578 46.5 26.9609 46.3281 26.7422C46.1562 26.5078 45.9531 26.3906 45.7188 26.3906C45.625 26.3906 45.5 26.4609 45.3438 26.6016C45.1875 26.7422 45.1094 27.0469 45.1094 27.5156ZM61.2812 33.375C60.7344 34.2656 60.0938 34.9688 59.3594 35.4844C58.6406 36 57.9141 36.2578 57.1797 36.2578C56.5859 36.2578 56.0547 36.1484 55.5859 35.9297C55.1172 35.7109 54.7109 35.4062 54.3672 35.0156C54.0234 34.6094 53.7578 34.125 53.5703 33.5625C53.3984 33 53.3125 32.3672 53.3125 31.6641C53.3125 30.5703 53.4141 29.6016 53.6172 28.7578C53.8359 27.9141 54.0703 27.2109 54.3203 26.6484C54.5703 26.0703 54.8047 25.6328 55.0234 25.3359C55.2422 25.0391 55.3516 24.8906 55.3516 24.8906C55.4297 24.7969 55.5234 24.7266 55.6328 24.6797C55.7578 24.6328 55.8828 24.6094 56.0078 24.6094C56.2578 24.6094 56.4609 24.7031 56.6172 24.8906C56.7891 25.0625 56.875 25.2656 56.875 25.5C56.875 25.5938 56.8516 25.6875 56.8047 25.7812C56.7734 25.875 56.7344 25.9688 56.6875 26.0625C56.6094 26.2031 56.4844 26.4219 56.3125 26.7188C56.1406 27 55.9609 27.375 55.7734 27.8438C55.5859 28.3125 55.4219 28.8672 55.2812 29.5078C55.1406 30.1328 55.0703 30.8516 55.0703 31.6641C55.0703 32.5859 55.25 33.2891 55.6094 33.7734C55.9844 34.2422 56.5078 34.4766 57.1797 34.4766C57.4609 34.4766 57.7812 34.3906 58.1406 34.2188C58.5156 34.0312 58.875 33.75 59.2188 33.375C59.5781 33 59.8906 32.5234 60.1562 31.9453C60.4219 31.3672 60.5938 30.6875 60.6719 29.9062L61.0234 25.875C61.0547 25.6406 61.1562 25.4453 61.3281 25.2891C61.5 25.1328 61.7031 25.0547 61.9375 25.0547C62.2031 25.0547 62.4141 25.1562 62.5703 25.3594C62.7266 25.5469 62.8047 25.7656 62.8047 26.0156L62.5 29.9062C62.4688 30.2344 62.4766 30.6641 62.5234 31.1953C62.5859 31.7266 62.7031 32.25 62.875 32.7656C63.0469 33.2812 63.3047 33.7266 63.6484 34.1016C63.9922 34.4609 64.4453 34.6406 65.0078 34.6406C65.4141 34.6406 65.8125 34.5391 66.2031 34.3359C66.5938 34.1172 66.9688 33.8359 67.3281 33.4922C67.6875 33.1484 68.0156 32.7656 68.3125 32.3438C68.625 31.9062 68.9062 31.4688 69.1562 31.0312C69.4219 30.5938 69.6484 30.1797 69.8359 29.7891C70.0234 29.3828 70.1797 29.0391 70.3047 28.7578C70.3828 28.5859 70.4922 28.4531 70.6328 28.3594C70.7734 28.2656 70.9297 28.2188 71.1016 28.2188C71.3828 28.2188 71.6016 28.3125 71.7578 28.5C71.9141 28.6875 71.9922 28.8906 71.9922 29.1094C71.9922 29.2344 71.9688 29.3516 71.9219 29.4609C71.8594 29.5859 71.7344 29.8516 71.5469 30.2578C71.375 30.6484 71.1406 31.1016 70.8438 31.6172C70.5625 32.1172 70.2188 32.6484 69.8125 33.2109C69.4062 33.7734 68.9531 34.2969 68.4531 34.7812C67.9531 35.25 67.4062 35.6406 66.8125 35.9531C66.2344 36.25 65.6094 36.3984 64.9375 36.3984C64.0156 36.3984 63.25 36.1406 62.6406 35.625C62.0312 35.0938 61.5781 34.3438 61.2812 33.375ZM89.3125 12.5391C89.3125 12.7891 89.2266 12.9922 89.0547 13.1484C88.8828 13.2891 88.6719 13.3594 88.4219 13.3594H76.5391V13.6172C76.5391 14.5703 76.4688 15.5859 76.3281 16.6641C76.1875 17.7422 75.9922 18.8203 75.7422 19.8984C75.5078 20.9609 75.2344 22 74.9219 23.0156C74.625 24.0312 74.3125 24.9688 73.9844 25.8281C73.6719 26.6875 73.3594 27.4375 73.0469 28.0781C72.7344 28.7031 72.4531 29.1719 72.2031 29.4844C72.4062 30.2031 72.6484 30.875 72.9297 31.5C73.2109 32.1094 73.5234 32.6484 73.8672 33.1172C74.2266 33.5703 74.6094 33.9297 75.0156 34.1953C75.4219 34.4609 75.8594 34.5938 76.3281 34.5938C76.875 34.5938 77.4141 34.3672 77.9453 33.9141C78.4922 33.4453 78.9922 32.8984 79.4453 32.2734C79.9141 31.6328 80.3203 30.9922 80.6641 30.3516C81.0234 29.6953 81.2812 29.1719 81.4375 28.7812C81.5938 28.4062 81.8672 28.2188 82.2578 28.2188C82.5234 28.2188 82.7344 28.3125 82.8906 28.5C83.0625 28.6875 83.1484 28.8906 83.1484 29.1094C83.1484 29.2188 83.125 29.3281 83.0781 29.4375C83.0312 29.5469 82.9141 29.7969 82.7266 30.1875C82.5547 30.5781 82.3203 31.0312 82.0234 31.5469C81.7422 32.0625 81.4062 32.6094 81.0156 33.1875C80.6406 33.75 80.2109 34.2656 79.7266 34.7344C79.2578 35.2031 78.75 35.5938 78.2031 35.9062C77.6562 36.2188 77.0781 36.375 76.4688 36.375C75.3906 36.375 74.4219 36.0234 73.5625 35.3203C72.7031 34.6172 71.9688 33.6328 71.3594 32.3672C70.7656 31.1016 70.3125 29.6016 70 27.8672C69.6875 26.1328 69.5312 24.2344 69.5312 22.1719C69.5312 21.6562 69.5391 21.0547 69.5547 20.3672C69.5703 19.6641 69.6016 18.9297 69.6484 18.1641C69.6953 17.3828 69.7656 16.5859 69.8594 15.7734C69.9531 14.9453 70.0781 14.1406 70.2344 13.3594H61.8203C61.5703 13.3594 61.3594 13.2891 61.1875 13.1484C61.0156 12.9922 60.9297 12.7891 60.9297 12.5391C60.9297 12.2891 61.0156 12.0938 61.1875 11.9531C61.3594 11.7969 61.5703 11.7188 61.8203 11.7188H70.6328C70.7891 11.1562 70.9688 10.6406 71.1719 10.1719C71.3906 9.70312 71.6328 9.29688 71.8984 8.95312C72.1797 8.60938 72.4844 8.34375 72.8125 8.15625C73.1562 7.95312 73.5312 7.85156 73.9375 7.85156C74.3281 7.85156 74.6641 7.95312 74.9453 8.15625C75.2422 8.34375 75.4922 8.60938 75.6953 8.95312C75.8984 9.29688 76.0547 9.70312 76.1641 10.1719C76.2891 10.6406 76.3828 11.1562 76.4453 11.7188H88.4219C88.6719 11.7188 88.8828 11.7969 89.0547 11.9531C89.2266 12.0938 89.3125 12.2891 89.3125 12.5391ZM71.6641 27.1406C72.1328 26.1094 72.5547 25 72.9297 23.8125C73.3203 22.6094 73.6484 21.3984 73.9141 20.1797C74.1953 18.9609 74.4062 17.7656 74.5469 16.5938C74.7031 15.4219 74.7812 14.3438 74.7812 13.3594H72.0156C71.7969 14.3281 71.6172 15.5312 71.4766 16.9688C71.3516 18.3906 71.2891 20.125 71.2891 22.1719C71.2891 23.3125 71.3203 24.2734 71.3828 25.0547C71.4453 25.8203 71.5391 26.5156 71.6641 27.1406ZM73.8438 9.60938C73.7031 9.60938 73.5 9.76562 73.2344 10.0781C72.9688 10.375 72.7031 10.9219 72.4375 11.7188H74.6875C74.6094 11.0625 74.4922 10.5469 74.3359 10.1719C74.1953 9.79688 74.0312 9.60938 73.8438 9.60938ZM72.0391 28.8281V28.8516V28.8281ZM83.3828 34.0078C83.6328 33.4766 83.9219 32.9062 84.25 32.2969C84.5781 31.6719 84.9297 31.0391 85.3047 30.3984C85.6797 29.7422 86.0781 29.0938 86.5 28.4531C86.9219 27.8125 87.3594 27.2109 87.8125 26.6484C88.2656 26.1016 88.7188 25.7109 89.1719 25.4766C89.6406 25.2266 90.0781 25.1016 90.4844 25.1016C90.8906 25.1016 91.2422 25.1875 91.5391 25.3594C91.8516 25.5156 92.1016 25.7344 92.2891 26.0156C92.4922 26.2969 92.6406 26.625 92.7344 27C92.8438 27.375 92.8984 27.7812 92.8984 28.2188C92.8984 28.5781 92.8594 29.0625 92.7812 29.6719C92.7188 30.2656 92.6875 30.8906 92.6875 31.5469C92.6875 31.9219 92.7031 32.2969 92.7344 32.6719C92.7812 33.0312 92.8516 33.3594 92.9453 33.6562C93.0547 33.9375 93.2109 34.1719 93.4141 34.3594C93.6172 34.5312 93.8828 34.6172 94.2109 34.6172C94.5859 34.6172 94.9609 34.5156 95.3359 34.3125C95.7109 34.0938 96.0781 33.8125 96.4375 33.4688C96.7969 33.1094 97.1406 32.7188 97.4688 32.2969C97.7969 31.8594 98.0938 31.4297 98.3594 31.0078C98.625 30.5703 98.8594 30.1562 99.0625 29.7656C99.2656 29.3594 99.4297 29.0234 99.5547 28.7578C99.7109 28.3984 99.9844 28.2188 100.375 28.2188C100.641 28.2188 100.852 28.3125 101.008 28.5C101.164 28.6875 101.242 28.8906 101.242 29.1094C101.242 29.2344 101.219 29.3516 101.172 29.4609C101.109 29.5859 100.984 29.8438 100.797 30.2344C100.625 30.625 100.383 31.0781 100.07 31.5938C99.7734 32.1094 99.4219 32.6484 99.0156 33.2109C98.6094 33.7734 98.1562 34.2969 97.6562 34.7812C97.1719 35.25 96.6406 35.6406 96.0625 35.9531C95.5 36.25 94.9062 36.3984 94.2812 36.3984C93.5625 36.3984 92.9844 36.25 92.5469 35.9531C92.1094 35.6406 91.7656 35.25 91.5156 34.7812C91.2812 34.3125 91.1172 33.7891 91.0234 33.2109C90.9453 32.6328 90.9062 32.0703 90.9062 31.5234C90.9062 31.2422 90.9141 30.9453 90.9297 30.6328C90.9609 30.3047 90.9922 29.9844 91.0234 29.6719C91.0547 29.3594 91.0781 29.0703 91.0938 28.8047C91.125 28.5234 91.1406 28.2891 91.1406 28.1016C91.1406 27.6172 91.0703 27.2891 90.9297 27.1172C90.8047 26.9453 90.6562 26.8594 90.4844 26.8594C90.2344 26.8594 89.9453 27.0078 89.6172 27.3047C89.3047 27.5859 88.9688 27.9609 88.6094 28.4297C88.2656 28.8984 87.9141 29.4297 87.5547 30.0234C87.2109 30.6016 86.875 31.1797 86.5469 31.7578C86.2188 32.3359 85.9219 32.8906 85.6562 33.4219C85.3906 33.9375 85.1719 34.3672 85 34.7109C84.6719 35.3672 84.3359 35.8047 83.9922 36.0234C83.6641 36.2578 83.3672 36.375 83.1016 36.375C82.6172 36.375 82.2422 36.1875 81.9766 35.8125C81.7266 35.4219 81.6016 34.9531 81.6016 34.4062V32.9297C81.6016 29.9766 81.6016 27.1641 81.6016 24.4922C81.6172 21.8047 81.6562 19.3125 81.7188 17.0156C81.7969 14.7031 81.9141 12.6172 82.0703 10.7578C82.2422 8.88281 82.4922 7.28906 82.8203 5.97656C83.1484 4.64844 83.5625 3.625 84.0625 2.90625C84.5781 2.1875 85.2188 1.82812 85.9844 1.82812C86.6406 1.82812 87.1953 2.00781 87.6484 2.36719C88.1016 2.72656 88.4688 3.21875 88.75 3.84375C89.0312 4.45312 89.2344 5.17188 89.3594 6C89.4844 6.8125 89.5469 7.67188 89.5469 8.57812C89.5469 10.4219 89.375 12.2344 89.0312 14.0156C88.7031 15.7812 88.2578 17.5078 87.6953 19.1953C87.1328 20.8828 86.4766 22.5312 85.7266 24.1406C84.9766 25.7344 84.1875 27.2891 83.3594 28.8047C83.3594 29.0859 83.3594 29.4219 83.3594 29.8125C83.3594 30.2031 83.3594 30.5938 83.3594 30.9844C83.3594 31.375 83.3594 31.7422 83.3594 32.0859C83.3594 32.4297 83.3594 32.7031 83.3594 32.9062L83.3828 34.0078ZM83.3828 25.3594C84.0391 23.9219 84.6328 22.5234 85.1641 21.1641C85.7109 19.7891 86.1719 18.4219 86.5469 17.0625C86.9375 15.7031 87.2422 14.3281 87.4609 12.9375C87.6797 11.5312 87.7891 10.0703 87.7891 8.55469C87.7891 8.30469 87.7734 7.90625 87.7422 7.35938C87.7266 6.8125 87.6562 6.25781 87.5312 5.69531C87.4219 5.13281 87.2422 4.64062 86.9922 4.21875C86.7578 3.79688 86.4219 3.58594 85.9844 3.58594C85.6406 3.58594 85.3438 3.82031 85.0938 4.28906C84.8438 4.74219 84.625 5.36719 84.4375 6.16406C84.25 6.94531 84.0938 7.85938 83.9688 8.90625C83.8438 9.95312 83.7422 11.0625 83.6641 12.2344C83.5859 13.4062 83.5234 14.6094 83.4766 15.8438C83.4453 17.0781 83.4219 18.2812 83.4062 19.4531C83.3906 20.6094 83.3828 21.6953 83.3828 22.7109C83.3828 23.7266 83.3828 24.6094 83.3828 25.3594ZM102.391 33.4219C102.719 33.875 103.141 34.2422 103.656 34.5234C104.172 34.7891 104.805 34.9219 105.555 34.9219C106.32 34.9219 107.016 34.7422 107.641 34.3828C108.266 34.0078 108.836 33.5234 109.352 32.9297C109.867 32.3359 110.328 31.6719 110.734 30.9375C111.141 30.2031 111.508 29.4688 111.836 28.7344C111.914 28.5625 112.023 28.4375 112.164 28.3594C112.305 28.2656 112.461 28.2188 112.633 28.2188C112.898 28.2188 113.109 28.3125 113.266 28.5C113.438 28.6875 113.523 28.8906 113.523 29.1094C113.523 29.1875 113.516 29.2578 113.5 29.3203C113.484 29.3672 113.461 29.4219 113.43 29.4844C112.352 31.8594 111.172 33.6484 109.891 34.8516C108.625 36.0547 107.188 36.6719 105.578 36.7031C104.547 36.7031 103.656 36.5 102.906 36.0938C102.156 35.7031 101.539 35.1953 101.055 34.5703C100.57 33.9297 100.211 33.2109 99.9766 32.4141C99.7422 31.6172 99.625 30.8203 99.625 30.0234C99.625 29.2266 99.7188 28.4922 99.9062 27.8203C100.109 27.1484 100.391 26.5625 100.75 26.0625C101.125 25.5625 101.562 25.1719 102.062 24.8906C102.578 24.6094 103.141 24.4688 103.75 24.4688C104.109 24.4688 104.461 24.5469 104.805 24.7031C105.164 24.8438 105.484 25.0547 105.766 25.3359C106.047 25.6016 106.273 25.9297 106.445 26.3203C106.617 26.7109 106.703 27.1562 106.703 27.6562C106.703 28.2969 106.594 28.8984 106.375 29.4609C106.156 30.0234 105.852 30.5469 105.461 31.0312C105.086 31.5156 104.633 31.9609 104.102 32.3672C103.57 32.7734 103 33.125 102.391 33.4219ZM101.688 31.8984C102.172 31.6953 102.609 31.4375 103 31.125C103.406 30.8125 103.75 30.4688 104.031 30.0938C104.312 29.7188 104.531 29.3281 104.688 28.9219C104.844 28.5 104.922 28.0781 104.922 27.6562C104.922 27.1875 104.805 26.8359 104.57 26.6016C104.336 26.3516 104.062 26.2266 103.75 26.2266C103.328 26.2266 102.969 26.3438 102.672 26.5781C102.375 26.8125 102.133 27.1172 101.945 27.4922C101.758 27.8672 101.617 28.2891 101.523 28.7578C101.445 29.2109 101.406 29.6641 101.406 30.1172C101.406 30.3984 101.43 30.6953 101.477 31.0078C101.539 31.3203 101.609 31.6172 101.688 31.8984ZM114.32 26.3672C114.258 26.7891 114.18 27.1875 114.086 27.5625C113.992 27.9219 113.898 28.2422 113.805 28.5234C113.727 28.7891 113.656 29.0078 113.594 29.1797C113.531 29.3516 113.492 29.4453 113.477 29.4609C113.32 29.8203 113.047 30 112.656 30C112.438 30 112.234 29.9219 112.047 29.7656C111.859 29.5938 111.766 29.3828 111.766 29.1328C111.766 29.0391 111.781 28.9688 111.812 28.9219C111.844 28.875 111.891 28.7812 111.953 28.6406C112.016 28.5 112.094 28.2656 112.188 27.9375C112.281 27.6094 112.398 27.1016 112.539 26.4141C112.273 26.4141 112 26.4062 111.719 26.3906C111.438 26.375 111.18 26.3203 110.945 26.2266C110.695 26.1328 110.492 25.9844 110.336 25.7812C110.18 25.5781 110.102 25.2969 110.102 24.9375C110.102 24.6719 110.18 24.3125 110.336 23.8594C110.477 23.4062 110.672 22.9609 110.922 22.5234C111.172 22.0859 111.453 21.7109 111.766 21.3984C112.078 21.0703 112.391 20.9062 112.703 20.9062C113.062 20.9062 113.352 21.0391 113.57 21.3047C113.805 21.5703 113.984 21.8984 114.109 22.2891C114.234 22.6641 114.32 23.0625 114.367 23.4844C114.43 23.9062 114.461 24.2734 114.461 24.5859C114.727 24.5859 114.984 24.5859 115.234 24.5859C115.5 24.5703 115.75 24.5625 115.984 24.5625C116.875 24.5625 117.555 24.7578 118.023 25.1484C118.492 25.5391 118.727 26.1797 118.727 27.0703C118.727 27.4297 118.703 27.8047 118.656 28.1953C118.609 28.5859 118.555 28.9922 118.492 29.4141C118.43 29.8203 118.375 30.2266 118.328 30.6328C118.281 31.0391 118.258 31.4375 118.258 31.8281C118.258 32.3906 118.336 32.8594 118.492 33.2344C118.648 33.5938 118.844 33.8828 119.078 34.1016C119.312 34.3203 119.562 34.4766 119.828 34.5703C120.094 34.6484 120.336 34.6875 120.555 34.6875C121.227 34.6875 121.859 34.4688 122.453 34.0312C123.047 33.5938 123.594 33.0703 124.094 32.4609C124.594 31.8359 125.039 31.1797 125.43 30.4922C125.836 29.8047 126.172 29.2031 126.438 28.6875C126.516 28.5469 126.625 28.4375 126.766 28.3594C126.906 28.2812 127.055 28.2422 127.211 28.2422C127.492 28.2422 127.711 28.3359 127.867 28.5234C128.023 28.6953 128.102 28.8906 128.102 29.1094C128.102 29.2656 128.07 29.4062 128.008 29.5312C127.648 30.1719 127.227 30.8984 126.742 31.7109C126.273 32.5078 125.734 33.2578 125.125 33.9609C124.516 34.6641 123.828 35.2578 123.062 35.7422C122.312 36.2266 121.484 36.4688 120.578 36.4688C120.016 36.4688 119.484 36.3594 118.984 36.1406C118.484 35.9375 118.047 35.6406 117.672 35.25C117.312 34.8438 117.023 34.3516 116.805 33.7734C116.586 33.1797 116.477 32.5156 116.477 31.7812C116.477 31 116.555 30.2266 116.711 29.4609C116.867 28.6797 116.945 27.9375 116.945 27.2344C116.945 26.9375 116.875 26.7188 116.734 26.5781C116.609 26.4219 116.32 26.3438 115.867 26.3438C115.648 26.3438 115.406 26.3438 115.141 26.3438C114.891 26.3438 114.617 26.3516 114.32 26.3672ZM112.75 24.6328C112.75 24.5234 112.742 24.3828 112.727 24.2109C112.727 24.0234 112.711 23.8438 112.68 23.6719C112.664 23.5 112.633 23.3516 112.586 23.2266C112.555 23.1016 112.516 23.0391 112.469 23.0391C112.422 23.0391 112.359 23.1016 112.281 23.2266C112.219 23.3359 112.148 23.4766 112.07 23.6484C111.992 23.8047 111.922 23.9766 111.859 24.1641C111.797 24.3516 111.75 24.5078 111.719 24.6328H112.75ZM131.641 33.8906C131.891 33.375 132.18 32.8125 132.508 32.2031C132.836 31.5781 133.188 30.9531 133.562 30.3281C133.938 29.6875 134.328 29.0547 134.734 28.4297C135.156 27.8047 135.594 27.2109 136.047 26.6484C136.5 26.1016 136.953 25.7109 137.406 25.4766C137.875 25.2266 138.312 25.1016 138.719 25.1016C139.531 25.1016 140.133 25.3984 140.523 25.9922C140.914 26.5859 141.109 27.3203 141.109 28.1953C141.109 28.3984 141.094 28.6484 141.062 28.9453C141.047 29.2266 141.023 29.5312 140.992 29.8594C140.977 30.1875 140.953 30.5234 140.922 30.8672C140.906 31.1953 140.898 31.5078 140.898 31.8047C140.898 32.1797 140.914 32.5391 140.945 32.8828C140.992 33.2266 141.07 33.5312 141.18 33.7969C141.289 34.0469 141.445 34.25 141.648 34.4062C141.852 34.5469 142.117 34.6172 142.445 34.6172C143.039 34.6172 143.617 34.3906 144.18 33.9375C144.742 33.4688 145.258 32.9219 145.727 32.2969C146.211 31.6562 146.625 31.0078 146.969 30.3516C147.328 29.6953 147.594 29.1641 147.766 28.7578C147.844 28.5859 147.953 28.4531 148.094 28.3594C148.25 28.2656 148.414 28.2188 148.586 28.2188C148.852 28.2188 149.062 28.3203 149.219 28.5234C149.391 28.7109 149.477 28.9141 149.477 29.1328C149.477 29.2422 149.453 29.3516 149.406 29.4609C149.344 29.5859 149.219 29.8438 149.031 30.2344C148.844 30.625 148.594 31.0781 148.281 31.5938C147.984 32.0938 147.633 32.6328 147.227 33.2109C146.82 33.7734 146.367 34.2891 145.867 34.7578C145.383 35.2266 144.852 35.6172 144.273 35.9297C143.711 36.2422 143.117 36.3984 142.492 36.3984C141.789 36.3984 141.219 36.2656 140.781 36C140.344 35.7188 140 35.3594 139.75 34.9219C139.5 34.4688 139.328 33.9766 139.234 33.4453C139.156 32.8984 139.117 32.3516 139.117 31.8047C139.117 31.5703 139.125 31.3047 139.141 31.0078C139.172 30.7109 139.203 30.3984 139.234 30.0703C139.281 29.7422 139.312 29.4141 139.328 29.0859C139.359 28.7578 139.375 28.4453 139.375 28.1484C139.375 27.6484 139.297 27.3125 139.141 27.1406C138.984 26.9531 138.844 26.8594 138.719 26.8594C138.469 26.8594 138.18 27.0078 137.852 27.3047C137.539 27.5859 137.203 27.9609 136.844 28.4297C136.5 28.8984 136.141 29.4297 135.766 30.0234C135.406 30.6016 135.062 31.1797 134.734 31.7578C134.422 32.3359 134.125 32.8906 133.844 33.4219C133.578 33.9375 133.367 34.3672 133.211 34.7109C132.898 35.3672 132.586 35.8047 132.273 36.0234C131.961 36.2578 131.641 36.375 131.312 36.375C130.859 36.375 130.492 36.2422 130.211 35.9766C129.945 35.6953 129.812 35.3047 129.812 34.8047C129.812 34.6953 129.828 34.4844 129.859 34.1719C129.891 33.8438 129.93 33.4609 129.977 33.0234C130.023 32.5703 130.07 32.0859 130.117 31.5703C130.164 31.0547 130.211 30.5469 130.258 30.0469C130.305 29.5312 130.344 29.0547 130.375 28.6172C130.406 28.1797 130.422 27.8125 130.422 27.5156C130.422 27.125 130.406 26.75 130.375 26.3906C130.344 26.0312 130.281 25.8125 130.188 25.7344C130.047 25.7812 129.797 26.0781 129.438 26.625C129.078 27.1562 128.617 28.1016 128.055 29.4609C127.977 29.6328 127.859 29.7656 127.703 29.8594C127.547 29.9531 127.383 30 127.211 30C126.945 30 126.734 29.9141 126.578 29.7422C126.422 29.5547 126.344 29.3438 126.344 29.1094C126.344 29 126.367 28.8828 126.414 28.7578C127.117 27.0859 127.773 25.8594 128.383 25.0781C129.008 24.2812 129.625 23.8828 130.234 23.8828C130.594 23.8828 130.898 23.9766 131.148 24.1641C131.398 24.3359 131.594 24.5703 131.734 24.8672C131.891 25.1641 132 25.4922 132.062 25.8516C132.141 26.2109 132.18 26.5781 132.18 26.9531C132.18 27.2344 132.156 27.6719 132.109 28.2656C132.078 28.8594 132.031 29.5 131.969 30.1875C131.906 30.8594 131.844 31.5312 131.781 32.2031C131.734 32.875 131.688 33.4375 131.641 33.8906ZM201.484 19.7109C202.828 20.0859 203.969 20.5156 204.906 21C205.859 21.4844 206.656 21.9922 207.297 22.5234C207.953 23.0391 208.469 23.5703 208.844 24.1172C209.219 24.6641 209.508 25.1875 209.711 25.6875C209.914 26.1875 210.039 26.6562 210.086 27.0938C210.148 27.5156 210.18 27.875 210.18 28.1719C210.18 29.2656 209.969 30.2422 209.547 31.1016C209.141 31.9609 208.586 32.7188 207.883 33.375C207.18 34.0312 206.359 34.5859 205.422 35.0391C204.5 35.4922 203.531 35.8594 202.516 36.1406C201.5 36.4375 200.461 36.6484 199.398 36.7734C198.336 36.9141 197.328 36.9844 196.375 36.9844C194.828 36.9844 193.227 36.8281 191.57 36.5156C189.93 36.2031 188.266 35.6953 186.578 34.9922C186.203 34.8359 186.016 34.5625 186.016 34.1719C186.016 33.9062 186.109 33.6953 186.297 33.5391C186.484 33.3672 186.688 33.2812 186.906 33.2812C187.016 33.2812 187.133 33.3047 187.258 33.3516C188.711 33.9609 190.203 34.4219 191.734 34.7344C193.266 35.0469 194.805 35.2031 196.352 35.2031C198.461 35.2031 200.273 35 201.789 34.5938C203.305 34.1875 204.547 33.6562 205.516 33C206.5 32.3281 207.227 31.5781 207.695 30.75C208.164 29.9062 208.398 29.0547 208.398 28.1953C208.398 27.2422 208.133 26.3594 207.602 25.5469C207.086 24.7344 206.344 24.0078 205.375 23.3672C204.422 22.7266 203.273 22.1797 201.93 21.7266C200.586 21.2734 199.094 20.9375 197.453 20.7188C196.375 20.9062 195.328 21.0391 194.312 21.1172C193.297 21.1953 192.359 21.2344 191.5 21.2344H190.961C190.852 21.2344 190.75 21.2266 190.656 21.2109C189.531 23.9141 188.188 26.25 186.625 28.2188C185.078 30.1875 183.422 31.8203 181.656 33.1172C179.906 34.3984 178.102 35.3516 176.242 35.9766C174.398 36.5859 172.625 36.8906 170.922 36.8906C169.156 36.8906 167.531 36.6406 166.047 36.1406C164.578 35.6562 163.312 34.9609 162.25 34.0547C161.188 33.1484 160.359 32.0547 159.766 30.7734C159.172 29.4766 158.875 28.0312 158.875 26.4375C158.875 24.7812 159.195 23.0703 159.836 21.3047C160.492 19.5234 161.461 17.7188 162.742 15.8906C163.961 14.1719 165.312 12.6328 166.797 11.2734C168.281 9.89844 169.836 8.69531 171.461 7.66406C173.102 6.63281 174.789 5.75 176.523 5.01562C178.258 4.28125 179.977 3.67969 181.68 3.21094C183.398 2.74219 185.07 2.40625 186.695 2.20312C188.336 1.98438 189.875 1.875 191.312 1.875C192.484 1.875 193.602 1.91406 194.664 1.99219C195.727 2.07031 196.742 2.1875 197.711 2.34375C198.273 1.71875 198.727 1.27344 199.07 1.00781C199.414 0.726562 199.609 0.570312 199.656 0.539062C199.844 0.445312 200.008 0.398438 200.148 0.398438C200.367 0.398438 200.562 0.460938 200.734 0.585938C200.906 0.710937 200.992 0.890625 200.992 1.125C200.992 1.4375 200.883 1.70313 200.664 1.92188C200.445 2.125 200.148 2.40625 199.773 2.76562C202.633 3.46875 204.82 4.53125 206.336 5.95312C207.852 7.35938 208.609 9.10156 208.609 11.1797C208.609 12.3203 208.422 13.3438 208.047 14.25C207.672 15.1562 207.156 15.9531 206.5 16.6406C205.859 17.3281 205.102 17.9297 204.227 18.4453C203.367 18.9453 202.453 19.3672 201.484 19.7109ZM197.477 18.9375C198.164 18.8125 198.867 18.6484 199.586 18.4453C200.32 18.2422 201.031 18 201.719 17.7188C202.422 17.4219 203.086 17.0781 203.711 16.6875C204.336 16.2812 204.875 15.8125 205.328 15.2812C205.797 14.7344 206.164 14.125 206.43 13.4531C206.711 12.7812 206.852 12.0156 206.852 11.1562C206.852 9.40625 206.125 7.96094 204.672 6.82031C203.219 5.67969 201.133 4.83594 198.414 4.28906C197.633 5.25781 196.898 6.32812 196.211 7.5C195.523 8.67188 194.891 9.89062 194.312 11.1562C193.734 12.4062 193.211 13.6797 192.742 14.9766C192.289 16.2578 191.914 17.5 191.617 18.7031C191.93 18.6875 192.219 18.6797 192.484 18.6797C192.75 18.6797 192.977 18.6797 193.164 18.6797C193.773 18.6797 194.438 18.7031 195.156 18.75C195.875 18.7812 196.648 18.8438 197.477 18.9375ZM196.422 3.96094C195.625 3.85156 194.805 3.77344 193.961 3.72656C193.117 3.67969 192.234 3.65625 191.312 3.65625C189.938 3.65625 188.477 3.75781 186.93 3.96094C185.383 4.16406 183.797 4.48437 182.172 4.92188C180.547 5.35938 178.906 5.92969 177.25 6.63281C175.609 7.32031 174.008 8.15625 172.445 9.14062C170.898 10.1094 169.422 11.2422 168.016 12.5391C166.609 13.8359 165.328 15.2969 164.172 16.9219C163 18.5781 162.117 20.2109 161.523 21.8203C160.93 23.4297 160.633 24.9609 160.633 26.4141C160.633 27.7734 160.875 28.9922 161.359 30.0703C161.859 31.1484 162.562 32.0625 163.469 32.8125C164.375 33.5469 165.461 34.1172 166.727 34.5234C167.992 34.9141 169.391 35.1094 170.922 35.1094C172.453 35.1094 174.047 34.8359 175.703 34.2891C177.359 33.7266 178.977 32.875 180.555 31.7344C182.133 30.5781 183.633 29.125 185.055 27.375C186.477 25.6094 187.719 23.5156 188.781 21.0938C188.5 21.0938 188.211 21.0156 187.914 20.8594C187.617 20.6875 187.469 20.4219 187.469 20.0625C187.469 19.6875 187.648 19.4219 188.008 19.2656C188.367 19.0938 188.93 18.9531 189.695 18.8438C190.117 17.5625 190.547 16.2812 190.984 15C191.422 13.7188 191.906 12.4531 192.438 11.2031C192.969 9.95312 193.555 8.72656 194.195 7.52344C194.836 6.30469 195.578 5.11719 196.422 3.96094ZM231.789 29.4609C231.727 29.5859 231.594 29.8516 231.391 30.2578C231.203 30.6484 230.953 31.1016 230.641 31.6172C230.344 32.1328 229.992 32.6719 229.586 33.2344C229.18 33.7969 228.727 34.3125 228.227 34.7812C227.727 35.25 227.188 35.6406 226.609 35.9531C226.031 36.25 225.422 36.3984 224.781 36.3984C223.875 36.3984 223.109 36.1094 222.484 35.5312C221.875 34.9531 221.43 34.2266 221.148 33.3516C220.617 34.2422 219.984 34.9531 219.25 35.4844C218.516 36 217.781 36.2578 217.047 36.2578C216.469 36.2578 215.945 36.1562 215.477 35.9531C215.008 35.7344 214.609 35.4375 214.281 35.0625C213.953 34.6719 213.695 34.2188 213.508 33.7031C213.336 33.1875 213.25 32.625 213.25 32.0156C213.25 30.7969 213.453 29.7266 213.859 28.8047C214.281 27.8672 214.812 27.0859 215.453 26.4609C216.094 25.8359 216.797 25.3672 217.562 25.0547C218.344 24.7422 219.094 24.5859 219.812 24.5859C220.297 24.5859 220.742 24.6562 221.148 24.7969C221.555 24.9219 221.898 25.0625 222.18 25.2188C222.477 25.375 222.703 25.5234 222.859 25.6641C223.016 25.7891 223.102 25.8594 223.117 25.875C223.289 26.0781 223.375 26.2891 223.375 26.5078C223.375 26.7422 223.289 26.9531 223.117 27.1406C222.945 27.3125 222.742 27.3984 222.508 27.3984C222.258 27.3984 222.047 27.3125 221.875 27.1406C221.844 27.1094 221.773 27.0547 221.664 26.9766C221.555 26.8828 221.406 26.7891 221.219 26.6953C221.031 26.6016 220.805 26.5234 220.539 26.4609C220.289 26.3828 220 26.3438 219.672 26.3438C219.188 26.3438 218.672 26.4531 218.125 26.6719C217.578 26.8906 217.078 27.2344 216.625 27.7031C216.172 28.1562 215.789 28.7344 215.477 29.4375C215.18 30.125 215.031 30.9453 215.031 31.8984C215.031 32.1953 215.062 32.5 215.125 32.8125C215.188 33.1094 215.297 33.3828 215.453 33.6328C215.609 33.8828 215.82 34.0859 216.086 34.2422C216.352 34.3984 216.68 34.4766 217.07 34.4766C217.352 34.4766 217.672 34.3828 218.031 34.1953C218.406 34.0078 218.758 33.7188 219.086 33.3281C219.43 32.9375 219.734 32.4453 220 31.8516C220.281 31.2578 220.477 30.5547 220.586 29.7422C220.617 29.5234 220.719 29.3438 220.891 29.2031C221.062 29.0469 221.266 28.9688 221.5 28.9688C221.719 28.9688 221.906 29.0547 222.062 29.2266C222.234 29.3984 222.328 29.5938 222.344 29.8125C222.359 30.1094 222.391 30.5312 222.438 31.0781C222.484 31.6094 222.586 32.1406 222.742 32.6719C222.914 33.2031 223.164 33.6641 223.492 34.0547C223.82 34.4453 224.273 34.6406 224.852 34.6406C225.227 34.6406 225.594 34.5391 225.953 34.3359C226.328 34.1328 226.688 33.8672 227.031 33.5391C227.391 33.1953 227.727 32.8125 228.039 32.3906C228.367 31.9531 228.664 31.5156 228.93 31.0781C229.195 30.6406 229.43 30.2188 229.633 29.8125C229.836 29.4062 230.008 29.0547 230.148 28.7578C230.227 28.5859 230.336 28.4531 230.477 28.3594C230.633 28.2656 230.797 28.2188 230.969 28.2188C231.234 28.2188 231.445 28.3203 231.602 28.5234C231.773 28.7109 231.859 28.9141 231.859 29.1328C231.859 29.2422 231.836 29.3516 231.789 29.4609ZM232.633 26.3672C232.57 26.7891 232.492 27.1875 232.398 27.5625C232.305 27.9219 232.211 28.2422 232.117 28.5234C232.039 28.7891 231.969 29.0078 231.906 29.1797C231.844 29.3516 231.805 29.4453 231.789 29.4609C231.633 29.8203 231.359 30 230.969 30C230.75 30 230.547 29.9219 230.359 29.7656C230.172 29.5938 230.078 29.3828 230.078 29.1328C230.078 29.0391 230.094 28.9688 230.125 28.9219C230.156 28.875 230.203 28.7812 230.266 28.6406C230.328 28.5 230.406 28.2656 230.5 27.9375C230.594 27.6094 230.711 27.1016 230.852 26.4141C230.586 26.4141 230.312 26.4062 230.031 26.3906C229.75 26.375 229.492 26.3203 229.258 26.2266C229.008 26.1328 228.805 25.9844 228.648 25.7812C228.492 25.5781 228.414 25.2969 228.414 24.9375C228.414 24.6719 228.492 24.3125 228.648 23.8594C228.789 23.4062 228.984 22.9609 229.234 22.5234C229.484 22.0859 229.766 21.7109 230.078 21.3984C230.391 21.0703 230.703 20.9062 231.016 20.9062C231.375 20.9062 231.664 21.0391 231.883 21.3047C232.117 21.5703 232.297 21.8984 232.422 22.2891C232.547 22.6641 232.633 23.0625 232.68 23.4844C232.742 23.9062 232.773 24.2734 232.773 24.5859C233.039 24.5859 233.297 24.5859 233.547 24.5859C233.812 24.5703 234.062 24.5625 234.297 24.5625C235.188 24.5625 235.867 24.7578 236.336 25.1484C236.805 25.5391 237.039 26.1797 237.039 27.0703C237.039 27.4297 237.016 27.8047 236.969 28.1953C236.922 28.5859 236.867 28.9922 236.805 29.4141C236.742 29.8203 236.688 30.2266 236.641 30.6328C236.594 31.0391 236.57 31.4375 236.57 31.8281C236.57 32.3906 236.648 32.8594 236.805 33.2344C236.961 33.5938 237.156 33.8828 237.391 34.1016C237.625 34.3203 237.875 34.4766 238.141 34.5703C238.406 34.6484 238.648 34.6875 238.867 34.6875C239.539 34.6875 240.172 34.4688 240.766 34.0312C241.359 33.5938 241.906 33.0703 242.406 32.4609C242.906 31.8359 243.352 31.1797 243.742 30.4922C244.148 29.8047 244.484 29.2031 244.75 28.6875C244.828 28.5469 244.938 28.4375 245.078 28.3594C245.219 28.2812 245.367 28.2422 245.523 28.2422C245.805 28.2422 246.023 28.3359 246.18 28.5234C246.336 28.6953 246.414 28.8906 246.414 29.1094C246.414 29.2656 246.383 29.4062 246.32 29.5312C245.961 30.1719 245.539 30.8984 245.055 31.7109C244.586 32.5078 244.047 33.2578 243.438 33.9609C242.828 34.6641 242.141 35.2578 241.375 35.7422C240.625 36.2266 239.797 36.4688 238.891 36.4688C238.328 36.4688 237.797 36.3594 237.297 36.1406C236.797 35.9375 236.359 35.6406 235.984 35.25C235.625 34.8438 235.336 34.3516 235.117 33.7734C234.898 33.1797 234.789 32.5156 234.789 31.7812C234.789 31 234.867 30.2266 235.023 29.4609C235.18 28.6797 235.258 27.9375 235.258 27.2344C235.258 26.9375 235.188 26.7188 235.047 26.5781C234.922 26.4219 234.633 26.3438 234.18 26.3438C233.961 26.3438 233.719 26.3438 233.453 26.3438C233.203 26.3438 232.93 26.3516 232.633 26.3672ZM231.062 24.6328C231.062 24.5234 231.055 24.3828 231.039 24.2109C231.039 24.0234 231.023 23.8438 230.992 23.6719C230.977 23.5 230.945 23.3516 230.898 23.2266C230.867 23.1016 230.828 23.0391 230.781 23.0391C230.734 23.0391 230.672 23.1016 230.594 23.2266C230.531 23.3359 230.461 23.4766 230.383 23.6484C230.305 23.8047 230.234 23.9766 230.172 24.1641C230.109 24.3516 230.062 24.5078 230.031 24.6328H231.062ZM247.562 33.4219C247.891 33.875 248.312 34.2422 248.828 34.5234C249.344 34.7891 249.977 34.9219 250.727 34.9219C251.492 34.9219 252.188 34.7422 252.812 34.3828C253.438 34.0078 254.008 33.5234 254.523 32.9297C255.039 32.3359 255.5 31.6719 255.906 30.9375C256.312 30.2031 256.68 29.4688 257.008 28.7344C257.086 28.5625 257.195 28.4375 257.336 28.3594C257.477 28.2656 257.633 28.2188 257.805 28.2188C258.07 28.2188 258.281 28.3125 258.438 28.5C258.609 28.6875 258.695 28.8906 258.695 29.1094C258.695 29.1875 258.688 29.2578 258.672 29.3203C258.656 29.3672 258.633 29.4219 258.602 29.4844C257.523 31.8594 256.344 33.6484 255.062 34.8516C253.797 36.0547 252.359 36.6719 250.75 36.7031C249.719 36.7031 248.828 36.5 248.078 36.0938C247.328 35.7031 246.711 35.1953 246.227 34.5703C245.742 33.9297 245.383 33.2109 245.148 32.4141C244.914 31.6172 244.797 30.8203 244.797 30.0234C244.797 29.2266 244.891 28.4922 245.078 27.8203C245.281 27.1484 245.562 26.5625 245.922 26.0625C246.297 25.5625 246.734 25.1719 247.234 24.8906C247.75 24.6094 248.312 24.4688 248.922 24.4688C249.281 24.4688 249.633 24.5469 249.977 24.7031C250.336 24.8438 250.656 25.0547 250.938 25.3359C251.219 25.6016 251.445 25.9297 251.617 26.3203C251.789 26.7109 251.875 27.1562 251.875 27.6562C251.875 28.2969 251.766 28.8984 251.547 29.4609C251.328 30.0234 251.023 30.5469 250.633 31.0312C250.258 31.5156 249.805 31.9609 249.273 32.3672C248.742 32.7734 248.172 33.125 247.562 33.4219ZM246.859 31.8984C247.344 31.6953 247.781 31.4375 248.172 31.125C248.578 30.8125 248.922 30.4688 249.203 30.0938C249.484 29.7188 249.703 29.3281 249.859 28.9219C250.016 28.5 250.094 28.0781 250.094 27.6562C250.094 27.1875 249.977 26.8359 249.742 26.6016C249.508 26.3516 249.234 26.2266 248.922 26.2266C248.5 26.2266 248.141 26.3438 247.844 26.5781C247.547 26.8125 247.305 27.1172 247.117 27.4922C246.93 27.8672 246.789 28.2891 246.695 28.7578C246.617 29.2109 246.578 29.6641 246.578 30.1172C246.578 30.3984 246.602 30.6953 246.648 31.0078C246.711 31.3203 246.781 31.6172 246.859 31.8984ZM310.703 19.7109C312.047 20.0859 313.188 20.5156 314.125 21C315.078 21.4844 315.875 21.9922 316.516 22.5234C317.172 23.0391 317.688 23.5703 318.062 24.1172C318.438 24.6641 318.727 25.1875 318.93 25.6875C319.133 26.1875 319.258 26.6562 319.305 27.0938C319.367 27.5156 319.398 27.875 319.398 28.1719C319.398 29.2656 319.188 30.2422 318.766 31.1016C318.359 31.9609 317.805 32.7188 317.102 33.375C316.398 34.0312 315.578 34.5859 314.641 35.0391C313.719 35.4922 312.75 35.8594 311.734 36.1406C310.719 36.4375 309.68 36.6484 308.617 36.7734C307.555 36.9141 306.547 36.9844 305.594 36.9844C304.047 36.9844 302.445 36.8281 300.789 36.5156C299.148 36.2031 297.484 35.6953 295.797 34.9922C295.422 34.8359 295.234 34.5625 295.234 34.1719C295.234 33.9062 295.328 33.6953 295.516 33.5391C295.703 33.3672 295.906 33.2812 296.125 33.2812C296.234 33.2812 296.352 33.3047 296.477 33.3516C297.93 33.9609 299.422 34.4219 300.953 34.7344C302.484 35.0469 304.023 35.2031 305.57 35.2031C307.68 35.2031 309.492 35 311.008 34.5938C312.523 34.1875 313.766 33.6562 314.734 33C315.719 32.3281 316.445 31.5781 316.914 30.75C317.383 29.9062 317.617 29.0547 317.617 28.1953C317.617 27.2422 317.352 26.3594 316.82 25.5469C316.305 24.7344 315.562 24.0078 314.594 23.3672C313.641 22.7266 312.492 22.1797 311.148 21.7266C309.805 21.2734 308.312 20.9375 306.672 20.7188C305.594 20.9062 304.547 21.0391 303.531 21.1172C302.516 21.1953 301.578 21.2344 300.719 21.2344H300.18C300.07 21.2344 299.969 21.2266 299.875 21.2109C298.75 23.9141 297.406 26.25 295.844 28.2188C294.297 30.1875 292.641 31.8203 290.875 33.1172C289.125 34.3984 287.32 35.3516 285.461 35.9766C283.617 36.5859 281.844 36.8906 280.141 36.8906C278.375 36.8906 276.75 36.6406 275.266 36.1406C273.797 35.6562 272.531 34.9609 271.469 34.0547C270.406 33.1484 269.578 32.0547 268.984 30.7734C268.391 29.4766 268.094 28.0312 268.094 26.4375C268.094 24.7812 268.414 23.0703 269.055 21.3047C269.711 19.5234 270.68 17.7188 271.961 15.8906C273.18 14.1719 274.531 12.6328 276.016 11.2734C277.5 9.89844 279.055 8.69531 280.68 7.66406C282.32 6.63281 284.008 5.75 285.742 5.01562C287.477 4.28125 289.195 3.67969 290.898 3.21094C292.617 2.74219 294.289 2.40625 295.914 2.20312C297.555 1.98438 299.094 1.875 300.531 1.875C301.703 1.875 302.82 1.91406 303.883 1.99219C304.945 2.07031 305.961 2.1875 306.93 2.34375C307.492 1.71875 307.945 1.27344 308.289 1.00781C308.633 0.726562 308.828 0.570312 308.875 0.539062C309.062 0.445312 309.227 0.398438 309.367 0.398438C309.586 0.398438 309.781 0.460938 309.953 0.585938C310.125 0.710937 310.211 0.890625 310.211 1.125C310.211 1.4375 310.102 1.70313 309.883 1.92188C309.664 2.125 309.367 2.40625 308.992 2.76562C311.852 3.46875 314.039 4.53125 315.555 5.95312C317.07 7.35938 317.828 9.10156 317.828 11.1797C317.828 12.3203 317.641 13.3438 317.266 14.25C316.891 15.1562 316.375 15.9531 315.719 16.6406C315.078 17.3281 314.32 17.9297 313.445 18.4453C312.586 18.9453 311.672 19.3672 310.703 19.7109ZM306.695 18.9375C307.383 18.8125 308.086 18.6484 308.805 18.4453C309.539 18.2422 310.25 18 310.938 17.7188C311.641 17.4219 312.305 17.0781 312.93 16.6875C313.555 16.2812 314.094 15.8125 314.547 15.2812C315.016 14.7344 315.383 14.125 315.648 13.4531C315.93 12.7812 316.07 12.0156 316.07 11.1562C316.07 9.40625 315.344 7.96094 313.891 6.82031C312.438 5.67969 310.352 4.83594 307.633 4.28906C306.852 5.25781 306.117 6.32812 305.43 7.5C304.742 8.67188 304.109 9.89062 303.531 11.1562C302.953 12.4062 302.43 13.6797 301.961 14.9766C301.508 16.2578 301.133 17.5 300.836 18.7031C301.148 18.6875 301.438 18.6797 301.703 18.6797C301.969 18.6797 302.195 18.6797 302.383 18.6797C302.992 18.6797 303.656 18.7031 304.375 18.75C305.094 18.7812 305.867 18.8438 306.695 18.9375ZM305.641 3.96094C304.844 3.85156 304.023 3.77344 303.18 3.72656C302.336 3.67969 301.453 3.65625 300.531 3.65625C299.156 3.65625 297.695 3.75781 296.148 3.96094C294.602 4.16406 293.016 4.48437 291.391 4.92188C289.766 5.35938 288.125 5.92969 286.469 6.63281C284.828 7.32031 283.227 8.15625 281.664 9.14062C280.117 10.1094 278.641 11.2422 277.234 12.5391C275.828 13.8359 274.547 15.2969 273.391 16.9219C272.219 18.5781 271.336 20.2109 270.742 21.8203C270.148 23.4297 269.852 24.9609 269.852 26.4141C269.852 27.7734 270.094 28.9922 270.578 30.0703C271.078 31.1484 271.781 32.0625 272.688 32.8125C273.594 33.5469 274.68 34.1172 275.945 34.5234C277.211 34.9141 278.609 35.1094 280.141 35.1094C281.672 35.1094 283.266 34.8359 284.922 34.2891C286.578 33.7266 288.195 32.875 289.773 31.7344C291.352 30.5781 292.852 29.125 294.273 27.375C295.695 25.6094 296.938 23.5156 298 21.0938C297.719 21.0938 297.43 21.0156 297.133 20.8594C296.836 20.6875 296.688 20.4219 296.688 20.0625C296.688 19.6875 296.867 19.4219 297.227 19.2656C297.586 19.0938 298.148 18.9531 298.914 18.8438C299.336 17.5625 299.766 16.2812 300.203 15C300.641 13.7188 301.125 12.4531 301.656 11.2031C302.188 9.95312 302.773 8.72656 303.414 7.52344C304.055 6.30469 304.797 5.11719 305.641 3.96094ZM333.695 33.4219C333.305 33.4219 332.961 33.3906 332.664 33.3281C332.43 33.7969 332.148 34.2344 331.82 34.6406C331.492 35.0312 331.109 35.375 330.672 35.6719C330.25 35.9688 329.773 36.2031 329.242 36.375C328.711 36.5469 328.133 36.6328 327.508 36.6328C326.773 36.6328 326.102 36.5 325.492 36.2344C324.883 35.9844 324.352 35.6328 323.898 35.1797C323.445 34.7109 323.094 34.1562 322.844 33.5156C322.594 32.8594 322.469 32.1406 322.469 31.3594C322.469 30.3594 322.648 29.4922 323.008 28.7578C323.367 28.0078 323.781 27.3906 324.25 26.9062C324.719 26.4062 325.188 26.0391 325.656 25.8047C326.125 25.5547 326.477 25.4297 326.711 25.4297C326.977 25.4297 327.172 25.5 327.297 25.6406C327.438 25.7812 327.508 25.9688 327.508 26.2031C327.508 26.4688 327.422 26.6719 327.25 26.8125C327.094 26.9375 326.891 27.0625 326.641 27.1875C326.391 27.3125 326.125 27.4922 325.844 27.7266C325.562 27.9453 325.297 28.2266 325.047 28.5703C324.812 28.9141 324.617 29.3203 324.461 29.7891C324.305 30.2578 324.227 30.7812 324.227 31.3594C324.227 31.875 324.305 32.3594 324.461 32.8125C324.617 33.25 324.844 33.6328 325.141 33.9609C325.438 34.2734 325.789 34.5234 326.195 34.7109C326.602 34.8828 327.055 34.9688 327.555 34.9688C328.445 34.9688 329.18 34.7656 329.758 34.3594C330.352 33.9375 330.805 33.4062 331.117 32.7656C330.195 32.2812 329.438 31.5938 328.844 30.7031C328.25 29.8125 327.953 28.8125 327.953 27.7031C327.953 26.8125 328.164 26.0859 328.586 25.5234C329.023 24.9609 329.594 24.6797 330.297 24.6797C330.719 24.6797 331.117 24.7812 331.492 24.9844C331.867 25.1875 332.195 25.5078 332.477 25.9453C332.773 26.3828 333.008 26.9453 333.18 27.6328C333.352 28.3203 333.438 29.1406 333.438 30.0938C333.438 30.5938 333.375 31.1172 333.25 31.6641C333.344 31.6797 333.438 31.6875 333.531 31.6875C333.625 31.6875 333.727 31.6875 333.836 31.6875C334.367 31.6875 334.844 31.625 335.266 31.5C335.688 31.375 336.07 31.1875 336.414 30.9375C336.758 30.6875 337.062 30.3672 337.328 29.9766C337.609 29.5859 337.875 29.1328 338.125 28.6172C338.172 28.5234 338.273 28.4375 338.43 28.3594C338.586 28.2656 338.742 28.2188 338.898 28.2188C339.102 28.2188 339.289 28.3047 339.461 28.4766C339.648 28.6328 339.742 28.8438 339.742 29.1094C339.742 29.2344 339.711 29.375 339.648 29.5312C339.586 29.6719 339.523 29.8047 339.461 29.9297C339.195 30.3984 338.883 30.8516 338.523 31.2891C338.18 31.7109 337.766 32.0859 337.281 32.4141C336.812 32.7266 336.281 32.9766 335.688 33.1641C335.094 33.3516 334.43 33.4375 333.695 33.4219ZM329.688 27.5156C329.688 27.8125 329.727 28.125 329.805 28.4531C329.883 28.7812 330 29.1094 330.156 29.4375C330.328 29.75 330.531 30.0547 330.766 30.3516C331.016 30.6328 331.305 30.875 331.633 31.0781C331.68 30.75 331.703 30.4297 331.703 30.1172C331.703 29.6953 331.672 29.2656 331.609 28.8281C331.547 28.3906 331.453 27.9922 331.328 27.6328C331.219 27.2578 331.078 26.9609 330.906 26.7422C330.734 26.5078 330.531 26.3906 330.297 26.3906C330.203 26.3906 330.078 26.4609 329.922 26.6016C329.766 26.7422 329.688 27.0469 329.688 27.5156ZM345.859 33.375C345.312 34.2656 344.672 34.9688 343.938 35.4844C343.219 36 342.492 36.2578 341.758 36.2578C341.164 36.2578 340.633 36.1484 340.164 35.9297C339.695 35.7109 339.289 35.4062 338.945 35.0156C338.602 34.6094 338.336 34.125 338.148 33.5625C337.977 33 337.891 32.3672 337.891 31.6641C337.891 30.5703 337.992 29.6016 338.195 28.7578C338.414 27.9141 338.648 27.2109 338.898 26.6484C339.148 26.0703 339.383 25.6328 339.602 25.3359C339.82 25.0391 339.93 24.8906 339.93 24.8906C340.008 24.7969 340.102 24.7266 340.211 24.6797C340.336 24.6328 340.461 24.6094 340.586 24.6094C340.836 24.6094 341.039 24.7031 341.195 24.8906C341.367 25.0625 341.453 25.2656 341.453 25.5C341.453 25.5938 341.43 25.6875 341.383 25.7812C341.352 25.875 341.312 25.9688 341.266 26.0625C341.188 26.2031 341.062 26.4219 340.891 26.7188C340.719 27 340.539 27.375 340.352 27.8438C340.164 28.3125 340 28.8672 339.859 29.5078C339.719 30.1328 339.648 30.8516 339.648 31.6641C339.648 32.5859 339.828 33.2891 340.188 33.7734C340.562 34.2422 341.086 34.4766 341.758 34.4766C342.039 34.4766 342.359 34.3906 342.719 34.2188C343.094 34.0312 343.453 33.75 343.797 33.375C344.156 33 344.469 32.5234 344.734 31.9453C345 31.3672 345.172 30.6875 345.25 29.9062L345.602 25.875C345.633 25.6406 345.734 25.4453 345.906 25.2891C346.078 25.1328 346.281 25.0547 346.516 25.0547C346.781 25.0547 346.992 25.1562 347.148 25.3594C347.305 25.5469 347.383 25.7656 347.383 26.0156L347.078 29.9062C347.047 30.2344 347.055 30.6641 347.102 31.1953C347.164 31.7266 347.281 32.25 347.453 32.7656C347.625 33.2812 347.883 33.7266 348.227 34.1016C348.57 34.4609 349.023 34.6406 349.586 34.6406C349.992 34.6406 350.391 34.5391 350.781 34.3359C351.172 34.1172 351.547 33.8359 351.906 33.4922C352.266 33.1484 352.594 32.7656 352.891 32.3438C353.203 31.9062 353.484 31.4688 353.734 31.0312C354 30.5938 354.227 30.1797 354.414 29.7891C354.602 29.3828 354.758 29.0391 354.883 28.7578C354.961 28.5859 355.07 28.4531 355.211 28.3594C355.352 28.2656 355.508 28.2188 355.68 28.2188C355.961 28.2188 356.18 28.3125 356.336 28.5C356.492 28.6875 356.57 28.8906 356.57 29.1094C356.57 29.2344 356.547 29.3516 356.5 29.4609C356.438 29.5859 356.312 29.8516 356.125 30.2578C355.953 30.6484 355.719 31.1016 355.422 31.6172C355.141 32.1172 354.797 32.6484 354.391 33.2109C353.984 33.7734 353.531 34.2969 353.031 34.7812C352.531 35.25 351.984 35.6406 351.391 35.9531C350.812 36.25 350.188 36.3984 349.516 36.3984C348.594 36.3984 347.828 36.1406 347.219 35.625C346.609 35.0938 346.156 34.3438 345.859 33.375ZM373.891 12.5391C373.891 12.7891 373.805 12.9922 373.633 13.1484C373.461 13.2891 373.25 13.3594 373 13.3594H361.117V13.6172C361.117 14.5703 361.047 15.5859 360.906 16.6641C360.766 17.7422 360.57 18.8203 360.32 19.8984C360.086 20.9609 359.812 22 359.5 23.0156C359.203 24.0312 358.891 24.9688 358.562 25.8281C358.25 26.6875 357.938 27.4375 357.625 28.0781C357.312 28.7031 357.031 29.1719 356.781 29.4844C356.984 30.2031 357.227 30.875 357.508 31.5C357.789 32.1094 358.102 32.6484 358.445 33.1172C358.805 33.5703 359.188 33.9297 359.594 34.1953C360 34.4609 360.438 34.5938 360.906 34.5938C361.453 34.5938 361.992 34.3672 362.523 33.9141C363.07 33.4453 363.57 32.8984 364.023 32.2734C364.492 31.6328 364.898 30.9922 365.242 30.3516C365.602 29.6953 365.859 29.1719 366.016 28.7812C366.172 28.4062 366.445 28.2188 366.836 28.2188C367.102 28.2188 367.312 28.3125 367.469 28.5C367.641 28.6875 367.727 28.8906 367.727 29.1094C367.727 29.2188 367.703 29.3281 367.656 29.4375C367.609 29.5469 367.492 29.7969 367.305 30.1875C367.133 30.5781 366.898 31.0312 366.602 31.5469C366.32 32.0625 365.984 32.6094 365.594 33.1875C365.219 33.75 364.789 34.2656 364.305 34.7344C363.836 35.2031 363.328 35.5938 362.781 35.9062C362.234 36.2188 361.656 36.375 361.047 36.375C359.969 36.375 359 36.0234 358.141 35.3203C357.281 34.6172 356.547 33.6328 355.938 32.3672C355.344 31.1016 354.891 29.6016 354.578 27.8672C354.266 26.1328 354.109 24.2344 354.109 22.1719C354.109 21.6562 354.117 21.0547 354.133 20.3672C354.148 19.6641 354.18 18.9297 354.227 18.1641C354.273 17.3828 354.344 16.5859 354.438 15.7734C354.531 14.9453 354.656 14.1406 354.812 13.3594H346.398C346.148 13.3594 345.938 13.2891 345.766 13.1484C345.594 12.9922 345.508 12.7891 345.508 12.5391C345.508 12.2891 345.594 12.0938 345.766 11.9531C345.938 11.7969 346.148 11.7188 346.398 11.7188H355.211C355.367 11.1562 355.547 10.6406 355.75 10.1719C355.969 9.70312 356.211 9.29688 356.477 8.95312C356.758 8.60938 357.062 8.34375 357.391 8.15625C357.734 7.95312 358.109 7.85156 358.516 7.85156C358.906 7.85156 359.242 7.95312 359.523 8.15625C359.82 8.34375 360.07 8.60938 360.273 8.95312C360.477 9.29688 360.633 9.70312 360.742 10.1719C360.867 10.6406 360.961 11.1562 361.023 11.7188H373C373.25 11.7188 373.461 11.7969 373.633 11.9531C373.805 12.0938 373.891 12.2891 373.891 12.5391ZM356.242 27.1406C356.711 26.1094 357.133 25 357.508 23.8125C357.898 22.6094 358.227 21.3984 358.492 20.1797C358.773 18.9609 358.984 17.7656 359.125 16.5938C359.281 15.4219 359.359 14.3438 359.359 13.3594H356.594C356.375 14.3281 356.195 15.5312 356.055 16.9688C355.93 18.3906 355.867 20.125 355.867 22.1719C355.867 23.3125 355.898 24.2734 355.961 25.0547C356.023 25.8203 356.117 26.5156 356.242 27.1406ZM358.422 9.60938C358.281 9.60938 358.078 9.76562 357.812 10.0781C357.547 10.375 357.281 10.9219 357.016 11.7188H359.266C359.188 11.0625 359.07 10.5469 358.914 10.1719C358.773 9.79688 358.609 9.60938 358.422 9.60938ZM356.617 28.8281V28.8516V28.8281ZM369.93 17.6016C369.93 18.1953 369.719 18.7031 369.297 19.125C368.891 19.5312 368.391 19.7344 367.797 19.7344C367.203 19.7344 366.695 19.5312 366.273 19.125C365.867 18.7031 365.664 18.1953 365.664 17.6016C365.664 17.3047 365.719 17.0312 365.828 16.7812C365.938 16.5156 366.086 16.2891 366.273 16.1016C366.477 15.8984 366.703 15.7422 366.953 15.6328C367.219 15.5234 367.5 15.4688 367.797 15.4688C368.094 15.4688 368.367 15.5234 368.617 15.6328C368.883 15.7422 369.109 15.8984 369.297 16.1016C369.5 16.2891 369.656 16.5156 369.766 16.7812C369.875 17.0312 369.93 17.3047 369.93 17.6016ZM366.133 31.3359C366.133 29.0859 366.273 26.8438 366.555 24.6094C366.586 24.3906 366.68 24.2031 366.836 24.0469C367.008 23.875 367.227 23.7891 367.492 23.7891C367.727 23.7891 367.922 23.8828 368.078 24.0703C368.234 24.2422 368.312 24.4453 368.312 24.6797C368.312 24.7734 368.289 25.0547 368.242 25.5234C368.211 25.9922 368.164 26.5547 368.102 27.2109C368.055 27.8516 368.008 28.5391 367.961 29.2734C367.93 29.9922 367.914 30.6562 367.914 31.2656C367.914 32.0938 367.992 32.7656 368.148 33.2812C368.32 33.7812 368.531 34.1719 368.781 34.4531C369.047 34.7344 369.32 34.9219 369.602 35.0156C369.898 35.1094 370.18 35.1562 370.445 35.1562C370.883 35.1562 371.336 35 371.805 34.6875C372.273 34.375 372.75 33.9375 373.234 33.375C373.734 32.8125 374.234 32.1406 374.734 31.3594C375.234 30.5625 375.727 29.6797 376.211 28.7109C376.289 28.5547 376.398 28.4375 376.539 28.3594C376.68 28.2656 376.836 28.2188 377.008 28.2188C377.258 28.2188 377.461 28.3125 377.617 28.5C377.789 28.6875 377.875 28.8906 377.875 29.1094C377.875 29.2656 377.844 29.3984 377.781 29.5078C377.594 29.8672 377.359 30.3047 377.078 30.8203C376.797 31.3359 376.477 31.8672 376.117 32.4141C375.758 32.9609 375.359 33.5078 374.922 34.0547C374.5 34.5859 374.047 35.0703 373.562 35.5078C373.078 35.9297 372.57 36.2734 372.039 36.5391C371.508 36.8047 370.969 36.9375 370.422 36.9375C369.719 36.9375 369.102 36.7891 368.57 36.4922C368.039 36.1953 367.586 35.7969 367.211 35.2969C366.852 34.7969 366.578 34.2109 366.391 33.5391C366.219 32.8516 366.133 32.1172 366.133 31.3359ZM368.617 17.6016C368.617 17.3828 368.531 17.1953 368.359 17.0391C368.203 16.8672 368.016 16.7812 367.797 16.7812C367.578 16.7812 367.391 16.8672 367.234 17.0391C367.078 17.1953 367 17.3828 367 17.6016C367 17.8203 367.078 18.0078 367.234 18.1641C367.391 18.3203 367.578 18.3984 367.797 18.3984C368.016 18.3984 368.203 18.3203 368.359 18.1641C368.531 18.0078 368.617 17.8203 368.617 17.6016ZM384.672 38.3906C385.328 37.5312 385.961 36.6719 386.57 35.8125C387.18 34.9531 387.742 34.1094 388.258 33.2812C388.789 32.4531 389.266 31.6562 389.688 30.8906C390.125 30.125 390.492 29.4141 390.789 28.7578C390.867 28.5859 390.969 28.4609 391.094 28.3828C391.234 28.2891 391.391 28.2422 391.562 28.2422C391.828 28.2422 392.047 28.3359 392.219 28.5234C392.391 28.6953 392.477 28.8984 392.477 29.1328C392.477 29.2422 392.453 29.3516 392.406 29.4609C392.062 30.2266 391.641 31.0547 391.141 31.9453C390.641 32.8203 390.078 33.7344 389.453 34.6875C388.844 35.6406 388.18 36.6094 387.461 37.5938C386.758 38.5781 386.023 39.5469 385.258 40.5C385.93 41.2812 386.555 42.25 387.133 43.4062C387.727 44.5625 388.234 45.8047 388.656 47.1328C389.078 48.4609 389.406 49.8125 389.641 51.1875C389.891 52.5625 390.016 53.8516 390.016 55.0547C390.016 56.4141 389.883 57.5 389.617 58.3125C389.352 59.125 389.031 59.75 388.656 60.1875C388.281 60.625 387.891 60.9062 387.484 61.0312C387.078 61.1719 386.734 61.2422 386.453 61.2422C385.594 61.2422 384.914 60.9688 384.414 60.4219C383.93 59.8906 383.555 59.1016 383.289 58.0547C383.039 57.0234 382.875 55.7422 382.797 54.2109C382.734 52.6797 382.703 50.9141 382.703 48.9141C382.703 47.6016 382.711 46.2734 382.727 44.9297C382.758 43.5859 382.797 42.2656 382.844 40.9688C382.891 39.6719 382.945 38.4219 383.008 37.2188C383.07 36.0312 383.141 34.9297 383.219 33.9141C382.719 34.6641 382.156 35.2422 381.531 35.6484C380.922 36.0547 380.242 36.2578 379.492 36.2578C378.93 36.2578 378.414 36.1484 377.945 35.9297C377.492 35.7109 377.102 35.4141 376.773 35.0391C376.445 34.6484 376.195 34.1953 376.023 33.6797C375.852 33.1641 375.766 32.6094 375.766 32.0156C375.766 30.7969 375.969 29.7266 376.375 28.8047C376.797 27.8672 377.328 27.0859 377.969 26.4609C378.609 25.8359 379.312 25.3672 380.078 25.0547C380.859 24.7422 381.609 24.5859 382.328 24.5859C382.812 24.5859 383.258 24.6562 383.664 24.7969C384.07 24.9219 384.414 25.0625 384.695 25.2188C384.977 25.375 385.195 25.5234 385.352 25.6641C385.523 25.7891 385.617 25.8594 385.633 25.875C385.805 26.0312 385.891 26.2422 385.891 26.5078C385.891 26.7422 385.805 26.9531 385.633 27.1406C385.477 27.3125 385.266 27.3984 385 27.3984C384.859 27.3984 384.742 27.375 384.648 27.3281C384.57 27.2812 384.484 27.2188 384.391 27.1406C384.234 27.0156 384 26.8516 383.688 26.6484C383.391 26.4453 382.945 26.3438 382.352 26.3438C381.883 26.3438 381.367 26.4531 380.805 26.6719C380.242 26.875 379.719 27.2031 379.234 27.6562C378.75 28.1094 378.344 28.6953 378.016 29.4141C377.688 30.1172 377.523 30.9688 377.523 31.9688C377.523 32.6875 377.68 33.2891 377.992 33.7734C378.32 34.2422 378.836 34.4766 379.539 34.4766C379.883 34.4766 380.258 34.3672 380.664 34.1484C381.086 33.9141 381.484 33.5703 381.859 33.1172C382.25 32.6641 382.594 32.1016 382.891 31.4297C383.203 30.7578 383.422 29.9766 383.547 29.0859C383.578 28.8672 383.68 28.6875 383.852 28.5469C384.023 28.3906 384.219 28.3125 384.438 28.3125C384.688 28.3125 384.891 28.4062 385.047 28.5938C385.219 28.7656 385.305 28.9688 385.305 29.2031C385.305 29.2344 385.281 29.5078 385.234 30.0234C385.203 30.5234 385.156 31.1953 385.094 32.0391C385.031 32.8672 384.961 33.8281 384.883 34.9219C384.805 36.0156 384.734 37.1719 384.672 38.3906ZM384.508 42.375C384.492 42.8594 384.477 43.3281 384.461 43.7812C384.461 44.2344 384.461 44.6797 384.461 45.1172C384.461 47.1328 384.469 49.0078 384.484 50.7422C384.5 52.4922 384.562 54.0078 384.672 55.2891C384.797 56.5859 384.992 57.6016 385.258 58.3359C385.539 59.0859 385.93 59.4609 386.43 59.4609C386.836 59.4609 387.156 59.2812 387.391 58.9219C387.641 58.5781 387.828 58.1641 387.953 57.6797C388.078 57.1953 388.156 56.6953 388.188 56.1797C388.234 55.6797 388.258 55.2734 388.258 54.9609C388.258 53.9141 388.156 52.8047 387.953 51.6328C387.766 50.4609 387.5 49.3047 387.156 48.1641C386.828 47.0234 386.43 45.9453 385.961 44.9297C385.508 43.9297 385.023 43.0781 384.508 42.375ZM398.594 33.375C398.047 34.2656 397.406 34.9688 396.672 35.4844C395.953 36 395.227 36.2578 394.492 36.2578C393.898 36.2578 393.367 36.1484 392.898 35.9297C392.43 35.7109 392.023 35.4062 391.68 35.0156C391.336 34.6094 391.07 34.125 390.883 33.5625C390.711 33 390.625 32.3672 390.625 31.6641C390.625 30.5703 390.727 29.6016 390.93 28.7578C391.148 27.9141 391.383 27.2109 391.633 26.6484C391.883 26.0703 392.117 25.6328 392.336 25.3359C392.555 25.0391 392.664 24.8906 392.664 24.8906C392.742 24.7969 392.836 24.7266 392.945 24.6797C393.07 24.6328 393.195 24.6094 393.32 24.6094C393.57 24.6094 393.773 24.7031 393.93 24.8906C394.102 25.0625 394.188 25.2656 394.188 25.5C394.188 25.5938 394.164 25.6875 394.117 25.7812C394.086 25.875 394.047 25.9688 394 26.0625C393.922 26.2031 393.797 26.4219 393.625 26.7188C393.453 27 393.273 27.375 393.086 27.8438C392.898 28.3125 392.734 28.8672 392.594 29.5078C392.453 30.1328 392.383 30.8516 392.383 31.6641C392.383 32.5859 392.562 33.2891 392.922 33.7734C393.297 34.2422 393.82 34.4766 394.492 34.4766C394.773 34.4766 395.094 34.3906 395.453 34.2188C395.828 34.0312 396.188 33.75 396.531 33.375C396.891 33 397.203 32.5234 397.469 31.9453C397.734 31.3672 397.906 30.6875 397.984 29.9062L398.336 25.875C398.367 25.6406 398.469 25.4453 398.641 25.2891C398.812 25.1328 399.016 25.0547 399.25 25.0547C399.516 25.0547 399.727 25.1562 399.883 25.3594C400.039 25.5469 400.117 25.7656 400.117 26.0156L399.812 29.9062C399.781 30.2344 399.789 30.6641 399.836 31.1953C399.898 31.7266 400.016 32.25 400.188 32.7656C400.359 33.2812 400.617 33.7266 400.961 34.1016C401.305 34.4609 401.758 34.6406 402.32 34.6406C402.727 34.6406 403.125 34.5391 403.516 34.3359C403.906 34.1172 404.281 33.8359 404.641 33.4922C405 33.1484 405.328 32.7656 405.625 32.3438C405.938 31.9062 406.219 31.4688 406.469 31.0312C406.734 30.5938 406.961 30.1797 407.148 29.7891C407.336 29.3828 407.492 29.0391 407.617 28.7578C407.695 28.5859 407.805 28.4531 407.945 28.3594C408.086 28.2656 408.242 28.2188 408.414 28.2188C408.695 28.2188 408.914 28.3125 409.07 28.5C409.227 28.6875 409.305 28.8906 409.305 29.1094C409.305 29.2344 409.281 29.3516 409.234 29.4609C409.172 29.5859 409.047 29.8516 408.859 30.2578C408.688 30.6484 408.453 31.1016 408.156 31.6172C407.875 32.1172 407.531 32.6484 407.125 33.2109C406.719 33.7734 406.266 34.2969 405.766 34.7812C405.266 35.25 404.719 35.6406 404.125 35.9531C403.547 36.25 402.922 36.3984 402.25 36.3984C401.328 36.3984 400.562 36.1406 399.953 35.625C399.344 35.0938 398.891 34.3438 398.594 33.375ZM410.453 33.4219C410.781 33.875 411.203 34.2422 411.719 34.5234C412.234 34.7891 412.867 34.9219 413.617 34.9219C414.383 34.9219 415.078 34.7422 415.703 34.3828C416.328 34.0078 416.898 33.5234 417.414 32.9297C417.93 32.3359 418.391 31.6719 418.797 30.9375C419.203 30.2031 419.57 29.4688 419.898 28.7344C419.977 28.5625 420.086 28.4375 420.227 28.3594C420.367 28.2656 420.523 28.2188 420.695 28.2188C420.961 28.2188 421.172 28.3125 421.328 28.5C421.5 28.6875 421.586 28.8906 421.586 29.1094C421.586 29.1875 421.578 29.2578 421.562 29.3203C421.547 29.3672 421.523 29.4219 421.492 29.4844C420.414 31.8594 419.234 33.6484 417.953 34.8516C416.688 36.0547 415.25 36.6719 413.641 36.7031C412.609 36.7031 411.719 36.5 410.969 36.0938C410.219 35.7031 409.602 35.1953 409.117 34.5703C408.633 33.9297 408.273 33.2109 408.039 32.4141C407.805 31.6172 407.688 30.8203 407.688 30.0234C407.688 29.2266 407.781 28.4922 407.969 27.8203C408.172 27.1484 408.453 26.5625 408.812 26.0625C409.188 25.5625 409.625 25.1719 410.125 24.8906C410.641 24.6094 411.203 24.4688 411.812 24.4688C412.172 24.4688 412.523 24.5469 412.867 24.7031C413.227 24.8438 413.547 25.0547 413.828 25.3359C414.109 25.6016 414.336 25.9297 414.508 26.3203C414.68 26.7109 414.766 27.1562 414.766 27.6562C414.766 28.2969 414.656 28.8984 414.438 29.4609C414.219 30.0234 413.914 30.5469 413.523 31.0312C413.148 31.5156 412.695 31.9609 412.164 32.3672C411.633 32.7734 411.062 33.125 410.453 33.4219ZM409.75 31.8984C410.234 31.6953 410.672 31.4375 411.062 31.125C411.469 30.8125 411.812 30.4688 412.094 30.0938C412.375 29.7188 412.594 29.3281 412.75 28.9219C412.906 28.5 412.984 28.0781 412.984 27.6562C412.984 27.1875 412.867 26.8359 412.633 26.6016C412.398 26.3516 412.125 26.2266 411.812 26.2266C411.391 26.2266 411.031 26.3438 410.734 26.5781C410.438 26.8125 410.195 27.1172 410.008 27.4922C409.82 27.8672 409.68 28.2891 409.586 28.7578C409.508 29.2109 409.469 29.6641 409.469 30.1172C409.469 30.3984 409.492 30.6953 409.539 31.0078C409.602 31.3203 409.672 31.6172 409.75 31.8984Z" fill="black"/>
</svg>
