<svg width="335" height="49" viewBox="0 0 335 49" fill="none" xmlns="http://www.w3.org/2000/svg">
<path d="M52.2028 14.6879C52.1425 14.97 52.0116 15.1916 51.8103 15.3528C51.6088 15.514 51.3875 15.5946 51.146 15.5946C50.7834 15.5946 50.4917 15.4838 50.2701 15.2621C50.0487 15.0204 49.9379 14.7484 49.9379 14.4461C49.9379 14.1439 49.9681 13.8518 50.0286 13.5697C50.0889 13.2675 50.1191 12.9753 50.1191 12.6933C50.1191 11.2224 49.6661 9.90275 48.7603 8.73418C47.8542 7.56558 46.5658 6.58841 44.8949 5.80264C43.2439 4.99671 41.2308 4.3822 38.8551 3.9591C36.4794 3.53597 33.8322 3.32442 30.913 3.32442C28.6783 3.32442 26.4235 3.47555 24.1486 3.77775C21.8938 4.05983 19.7195 4.48294 17.6257 5.04708C15.5521 5.59108 13.6094 6.28619 11.7975 7.13239C9.98558 7.95848 8.4052 8.92559 7.05634 10.0337C5.72762 11.1217 4.68075 12.3407 3.91571 13.6906C3.1507 15.0204 2.76818 16.4811 2.76818 18.0728C2.76818 19.3018 3.02989 20.3898 3.55334 21.3368C4.09689 22.2636 4.83173 23.0796 5.75783 23.7848C6.68389 24.4698 7.77102 25.0641 9.01923 25.5678C10.2876 26.0515 11.6566 26.4644 13.1262 26.8069C14.5958 27.1292 16.1259 27.4013 17.7163 27.6229C19.3068 27.8245 20.9073 27.9958 22.5179 28.1368L27.1685 28.5296C29.4836 28.731 31.5573 28.9428 33.3892 29.1643C35.2214 29.3858 36.832 29.668 38.2209 30.0104C40.5363 30.5948 42.2474 31.4309 43.3547 32.519C44.462 33.6068 45.0158 35.0577 45.0158 36.871C45.0158 38.6239 44.5323 40.165 43.566 41.4948C42.5996 42.8247 41.281 43.9429 39.6101 44.8494C37.9393 45.7562 35.9862 46.4412 33.7518 46.9046C31.5171 47.368 29.1213 47.5996 26.5645 47.5996C23.7862 47.5996 21.3401 47.4083 19.2263 47.0256C17.1325 46.663 15.3709 46.2599 13.9416 45.8166C12.5323 45.3531 11.4552 44.9302 10.7103 44.5472C9.96545 44.1645 9.56281 43.953 9.5024 43.9125C9.14004 43.7111 8.95883 43.3887 8.95883 42.9454C8.95883 42.6029 9.07963 42.3311 9.32122 42.1294C9.56281 41.9079 9.82452 41.797 10.1064 41.797C10.3278 41.797 10.5292 41.8576 10.7103 41.9783C10.7305 41.9783 11.0727 42.1599 11.7371 42.5225C12.4216 42.8649 13.4282 43.2477 14.7569 43.6709C16.1058 44.0941 17.7667 44.4768 19.7396 44.8193C21.7126 45.1618 24.0077 45.333 26.6248 45.333C29.2218 45.333 31.5171 45.1215 33.51 44.6983C35.503 44.2754 37.1742 43.691 38.5229 42.9454C39.8921 42.18 40.9187 41.2933 41.6031 40.286C42.3079 39.2585 42.6602 38.1504 42.6602 36.9615C42.6602 36.2564 42.5293 35.6519 42.2675 35.1482C42.026 34.6244 41.6838 34.1811 41.2408 33.8185C40.7978 33.4355 40.2644 33.1132 39.6403 32.8514C39.0363 32.5894 38.3719 32.3679 37.6473 32.1866C36.8822 31.9849 36.0568 31.8136 35.1709 31.6726C34.3053 31.5318 33.4093 31.4108 32.4834 31.31C31.5573 31.2094 30.6211 31.1186 29.6748 31.0382C28.7487 30.9574 27.8328 30.877 26.9268 30.7962L22.2763 30.4035C18.6122 30.1012 15.4112 29.6378 12.6732 29.0132C9.95538 28.3684 7.69052 27.5524 5.87861 26.5652C4.06669 25.5578 2.70778 24.359 1.80183 22.9688C0.895882 21.5785 0.442908 19.9566 0.442908 18.103C0.442908 16.2091 0.865686 14.4764 1.71124 12.9048C2.57692 11.3131 3.74458 9.88261 5.21425 8.61328C6.70402 7.34397 8.4354 6.2459 10.4083 5.31908C12.4014 4.37212 14.5254 3.58637 16.7802 2.96177C19.035 2.33717 21.3703 1.87377 23.7862 1.57155C26.2022 1.24918 28.5776 1.088 30.913 1.088C33.8322 1.088 36.3689 1.26933 38.5229 1.63199C40.6973 1.97451 42.5494 2.42784 44.0796 2.992C45.6296 3.53597 46.8979 4.16057 47.8844 4.86576C48.8708 5.57094 49.6661 6.26605 50.2701 6.95107C51.6995 8.62336 52.4141 10.5273 52.4141 12.663C52.4141 13.3682 52.3437 14.0432 52.2028 14.6879ZM63.2856 43.0965C62.7823 43.0965 62.3394 43.0563 61.957 42.9758C61.6549 43.5801 61.2926 44.1444 60.8698 44.6681C60.4469 45.1718 59.9537 45.6151 59.3901 45.9979C58.8464 46.3808 58.2325 46.6831 57.5478 46.9046C56.8634 47.1261 56.1184 47.237 55.3131 47.237C54.3672 47.237 53.5013 47.0658 52.7161 46.7233C51.9309 46.4009 51.2465 45.9476 50.6628 45.3632C50.0789 44.7589 49.6259 44.0435 49.3038 43.2175C48.9816 42.3713 48.8206 41.4445 48.8206 40.4371C48.8206 39.1477 49.0522 38.0294 49.5151 37.0824C49.9781 36.1153 50.5118 35.3195 51.1156 34.6948C51.7196 34.0501 52.3237 33.5766 52.9277 33.2744C53.5315 32.952 53.9845 32.7908 54.2865 32.7908C54.6287 32.7908 54.8805 32.8816 55.0415 33.0629C55.2227 33.2442 55.3131 33.4861 55.3131 33.7883C55.3131 34.1308 55.2026 34.3926 54.981 34.5739C54.7797 34.7353 54.5179 34.8963 54.1958 35.0577C53.8737 35.2186 53.5315 35.4505 53.1691 35.7527C52.8068 36.0349 52.4646 36.3975 52.1425 36.8408C51.8405 37.2838 51.5887 37.8079 51.3875 38.4121C51.1862 39.0166 51.0854 39.6916 51.0854 40.4371C51.0854 41.102 51.1862 41.7266 51.3875 42.3107C51.5887 42.875 51.8807 43.3686 52.2631 43.7918C52.6458 44.1947 53.0988 44.517 53.6222 44.7589C54.1455 44.9805 54.7295 45.0914 55.3737 45.0914C56.5212 45.0914 57.4674 44.8293 58.2122 44.3056C58.9773 43.7617 59.5612 43.0764 59.9637 42.2504C58.776 41.6258 57.7996 40.7394 57.0345 39.591C56.2694 38.4423 55.887 37.1528 55.887 35.7226C55.887 34.5739 56.1589 33.6372 56.7024 32.9118C57.2662 32.1866 58.0009 31.8237 58.9069 31.8237C59.4504 31.8237 59.9637 31.9547 60.4469 32.2167C60.9301 32.4788 61.3529 32.8916 61.7152 33.4559C62.0979 34.0199 62.3997 34.7454 62.6213 35.6318C62.8427 36.5184 62.9535 37.576 62.9535 38.8052C62.9535 39.4499 62.8728 40.1248 62.7117 40.8299C62.8326 40.85 62.9535 40.8603 63.0743 40.8603C63.1949 40.8603 63.3258 40.8603 63.4668 40.8603C64.1512 40.8603 64.7653 40.7796 65.309 40.6184C65.8525 40.4572 66.3457 40.2156 66.7887 39.8932C67.2314 39.5709 67.6241 39.1577 67.9663 38.654C68.3287 38.1504 68.6709 37.566 68.993 36.9011C69.0535 36.7802 69.1845 36.6695 69.3857 36.5687C69.587 36.4478 69.7882 36.3874 69.9897 36.3874C70.2513 36.3874 70.493 36.498 70.7144 36.7198C70.9561 36.9212 71.0767 37.1933 71.0767 37.5358C71.0767 37.697 71.0365 37.8783 70.9561 38.0797C70.8754 38.261 70.795 38.4323 70.7144 38.5934C70.3722 39.1979 69.9694 39.7823 69.5066 40.3463C69.0636 40.8905 68.5302 41.3741 67.906 41.797C67.302 42.2001 66.6176 42.5225 65.8525 42.7641C65.0874 43.006 64.2319 43.1169 63.2856 43.0965ZM58.1217 35.4806C58.1217 35.8634 58.172 36.2665 58.2727 36.6897C58.3732 37.1126 58.5242 37.5358 58.7258 37.959C58.9471 38.3618 59.2089 38.7546 59.5109 39.1376C59.8331 39.5002 60.2054 39.8125 60.628 40.0745C60.6886 39.6513 60.7188 39.2382 60.7188 38.8353C60.7188 38.2914 60.6786 37.7372 60.5979 37.1732C60.5175 36.6089 60.3966 36.0952 60.2356 35.6318C60.0946 35.1482 59.9135 34.7655 59.6921 34.4834C59.4705 34.1811 59.2089 34.03 58.9069 34.03C58.7861 34.03 58.625 34.1208 58.4237 34.3021C58.2225 34.4834 58.1217 34.8761 58.1217 35.4806ZM78.9585 43.0362C78.2539 44.1846 77.4286 45.0914 76.4823 45.7562C75.5562 46.4211 74.62 46.7535 73.6737 46.7535C72.9089 46.7535 72.2242 46.6124 71.6204 46.3303C71.0164 46.0484 70.493 45.6554 70.05 45.1517C69.6071 44.6279 69.2649 44.0033 69.0234 43.2778C68.8018 42.5526 68.691 41.7367 68.691 40.8299C68.691 39.4197 68.8219 38.1705 69.0837 37.0824C69.3656 35.9944 69.6676 35.0879 69.9897 34.3624C70.3119 33.6171 70.6136 33.0528 70.8955 32.6701C71.1775 32.2871 71.3184 32.0958 71.3184 32.0958C71.4189 31.9748 71.5398 31.8843 71.6807 31.8237C71.8418 31.7634 72.0028 31.7332 72.1639 31.7332C72.486 31.7332 72.7478 31.8541 72.9491 32.0958C73.1704 32.3173 73.2813 32.5793 73.2813 32.8816C73.2813 33.0025 73.2511 33.1235 73.1905 33.2442C73.1503 33.3651 73.1001 33.4861 73.0398 33.6068C72.939 33.7883 72.778 34.0702 72.5564 34.4532C72.335 34.8158 72.1036 35.2993 71.8619 35.9039C71.6204 36.5081 71.4089 37.2235 71.2277 38.0495C71.0465 38.8555 70.9561 39.7823 70.9561 40.8299C70.9561 42.0188 71.1875 42.9253 71.6506 43.5499C72.1337 44.1544 72.8081 44.4567 73.6737 44.4567C74.0363 44.4567 74.4489 44.3458 74.9119 44.1242C75.3951 43.8823 75.8582 43.5197 76.3011 43.0362C76.7642 42.5526 77.1667 41.9381 77.509 41.1928C77.8512 40.4472 78.0728 39.5709 78.1733 38.5633L78.6263 33.3651C78.6665 33.0629 78.7974 32.8112 79.019 32.6095C79.2404 32.4081 79.5022 32.3073 79.8042 32.3073C80.1464 32.3073 80.418 32.4383 80.6196 32.7003C80.8208 32.9419 80.9213 33.2241 80.9213 33.5464L80.5288 38.5633C80.4886 38.9865 80.4987 39.5404 80.559 40.2257C80.6397 40.9106 80.7907 41.5855 81.012 42.2504C81.2334 42.9152 81.5655 43.4896 82.0085 43.9731C82.4515 44.4366 83.0354 44.6681 83.76 44.6681C84.2834 44.6681 84.7967 44.5371 85.3003 44.2754C85.8036 43.9932 86.2867 43.6306 86.7498 43.1873C87.2129 42.744 87.6355 42.2504 88.0179 41.7065C88.4207 41.1422 88.783 40.5782 89.1051 40.0139C89.4473 39.4499 89.7393 38.9158 89.981 38.4121C90.2225 37.8884 90.4237 37.445 90.5848 37.0824C90.6855 36.8609 90.8265 36.6897 91.0076 36.5687C91.1888 36.4478 91.3901 36.3874 91.6117 36.3874C91.974 36.3874 92.2559 36.5081 92.4572 36.75C92.6584 36.9919 92.7592 37.2537 92.7592 37.5358C92.7592 37.697 92.729 37.8481 92.6685 37.9892C92.5881 38.1504 92.427 38.4929 92.1853 39.0166C91.9639 39.5203 91.6619 40.1047 91.2795 40.7696C90.9169 41.4143 90.4742 42.0993 89.9506 42.8247C89.4272 43.5499 88.8435 44.2248 88.1993 44.8494C87.5551 45.454 86.8503 45.9576 86.0852 46.3607C85.3405 46.7434 84.5352 46.9348 83.6696 46.9348C82.4816 46.9348 81.4952 46.6024 80.71 45.9375C79.9248 45.2525 79.3411 44.2854 78.9585 43.0362ZM115.076 16.1688C115.076 16.4912 114.965 16.7531 114.743 16.9546C114.522 17.1359 114.25 17.2266 113.928 17.2266H98.6176V17.559C98.6176 18.788 98.5271 20.0977 98.346 21.4879C98.1648 22.8781 97.913 24.2683 97.5909 25.6585C97.2889 27.0287 96.9366 28.3684 96.5339 29.678C96.1514 30.9876 95.7487 32.1966 95.3261 33.3048C94.9233 34.413 94.5208 35.3801 94.118 36.2061C93.7155 37.012 93.3532 37.6163 93.031 38.0194C93.2926 38.9462 93.6047 39.8125 93.967 40.6184C94.3296 41.4042 94.7321 42.0993 95.1751 42.7038C95.6381 43.2882 96.1313 43.7513 96.6547 44.0941C97.1781 44.4366 97.7419 44.6078 98.346 44.6078C99.0505 44.6078 99.745 44.3156 100.43 43.7312C101.134 43.127 101.778 42.4216 102.362 41.6157C102.966 40.7897 103.49 39.9636 103.932 39.1376C104.396 38.2914 104.728 37.6163 104.929 37.1126C105.13 36.6291 105.483 36.3874 105.986 36.3874C106.328 36.3874 106.6 36.5081 106.801 36.75C107.023 36.9919 107.134 37.2537 107.134 37.5358C107.134 37.6769 107.103 37.8179 107.043 37.959C106.983 38.0998 106.832 38.4222 106.59 38.9261C106.368 39.4298 106.067 40.0139 105.684 40.6788C105.322 41.3436 104.889 42.049 104.385 42.7945C103.902 43.5197 103.349 44.1846 102.725 44.7891C102.121 45.3936 101.466 45.8973 100.762 46.3001C100.057 46.7032 99.3123 46.9046 98.5271 46.9046C97.1379 46.9046 95.8896 46.4512 94.7823 45.5447C93.6753 44.638 92.729 43.3686 91.9438 41.7367C91.1788 40.1047 90.5948 38.1705 90.1923 35.934C89.7898 33.6976 89.5883 31.2496 89.5883 28.59C89.5883 27.9251 89.5983 27.1494 89.6184 26.263C89.6388 25.3563 89.679 24.4093 89.7393 23.4221C89.7998 22.4147 89.8903 21.3871 90.0111 20.3394C90.132 19.2716 90.2931 18.234 90.4943 17.2266H79.6532C79.3311 17.2266 79.0592 17.1359 78.8379 16.9546C78.6163 16.7531 78.5054 16.4912 78.5054 16.1688C78.5054 15.8464 78.6163 15.5946 78.8379 15.4132C79.0592 15.2118 79.3311 15.111 79.6532 15.111H91.0076C91.2089 14.3857 91.4406 13.7208 91.7021 13.1164C91.984 12.5119 92.2961 11.9881 92.6383 11.5448C93.0006 11.1016 93.3934 10.7591 93.816 10.5173C94.259 10.2553 94.7421 10.1244 95.2658 10.1244C95.769 10.1244 96.2017 10.2553 96.5643 10.5173C96.9467 10.7591 97.2688 11.1016 97.5306 11.5448C97.7922 11.9881 97.9934 12.5119 98.1344 13.1164C98.2954 13.7208 98.4163 14.3857 98.497 15.111H113.928C114.25 15.111 114.522 15.2118 114.743 15.4132C114.965 15.5946 115.076 15.8464 115.076 16.1688ZM92.3363 34.9971C92.9403 33.6674 93.4838 32.2368 93.967 30.7055C94.4705 29.1542 94.8931 27.5927 95.2353 26.0211C95.5979 24.4496 95.8695 22.9083 96.0507 21.3972C96.2522 19.8861 96.3527 18.4959 96.3527 17.2266H92.7893C92.5074 18.4757 92.276 20.0271 92.0949 21.8808C91.9338 23.7142 91.8531 25.9507 91.8531 28.59C91.8531 30.0607 91.8936 31.2999 91.974 32.3073C92.0546 33.2947 92.1753 34.1912 92.3363 34.9971ZM95.1449 12.391C94.9637 12.391 94.7019 12.5925 94.3597 12.9955C94.0175 13.3783 93.6753 14.0835 93.3331 15.111H96.2321C96.1313 14.2648 95.9803 13.5999 95.7791 13.1164C95.5979 12.6328 95.3864 12.391 95.1449 12.391ZM92.8195 37.1732V37.2034V37.1732ZM107.436 43.8522C107.758 43.1672 108.13 42.4317 108.553 41.6459C108.976 40.84 109.429 40.024 109.912 39.1979C110.395 38.3518 110.908 37.5157 111.452 36.6897C111.995 35.8634 112.559 35.0879 113.143 34.3624C113.727 33.6573 114.311 33.1537 114.894 32.8514C115.498 32.529 116.062 32.3679 116.586 32.3679C117.109 32.3679 117.562 32.4788 117.944 32.7003C118.347 32.9017 118.669 33.1838 118.911 33.5464C119.173 33.909 119.364 34.3322 119.485 34.8158C119.626 35.2993 119.696 35.8231 119.696 36.3874C119.696 36.8508 119.646 37.4752 119.545 38.261C119.465 39.0267 119.424 39.8326 119.424 40.6788C119.424 41.1623 119.445 41.6459 119.485 42.1294C119.545 42.5929 119.636 43.0161 119.757 43.3988C119.897 43.7616 120.099 44.0636 120.36 44.3056C120.622 44.5271 120.964 44.638 121.387 44.638C121.87 44.638 122.354 44.507 122.837 44.2449C123.32 43.9631 123.793 43.6002 124.256 43.1571C124.719 42.6937 125.162 42.19 125.585 41.6459C126.007 41.0819 126.39 40.5276 126.732 39.9837C127.075 39.4197 127.377 38.8856 127.638 38.382C127.9 37.8582 128.111 37.4249 128.272 37.0824C128.474 36.619 128.826 36.3874 129.329 36.3874C129.672 36.3874 129.943 36.5081 130.145 36.75C130.346 36.9919 130.447 37.2537 130.447 37.5358C130.447 37.697 130.417 37.8481 130.356 37.9892C130.276 38.1504 130.115 38.4828 129.873 38.9865C129.651 39.4901 129.339 40.0745 128.937 40.7394C128.554 41.4042 128.101 42.0993 127.578 42.8247C127.054 43.5499 126.47 44.2248 125.826 44.8494C125.202 45.454 124.518 45.9576 123.773 46.3607C123.048 46.7434 122.283 46.9348 121.478 46.9348C120.552 46.9348 119.807 46.7434 119.243 46.3607C118.679 45.9576 118.236 45.454 117.914 44.8494C117.612 44.2449 117.401 43.57 117.28 42.8247C117.18 42.0791 117.129 41.3539 117.129 40.6486C117.129 40.286 117.139 39.9033 117.159 39.5002C117.2 39.077 117.24 38.6641 117.28 38.261C117.32 37.8582 117.351 37.4855 117.371 37.1428C117.411 36.7802 117.431 36.4779 117.431 36.2363C117.431 35.6117 117.341 35.1885 117.159 34.9669C116.998 34.7454 116.807 34.6345 116.586 34.6345C116.264 34.6345 115.891 34.8259 115.468 35.2086C115.066 35.5714 114.633 36.055 114.17 36.6592C113.727 37.2637 113.274 37.9487 112.811 38.7144C112.368 39.46 111.935 40.2053 111.512 40.9509C111.09 41.6964 110.707 42.4116 110.365 43.0965C110.023 43.7616 109.741 44.3156 109.519 44.7589C109.096 45.6051 108.664 46.1691 108.221 46.4512C107.798 46.7535 107.415 46.9046 107.073 46.9046C106.449 46.9046 105.966 46.663 105.624 46.1792C105.302 45.6755 105.141 45.0712 105.141 44.3659V42.4619C105.141 38.654 105.141 35.0273 105.141 31.5821C105.161 28.1165 105.211 24.903 105.292 21.9412C105.392 18.9593 105.543 16.2695 105.745 13.8719C105.966 11.4542 106.288 9.39906 106.711 7.70662C107.134 5.99404 107.667 4.67435 108.311 3.74752C108.976 2.82073 109.801 2.35732 110.788 2.35732C111.633 2.35732 112.348 2.58903 112.932 3.05242C113.516 3.51583 113.989 4.15048 114.351 4.95643C114.713 5.74218 114.975 6.66901 115.136 7.73685C115.297 8.78454 115.378 9.89269 115.378 11.0613C115.378 13.4387 115.156 15.7759 114.713 18.0728C114.291 20.3495 113.717 22.5759 112.992 24.7519C112.267 26.9278 111.422 29.0534 110.455 31.1287C109.489 33.1838 108.472 35.1885 107.405 37.1428C107.405 37.5056 107.405 37.9386 107.405 38.4423C107.405 38.9462 107.405 39.4499 107.405 39.9536C107.405 40.4572 107.405 40.9307 107.405 41.3741C107.405 41.8171 107.405 42.1699 107.405 42.4317L107.436 43.8522ZM107.436 32.7003C108.281 30.8465 109.046 29.0433 109.731 27.2904C110.435 25.5175 111.029 23.7545 111.512 22.0017C112.016 20.2488 112.408 18.4757 112.69 16.6826C112.972 14.8692 113.113 12.9854 113.113 11.031C113.113 10.7087 113.093 10.1949 113.052 9.48973C113.032 8.78454 112.942 8.0693 112.781 7.34397C112.64 6.61864 112.408 5.98396 112.086 5.43998C111.784 4.89598 111.351 4.62398 110.788 4.62398C110.345 4.62398 109.962 4.92621 109.64 5.53063C109.318 6.11492 109.036 6.92084 108.795 7.9484C108.553 8.95581 108.352 10.1345 108.191 11.4844C108.03 12.8343 107.899 14.2648 107.798 15.7759C107.697 17.287 107.617 18.8384 107.556 20.4301C107.516 22.0218 107.486 23.5732 107.466 25.0843C107.446 26.5753 107.436 27.9757 107.436 29.2852C107.436 30.5948 107.436 31.7332 107.436 32.7003ZM131.926 43.0965C132.349 43.6809 132.893 44.1544 133.557 44.517C134.221 44.8595 135.037 45.0307 136.003 45.0307C136.99 45.0307 137.885 44.7992 138.691 44.3357C139.496 43.8522 140.231 43.2275 140.895 42.4619C141.56 41.6964 142.154 40.84 142.677 39.8932C143.2 38.9462 143.674 37.9992 144.096 37.0523C144.197 36.8305 144.338 36.6695 144.519 36.5687C144.7 36.4478 144.902 36.3874 145.123 36.3874C145.465 36.3874 145.737 36.5081 145.938 36.75C146.16 36.9919 146.271 37.2537 146.271 37.5358C146.271 37.6366 146.26 37.7272 146.24 37.8079C146.22 37.8682 146.19 37.9386 146.15 38.0194C144.761 41.0819 143.241 43.3887 141.59 44.9402C139.959 46.4915 138.107 47.2873 136.033 47.3278C134.705 47.3278 133.557 47.0658 132.591 46.542C131.624 46.0383 130.829 45.3835 130.205 44.5776C129.581 43.7513 129.118 42.8247 128.816 41.797C128.514 40.7696 128.363 39.7421 128.363 38.7144C128.363 37.6869 128.484 36.7399 128.725 35.8737C128.987 35.0072 129.349 34.2515 129.813 33.6068C130.296 32.962 130.859 32.4584 131.503 32.0958C132.168 31.7332 132.893 31.5519 133.678 31.5519C134.141 31.5519 134.594 31.6525 135.037 31.8541C135.5 32.0354 135.913 32.3073 136.275 32.6701C136.637 33.0126 136.929 33.4355 137.151 33.9395C137.372 34.4431 137.483 35.0172 137.483 35.6619C137.483 36.488 137.342 37.2637 137.06 37.9892C136.778 38.7144 136.386 39.3893 135.882 40.0139C135.399 40.6385 134.815 41.2129 134.131 41.7367C133.446 42.2604 132.712 42.7138 131.926 43.0965ZM131.021 41.1322C131.644 40.8704 132.208 40.538 132.712 40.1349C133.235 39.7318 133.678 39.2887 134.04 38.8052C134.403 38.3216 134.684 37.8179 134.886 37.2939C135.087 36.75 135.188 36.2061 135.188 35.6619C135.188 35.0577 135.037 34.6043 134.735 34.3021C134.433 33.9797 134.08 33.8185 133.678 33.8185C133.134 33.8185 132.671 33.9696 132.289 34.2719C131.906 34.5739 131.594 34.9669 131.353 35.4505C131.111 35.934 130.93 36.4779 130.809 37.0824C130.708 37.6668 130.658 38.251 130.658 38.8353C130.658 39.1979 130.688 39.5809 130.749 39.9837C130.829 40.3868 130.92 40.7696 131.021 41.1322ZM147.297 33.9998C147.217 34.5437 147.116 35.0577 146.995 35.541C146.875 36.0044 146.754 36.4176 146.633 36.7802C146.532 37.1227 146.442 37.4048 146.361 37.6263C146.281 37.8481 146.23 37.9691 146.21 37.9892C146.009 38.4526 145.656 38.6842 145.153 38.6842C144.872 38.6842 144.61 38.5834 144.368 38.382C144.127 38.1604 144.006 37.8884 144.006 37.566C144.006 37.445 144.026 37.3545 144.066 37.2939C144.106 37.2336 144.167 37.1126 144.247 36.9313C144.328 36.75 144.429 36.4478 144.549 36.0248C144.67 35.6016 144.821 34.9468 145.002 34.0602C144.66 34.0602 144.308 34.0501 143.945 34.03C143.583 34.0099 143.251 33.9395 142.949 33.8185C142.627 33.6976 142.365 33.5062 142.164 33.2442C141.962 32.9824 141.862 32.6196 141.862 32.1564C141.862 31.8136 141.962 31.3502 142.164 30.7661C142.345 30.1817 142.596 29.6076 142.918 29.0433C143.241 28.4793 143.603 27.9958 144.006 27.5927C144.408 27.1697 144.811 26.958 145.214 26.958C145.677 26.958 146.049 27.1292 146.331 27.4717C146.633 27.8145 146.865 28.2374 147.026 28.7411C147.187 29.2246 147.297 29.7384 147.358 30.2825C147.438 30.8264 147.479 31.2999 147.479 31.703C147.821 31.703 148.153 31.703 148.475 31.703C148.817 31.6829 149.139 31.6726 149.441 31.6726C150.589 31.6726 151.465 31.9245 152.069 32.4282C152.673 32.9319 152.975 33.7579 152.975 34.9066C152.975 35.3698 152.945 35.8533 152.884 36.3572C152.824 36.8609 152.753 37.3847 152.673 37.9286C152.592 38.4526 152.522 38.9764 152.461 39.5002C152.401 40.024 152.371 40.538 152.371 41.0416C152.371 41.7668 152.471 42.3713 152.673 42.8549C152.874 43.3183 153.126 43.691 153.428 43.9731C153.729 44.2553 154.052 44.4567 154.394 44.5776C154.736 44.6782 155.048 44.7288 155.33 44.7288C156.196 44.7288 157.011 44.4466 157.776 43.8823C158.541 43.3183 159.246 42.6434 159.89 41.8576C160.534 41.0517 161.108 40.2053 161.611 39.3189C162.135 38.4323 162.568 37.6568 162.91 36.9919C163.01 36.8104 163.151 36.6695 163.333 36.5687C163.514 36.4679 163.705 36.4176 163.906 36.4176C164.269 36.4176 164.551 36.5385 164.752 36.7802C164.953 37.002 165.054 37.2537 165.054 37.5358C165.054 37.7372 165.014 37.9185 164.933 38.0797C164.47 38.9057 163.927 39.8427 163.302 40.8905C162.698 41.918 162.004 42.8851 161.219 43.7918C160.434 44.6983 159.548 45.464 158.561 46.0886C157.595 46.7133 156.528 47.0256 155.36 47.0256C154.635 47.0256 153.951 46.8845 153.307 46.6024C152.663 46.3406 152.099 45.9576 151.616 45.454C151.153 44.9302 150.78 44.2955 150.498 43.5499C150.217 42.7842 150.076 41.928 150.076 40.981C150.076 39.9737 150.176 38.9764 150.378 37.9892C150.579 36.9816 150.68 36.0248 150.68 35.118C150.68 34.7353 150.589 34.4532 150.408 34.2719C150.247 34.0702 149.874 33.9696 149.29 33.9696C149.009 33.9696 148.696 33.9696 148.354 33.9696C148.032 33.9696 147.68 33.9797 147.297 33.9998ZM145.274 31.7634C145.274 31.6223 145.264 31.441 145.244 31.2195C145.244 30.9775 145.224 30.746 145.183 30.5242C145.163 30.3026 145.123 30.1113 145.063 29.9501C145.022 29.7889 144.972 29.7082 144.912 29.7082C144.851 29.7082 144.771 29.7889 144.67 29.9501C144.59 30.0912 144.499 30.2725 144.398 30.494C144.298 30.6954 144.207 30.9172 144.127 31.1588C144.046 31.4008 143.986 31.6022 143.945 31.7634H145.274ZM169.614 43.701C169.936 43.0362 170.308 42.3107 170.731 41.5252C171.154 40.7193 171.607 39.9133 172.09 39.1074C172.573 38.2814 173.077 37.4651 173.6 36.6592C174.144 35.8533 174.707 35.0879 175.291 34.3624C175.875 33.6573 176.459 33.1537 177.043 32.8514C177.647 32.529 178.21 32.3679 178.734 32.3679C179.781 32.3679 180.556 32.7506 181.059 33.5163C181.562 34.282 181.814 35.2289 181.814 36.3572C181.814 36.619 181.794 36.9414 181.753 37.3243C181.733 37.6869 181.703 38.0797 181.663 38.5029C181.643 38.9261 181.613 39.3591 181.572 39.8024C181.552 40.2257 181.542 40.6285 181.542 41.0112C181.542 41.4948 181.562 41.9582 181.603 42.4015C181.663 42.8448 181.764 43.2376 181.904 43.5801C182.045 43.9025 182.247 44.1645 182.509 44.3659C182.77 44.5472 183.113 44.638 183.535 44.638C184.3 44.638 185.045 44.3458 185.77 43.7616C186.495 43.1571 187.159 42.4518 187.763 41.6459C188.387 40.8198 188.921 39.9837 189.364 39.1376C189.827 38.2914 190.169 37.6062 190.39 37.0824C190.491 36.8609 190.632 36.6897 190.813 36.5687C191.014 36.4478 191.226 36.3874 191.447 36.3874C191.79 36.3874 192.061 36.5184 192.263 36.7802C192.484 37.0221 192.595 37.2838 192.595 37.566C192.595 37.7071 192.565 37.8481 192.504 37.9892C192.424 38.1504 192.263 38.4828 192.021 38.9865C191.78 39.4901 191.457 40.0745 191.055 40.7394C190.672 41.3841 190.219 42.0791 189.696 42.8247C189.172 43.5499 188.589 44.2148 187.944 44.8193C187.32 45.4238 186.636 45.9274 185.891 46.3303C185.166 46.7334 184.401 46.9348 183.596 46.9348C182.69 46.9348 181.955 46.7635 181.391 46.4211C180.828 46.0585 180.385 45.595 180.063 45.0307C179.74 44.4466 179.519 43.8119 179.398 43.127C179.297 42.4216 179.247 41.7165 179.247 41.0112C179.247 40.7092 179.257 40.3665 179.277 39.9837C179.318 39.601 179.358 39.1979 179.398 38.775C179.458 38.3518 179.499 37.9286 179.519 37.5056C179.559 37.0824 179.579 36.6796 179.579 36.2966C179.579 35.6519 179.479 35.2186 179.277 34.9971C179.076 34.7554 178.895 34.6345 178.734 34.6345C178.412 34.6345 178.039 34.8259 177.616 35.2086C177.214 35.5714 176.781 36.055 176.318 36.6592C175.875 37.2637 175.412 37.9487 174.929 38.7144C174.466 39.46 174.023 40.2053 173.6 40.9509C173.197 41.6964 172.815 42.4116 172.453 43.0965C172.11 43.7616 171.839 44.3156 171.637 44.7589C171.234 45.6051 170.832 46.1691 170.429 46.4512C170.027 46.7535 169.614 46.9046 169.191 46.9046C168.607 46.9046 168.134 46.7334 167.772 46.3909C167.43 46.0283 167.258 45.5244 167.258 44.8796C167.258 44.7388 167.279 44.4667 167.319 44.0636C167.359 43.6407 167.409 43.1471 167.47 42.5828C167.53 41.9987 167.591 41.3741 167.651 40.7092C167.711 40.0441 167.772 39.3893 167.832 38.7446C167.892 38.0797 167.943 37.4651 167.983 36.9011C168.023 36.3369 168.043 35.8634 168.043 35.4806C168.043 34.977 168.023 34.4934 167.983 34.03C167.943 33.5666 167.862 33.2844 167.742 33.1838C167.56 33.2442 167.238 33.6272 166.775 34.3322C166.312 35.0172 165.718 36.2363 164.993 37.9892C164.893 38.2107 164.742 38.382 164.541 38.5029C164.339 38.6239 164.128 38.6842 163.906 38.6842C163.564 38.6842 163.292 38.5733 163.091 38.3518C162.89 38.1099 162.789 37.8381 162.789 37.5358C162.789 37.3947 162.819 37.2436 162.88 37.0824C163.786 34.9267 164.631 33.345 165.416 32.3377C166.222 31.31 167.017 30.7962 167.802 30.7962C168.265 30.7962 168.658 30.9172 168.98 31.1588C169.302 31.3806 169.554 31.6829 169.735 32.0656C169.936 32.4483 170.077 32.8715 170.157 33.335C170.258 33.7984 170.308 34.2719 170.308 34.7554C170.308 35.118 170.278 35.6821 170.218 36.4478C170.178 37.2134 170.117 38.0395 170.037 38.9261C169.956 39.7924 169.876 40.6587 169.795 41.5252C169.735 42.3915 169.674 43.1169 169.614 43.701ZM259.604 25.4167C261.336 25.9004 262.805 26.4543 264.014 27.079C265.243 27.7036 266.268 28.3584 267.093 29.0433C267.941 29.7082 268.603 30.3934 269.087 31.0985C269.569 31.8036 269.943 32.4788 270.203 33.1235C270.466 33.7682 270.628 34.3725 270.688 34.9367C270.768 35.4806 270.809 35.9441 270.809 36.3268C270.809 37.7372 270.536 38.9965 269.992 40.1047C269.469 41.2129 268.755 42.19 267.848 43.0362C266.943 43.8823 265.887 44.5977 264.678 45.1819C263.49 45.7663 262.243 46.2398 260.934 46.6024C259.625 46.9853 258.285 47.2572 256.917 47.4183C255.548 47.5996 254.25 47.6904 253.022 47.6904C251.029 47.6904 248.965 47.489 246.831 47.0859C244.717 46.6831 242.573 46.0283 240.399 45.1215C239.916 44.9201 239.674 44.5673 239.674 44.0636C239.674 43.7212 239.795 43.4493 240.036 43.2477C240.278 43.0261 240.54 42.9152 240.821 42.9152C240.962 42.9152 241.113 42.9454 241.274 43.006C243.147 43.7918 245.07 44.386 247.042 44.7891C249.015 45.1919 250.998 45.3936 252.991 45.3936C255.709 45.3936 258.045 45.1316 259.999 44.6078C261.949 44.084 263.55 43.3988 264.799 42.5526C266.067 41.6864 267.003 40.7193 267.608 39.6513C268.211 38.5633 268.513 37.4651 268.513 36.3572C268.513 35.1281 268.17 33.9898 267.487 32.9419C266.822 31.8944 265.866 30.9574 264.619 30.1314C263.39 29.3054 261.911 28.6 260.179 28.0159C258.447 27.4315 256.525 26.9985 254.411 26.7164C253.022 26.958 251.673 27.1292 250.364 27.2301C249.055 27.3309 247.848 27.3812 246.74 27.3812H246.046C245.905 27.3812 245.774 27.3711 245.653 27.351C244.204 30.8365 242.472 33.8487 240.459 36.3874C238.466 38.9261 236.332 41.0316 234.057 42.7038C231.802 44.3558 229.477 45.585 227.081 46.3909C224.706 47.1767 222.421 47.5695 220.226 47.5695C217.951 47.5695 215.858 47.2471 213.945 46.6024C212.053 45.9777 210.422 45.0813 209.053 43.9125C207.684 42.744 206.617 41.3336 205.852 39.6815C205.087 38.0093 204.704 36.1455 204.704 34.0906C204.704 31.9547 205.117 29.7487 205.943 27.4717C206.788 25.175 208.036 22.8479 209.687 20.4905C211.257 18.2743 212.999 16.2897 214.911 14.5368C216.824 12.7638 218.827 11.2124 220.921 9.88261C223.035 8.55285 225.209 7.41448 227.444 6.46751C229.678 5.52058 231.893 4.74485 234.087 4.14043C236.302 3.53597 238.456 3.10281 240.55 2.84087C242.664 2.5588 244.647 2.41777 246.499 2.41777C248.009 2.41777 249.448 2.46814 250.817 2.56888C252.186 2.66963 253.495 2.82073 254.743 3.02222C255.468 2.21629 256.052 1.64207 256.495 1.29955C256.937 0.936886 257.189 0.735406 257.249 0.69511C257.491 0.574222 257.703 0.513779 257.883 0.513779C258.166 0.513779 258.416 0.594371 258.638 0.755555C258.86 0.916739 258.97 1.14844 258.97 1.45066C258.97 1.85362 258.829 2.19614 258.548 2.47821C258.267 2.74014 257.883 3.10281 257.4 3.5662C261.084 4.47288 263.903 5.84292 265.856 7.6764C267.809 9.48973 268.786 11.7362 268.786 14.4159C268.786 15.8867 268.544 17.2064 268.059 18.375C267.577 19.5436 266.913 20.5711 266.067 21.4576C265.243 22.3442 264.266 23.1199 263.137 23.7848C262.032 24.4295 260.854 24.9735 259.604 25.4167ZM254.441 24.4194C255.327 24.2582 256.233 24.0467 257.159 23.7848C258.105 23.5228 259.022 23.2105 259.906 22.8479C260.813 22.4651 261.669 22.0218 262.473 21.5181C263.279 20.9942 263.975 20.3898 264.557 19.7048C265.16 18.9996 265.634 18.2138 265.977 17.3474C266.338 16.4811 266.521 15.4938 266.521 14.3857C266.521 12.1291 265.583 10.2654 263.712 8.79463C261.839 7.3238 259.151 6.23582 255.649 5.53063C254.642 6.77982 253.696 8.15995 252.81 9.67106C251.924 11.1822 251.109 12.7537 250.364 14.3857C249.619 15.9975 248.945 17.6396 248.341 19.3119C247.757 20.964 247.274 22.5658 246.891 24.1172C247.294 24.097 247.667 24.087 248.009 24.087C248.351 24.087 248.643 24.087 248.884 24.087C249.67 24.087 250.525 24.1172 251.451 24.1776C252.377 24.2179 253.374 24.2985 254.441 24.4194ZM253.082 5.10753C252.055 4.96649 250.998 4.86576 249.911 4.8053C248.824 4.74485 247.687 4.71463 246.499 4.71463C244.727 4.71463 242.845 4.84561 240.852 5.10753C238.859 5.36945 236.815 5.78249 234.721 6.34664C232.628 6.91078 230.514 7.64617 228.38 8.55285C226.266 9.43936 224.202 10.5173 222.189 11.7866C220.196 13.0358 218.293 14.4965 216.482 16.1688C214.67 17.8411 213.019 19.7249 211.529 21.8203C210.019 23.956 208.882 26.0616 208.117 28.1368C207.352 30.2119 206.969 32.1866 206.969 34.0602C206.969 35.8131 207.281 37.3847 207.905 38.775C208.55 40.165 209.455 41.3436 210.623 42.3107C211.791 43.2577 213.19 43.9932 214.821 44.517C216.451 45.0207 218.253 45.2727 220.226 45.2727C222.199 45.2727 224.253 44.9201 226.387 44.2148C228.521 43.4896 230.604 42.3915 232.638 40.9207C234.671 39.4298 236.604 37.5559 238.436 35.2993C240.268 33.0227 241.868 30.3228 243.237 27.1999C242.875 27.1999 242.503 27.0991 242.12 26.8977C241.738 26.6761 241.546 26.3334 241.546 25.8699C241.546 25.3865 241.778 25.044 242.241 24.8425C242.704 24.6209 243.429 24.4396 244.415 24.2985C244.959 22.6464 245.512 20.9942 246.076 19.3421C246.64 17.69 247.264 16.058 247.948 14.4461C248.633 12.8343 249.388 11.2527 250.213 9.70128C251.039 8.12972 251.995 6.59847 253.082 5.10753ZM298.652 37.9892C298.57 38.1504 298.4 38.4929 298.137 39.0166C297.897 39.5203 297.575 40.1047 297.171 40.7696C296.789 41.4344 296.336 42.1294 295.813 42.8549C295.29 43.5801 294.705 44.2449 294.06 44.8494C293.416 45.454 292.723 45.9576 291.978 46.3607C291.234 46.7434 290.448 46.9348 289.623 46.9348C288.456 46.9348 287.469 46.5621 286.662 45.8166C285.879 45.0712 285.304 44.1343 284.941 43.006C284.258 44.1544 283.441 45.0712 282.495 45.7562C281.549 46.4211 280.604 46.7535 279.655 46.7535C278.911 46.7535 278.238 46.6225 277.633 46.3607C277.03 46.0786 276.517 45.6959 276.094 45.2121C275.672 44.7084 275.339 44.1243 275.097 43.4594C274.875 42.7945 274.764 42.0691 274.764 41.2833C274.764 39.7117 275.027 38.3317 275.55 37.1428C276.094 35.934 276.777 34.9267 277.604 34.1208C278.429 33.3148 279.333 32.7103 280.32 32.3073C281.328 31.9044 282.294 31.703 283.219 31.703C283.843 31.703 284.418 31.7935 284.941 31.9748C285.464 32.136 285.907 32.3173 286.27 32.519C286.652 32.7204 286.946 32.9118 287.147 33.0931C287.348 33.2542 287.458 33.345 287.479 33.3651C287.701 33.6272 287.811 33.899 287.811 34.1811C287.811 34.4834 287.701 34.7554 287.479 34.9971C287.257 35.2186 286.995 35.3295 286.693 35.3295C286.371 35.3295 286.098 35.2186 285.879 34.9971C285.837 34.9569 285.747 34.8862 285.606 34.7856C285.464 34.6647 285.273 34.5437 285.031 34.423C284.791 34.3021 284.497 34.2012 284.157 34.1208C283.835 34.0199 283.462 33.9696 283.039 33.9696C282.415 33.9696 281.75 34.1107 281.044 34.3926C280.341 34.6747 279.697 35.118 279.112 35.7226C278.529 36.3067 278.037 37.0523 277.633 37.959C277.251 38.8454 277.06 39.9033 277.06 41.1322C277.06 41.5151 277.099 41.9079 277.179 42.3107C277.261 42.6937 277.401 43.0463 277.604 43.3686C277.805 43.691 278.076 43.953 278.419 44.1544C278.761 44.3558 279.184 44.4567 279.686 44.4567C280.05 44.4567 280.462 44.3357 280.926 44.0941C281.408 43.8522 281.861 43.4795 282.284 42.9758C282.727 42.4722 283.119 41.8375 283.462 41.0718C283.825 40.3061 284.075 39.3994 284.217 38.3518C284.258 38.0697 284.387 37.8381 284.608 37.6568C284.83 37.4551 285.093 37.3545 285.394 37.3545C285.675 37.3545 285.917 37.4651 286.118 37.6869C286.34 37.9085 286.461 38.1604 286.482 38.4423C286.502 38.8253 286.541 39.3692 286.603 40.0745C286.662 40.7595 286.794 41.4445 286.995 42.1294C287.216 42.8147 287.538 43.4088 287.961 43.9125C288.383 44.4164 288.968 44.6681 289.713 44.6681C290.195 44.6681 290.669 44.5371 291.133 44.2754C291.615 44.0134 292.079 43.6709 292.522 43.2477C292.983 42.8046 293.416 42.3107 293.821 41.7668C294.243 41.2028 294.625 40.6385 294.967 40.0745C295.31 39.5103 295.612 38.9664 295.872 38.4423C296.135 37.9185 296.356 37.4651 296.537 37.0824C296.637 36.8609 296.779 36.6897 296.959 36.5687C297.16 36.4478 297.372 36.3874 297.593 36.3874C297.936 36.3874 298.209 36.5184 298.41 36.7802C298.632 37.0221 298.743 37.2838 298.743 37.566C298.743 37.7071 298.712 37.8481 298.652 37.9892ZM299.737 33.9998C299.658 34.5437 299.557 35.0577 299.436 35.541C299.315 36.0044 299.194 36.4176 299.075 36.7802C298.975 37.1227 298.882 37.4048 298.802 37.6263C298.722 37.8481 298.671 37.9691 298.652 37.9892C298.449 38.4526 298.098 38.6842 297.593 38.6842C297.313 38.6842 297.05 38.5834 296.81 38.382C296.568 38.1604 296.447 37.8884 296.447 37.566C296.447 37.445 296.467 37.3545 296.506 37.2939C296.547 37.2336 296.609 37.1126 296.689 36.9313C296.769 36.75 296.869 36.4478 296.99 36.0248C297.112 35.6016 297.261 34.9468 297.444 34.0602C297.101 34.0602 296.748 34.0501 296.387 34.03C296.024 34.0099 295.692 33.9395 295.39 33.8185C295.068 33.6976 294.805 33.5062 294.604 33.2442C294.403 32.9824 294.303 32.6196 294.303 32.1564C294.303 31.8136 294.403 31.3502 294.604 30.7661C294.787 30.1817 295.037 29.6076 295.359 29.0433C295.681 28.4793 296.045 27.9958 296.447 27.5927C296.849 27.1697 297.253 26.958 297.655 26.958C298.119 26.958 298.49 27.1292 298.771 27.4717C299.075 27.8145 299.304 28.2374 299.467 28.7411C299.627 29.2246 299.737 29.7384 299.799 30.2825C299.879 30.8264 299.92 31.2999 299.92 31.703C300.263 31.703 300.593 31.703 300.915 31.703C301.258 31.6829 301.58 31.6726 301.881 31.6726C303.031 31.6726 303.907 31.9245 304.51 32.4282C305.113 32.9319 305.417 33.7579 305.417 34.9066C305.417 35.3698 305.386 35.8533 305.324 36.3572C305.265 36.8609 305.195 37.3847 305.113 37.9286C305.033 38.4526 304.963 38.9764 304.902 39.5002C304.842 40.024 304.811 40.538 304.811 41.0416C304.811 41.7668 304.912 42.3713 305.113 42.8549C305.314 43.3183 305.566 43.691 305.868 43.9731C306.169 44.2553 306.494 44.4567 306.834 44.5776C307.177 44.6782 307.489 44.7288 307.772 44.7288C308.638 44.7288 309.452 44.4466 310.218 43.8823C310.983 43.3183 311.687 42.6434 312.331 41.8576C312.975 41.0517 313.55 40.2053 314.052 39.3189C314.575 38.4323 315.008 37.6568 315.351 36.9919C315.451 36.8104 315.593 36.6695 315.774 36.5687C315.954 36.4679 316.147 36.4176 316.348 36.4176C316.709 36.4176 316.992 36.5385 317.193 36.7802C317.394 37.002 317.495 37.2537 317.495 37.5358C317.495 37.7372 317.454 37.9185 317.374 38.0797C316.91 38.9057 316.369 39.8427 315.743 40.8905C315.14 41.918 314.444 42.8851 313.661 43.7918C312.875 44.6983 311.988 45.464 311.004 46.0886C310.035 46.7133 308.968 47.0256 307.801 47.0256C307.076 47.0256 306.391 46.8845 305.747 46.6024C305.103 46.3406 304.541 45.9576 304.056 45.454C303.592 44.9302 303.221 44.2955 302.941 43.5499C302.657 42.7842 302.518 41.928 302.518 40.981C302.518 39.9737 302.618 38.9764 302.819 37.9892C303.02 36.9816 303.121 36.0248 303.121 35.118C303.121 34.7353 303.031 34.4532 302.848 34.2719C302.688 34.0702 302.314 33.9696 301.732 33.9696C301.448 33.9696 301.137 33.9696 300.796 33.9696C300.474 33.9696 300.121 33.9797 299.737 33.9998ZM297.715 31.7634C297.715 31.6223 297.704 31.441 297.686 31.2195C297.686 30.9775 297.666 30.746 297.624 30.5242C297.604 30.3026 297.565 30.1113 297.503 29.9501C297.465 29.7889 297.413 29.7082 297.354 29.7082C297.292 29.7082 297.212 29.7889 297.111 29.9501C297.032 30.0912 296.939 30.2725 296.838 30.494C296.738 30.6954 296.648 30.9172 296.568 31.1588C296.488 31.4008 296.426 31.6022 296.387 31.7634H297.715ZM318.974 43.0965C319.397 43.6809 319.94 44.1544 320.605 44.517C321.27 44.8595 322.084 45.0307 323.051 45.0307C324.038 45.0307 324.935 44.7992 325.739 44.3357C326.545 43.8522 327.28 43.2275 327.944 42.4619C328.609 41.6964 329.202 40.84 329.725 39.8932C330.248 38.9462 330.722 37.9992 331.145 37.0523C331.245 36.8305 331.387 36.6695 331.568 36.5687C331.748 36.4478 331.949 36.3874 332.171 36.3874C332.513 36.3874 332.786 36.5081 332.987 36.75C333.209 36.9919 333.32 37.2537 333.32 37.5358C333.32 37.6366 333.31 37.7272 333.289 37.8079C333.268 37.8682 333.237 37.9386 333.199 38.0194C331.81 41.0819 330.289 43.3887 328.638 44.9402C327.006 46.4915 325.156 47.2873 323.082 47.3278C321.752 47.3278 320.605 47.0658 319.639 46.542C318.673 46.0383 317.876 45.3835 317.253 44.5776C316.629 43.7513 316.165 42.8247 315.864 41.797C315.562 40.7696 315.41 39.7421 315.41 38.7144C315.41 37.6869 315.531 36.7399 315.774 35.8737C316.036 35.0072 316.397 34.2515 316.861 33.6068C317.343 32.962 317.907 32.4584 318.551 32.0958C319.216 31.7332 319.94 31.5519 320.726 31.5519C321.19 31.5519 321.641 31.6525 322.084 31.8541C322.548 32.0354 322.961 32.3073 323.324 32.6701C323.685 33.0126 323.979 33.4355 324.2 33.9395C324.422 34.4431 324.533 35.0172 324.533 35.6619C324.533 36.488 324.391 37.2637 324.107 37.9892C323.826 38.7144 323.435 39.3893 322.93 40.0139C322.448 40.6385 321.863 41.2129 321.18 41.7367C320.495 42.2604 319.76 42.7138 318.974 43.0965ZM318.07 41.1322C318.693 40.8704 319.258 40.538 319.76 40.1349C320.283 39.7318 320.726 39.2887 321.09 38.8052C321.451 38.3216 321.734 37.8179 321.935 37.2939C322.136 36.75 322.236 36.2061 322.236 35.6619C322.236 35.0577 322.084 34.6043 321.783 34.3021C321.481 33.9797 321.128 33.8185 320.726 33.8185C320.183 33.8185 319.719 33.9696 319.337 34.2719C318.953 34.5739 318.642 34.9669 318.402 35.4505C318.16 35.934 317.979 36.4779 317.858 37.0824C317.758 37.6668 317.706 38.251 317.706 38.8353C317.706 39.1979 317.737 39.5809 317.796 39.9837C317.876 40.3868 317.969 40.7696 318.07 41.1322Z" fill="black"/>
</svg>
