<?xml version="1.0" standalone="no"?>
<!DOCTYPE svg PUBLIC "-//W3C//DTD SVG 20010904//EN"
 "http://www.w3.org/TR/2001/REC-SVG-20010904/DTD/svg10.dtd">
<svg version="1.0" xmlns="http://www.w3.org/2000/svg"
 width="500.000000pt" height="500.000000pt" viewBox="0 0 500.000000 500.000000"
 preserveAspectRatio="xMidYMid meet">
<metadata>
Created by potrace 1.14, written by Peter Selinger 2001-2017
</metadata>
<g transform="translate(0.000000,500.000000) scale(0.100000,-0.100000)"
fill="#000000" stroke="none">
<path d="M2528 4001 c-202 -44 -346 -155 -431 -332 -66 -137 -91 -246 -91
-394 0 -110 3 -128 33 -217 39 -114 106 -227 186 -316 32 -35 55 -66 51 -69
-15 -15 -231 -6 -291 11 -145 43 -249 130 -312 261 -44 94 -56 167 -50 300 7
129 30 213 85 303 93 155 306 311 425 312 30 0 37 4 37 20 0 16 -5 19 -22 16
-13 -3 -41 -8 -62 -11 -92 -15 -268 -137 -352 -244 -104 -133 -145 -258 -146
-446 -1 -138 17 -210 77 -310 77 -128 191 -209 337 -239 85 -18 198 -20 268
-6 40 8 49 6 80 -17 19 -14 73 -50 120 -80 352 -230 406 -269 469 -332 166
-169 241 -343 241 -566 0 -202 -55 -369 -155 -474 -194 -204 -565 -212 -760
-17 -100 100 -175 305 -175 481 0 100 42 271 91 373 72 149 173 225 299 226
153 0 264 -105 330 -311 17 -51 30 -95 30 -96 0 -2 -28 10 -62 27 -55 27 -72
31 -148 31 -65 0 -96 -5 -131 -21 -132 -61 -199 -192 -154 -301 22 -52 42 -72
100 -99 151 -71 336 11 394 176 12 36 26 74 30 84 6 17 13 10 37 -39 38 -78
40 -186 6 -252 -18 -35 -19 -43 -7 -53 11 -9 17 -6 30 13 58 88 44 248 -30
356 -19 28 -35 61 -35 73 0 13 -9 57 -20 97 -70 252 -221 371 -470 371 -187 0
-362 -100 -457 -260 -58 -98 -100 -283 -90 -399 6 -78 55 -233 94 -301 120
-209 298 -316 583 -351 172 -21 376 13 530 89 112 54 233 178 289 293 74 153
108 344 91 506 -11 108 -28 160 -83 267 -57 111 -115 186 -194 251 -79 66
-370 261 -493 330 -47 27 -86 49 -88 51 -2 1 20 24 49 51 l52 50 35 -23 c53
-36 107 -47 199 -40 99 7 215 43 282 85 229 147 291 485 144 791 -49 102 -151
204 -256 254 -161 78 -371 104 -539 67z m283 -35 c243 -52 371 -253 373 -586
1 -185 -45 -327 -135 -420 -76 -78 -223 -127 -302 -101 -61 20 -62 29 -13 122
57 107 86 212 86 308 0 93 -15 145 -56 187 -62 67 -141 38 -195 -71 -57 -117
-53 -289 11 -415 16 -30 35 -64 44 -75 14 -19 12 -23 -36 -72 l-51 -52 -58 45
c-157 124 -251 324 -252 539 -2 302 131 506 383 586 67 22 115 23 201 5z m-71
-514 c52 -52 63 -144 33 -278 -19 -88 -91 -239 -113 -239 -24 0 -80 122 -92
203 -20 128 15 271 78 321 36 28 60 26 94 -7z m26 -1629 c74 -36 78 -42 65
-102 -43 -199 -221 -303 -380 -221 -104 53 -119 161 -35 258 85 100 225 126
350 65z"/>
<path d="M698 3575 c-120 -24 -258 -104 -351 -204 -128 -139 -179 -349 -117
-487 27 -62 103 -139 168 -171 72 -35 218 -44 303 -20 29 9 55 15 56 13 2 -1
6 -16 9 -33 l6 -30 -66 -13 c-83 -15 -116 -40 -116 -84 0 -51 27 -68 115 -74
41 -2 75 -5 75 -6 0 -1 7 -78 15 -171 7 -94 15 -217 16 -273 l3 -104 -45 -22
c-56 -28 -96 -85 -110 -156 -13 -68 -2 -116 42 -184 l32 -47 -34 -35 c-77 -80
-206 -110 -293 -69 -192 91 -239 441 -81 598 88 86 189 65 251 -53 28 -52 26
-191 -3 -245 -28 -54 -69 -93 -107 -103 -17 -5 -26 -11 -20 -15 23 -14 98 37
128 86 25 41 30 61 34 131 11 200 -101 312 -245 246 -47 -21 -96 -82 -127
-158 -29 -70 -28 -236 3 -314 69 -177 187 -241 351 -192 54 16 124 57 149 88
12 14 17 13 48 -14 18 -17 57 -42 86 -58 47 -24 62 -27 152 -26 126 0 191 24
270 96 94 86 146 217 165 418 26 277 -60 506 -243 644 l-66 49 38 31 c132 107
200 272 188 455 -14 208 -123 379 -292 457 -137 63 -246 77 -387 49z m225 -19
c57 -17 162 -91 212 -148 114 -131 152 -349 98 -563 -16 -63 -69 -172 -106
-217 l-22 -27 -60 14 c-33 8 -81 15 -107 15 -27 0 -48 1 -49 3 0 1 -4 37 -8
80 l-8 79 49 46 c57 53 74 82 89 151 15 72 -2 126 -58 178 -43 41 -44 42 -29
70 16 32 72 86 132 129 22 16 39 35 37 41 -8 22 -146 -80 -184 -135 l-34 -50
-90 1 c-107 2 -152 -11 -208 -62 -41 -37 -101 -146 -90 -164 3 -6 15 13 25 41
42 113 147 178 274 170 35 -2 65 -6 68 -9 3 -2 -11 -47 -31 -99 -39 -105 -62
-215 -63 -303 l0 -58 -47 -22 c-64 -29 -193 -30 -273 -3 -74 26 -179 129 -203
200 -50 147 6 321 148 462 86 86 193 149 300 179 66 18 181 18 238 1z m17
-402 c62 -52 77 -130 41 -210 -18 -41 -85 -114 -104 -114 -10 0 -3 273 9 323
8 34 14 34 54 1z m-170 -576 c0 -24 3 -53 6 -65 6 -22 4 -23 -55 -23 -65 0
-121 20 -121 44 0 45 62 85 133 86 37 0 37 0 37 -42z m280 12 c11 -6 20 -15
20 -20 0 -12 -119 -70 -145 -70 -19 0 -23 7 -28 51 -4 29 -4 55 -2 59 6 9 130
-7 155 -20z m109 -87 c56 -65 117 -186 143 -280 28 -105 31 -391 5 -496 -36
-144 -97 -233 -197 -286 -111 -59 -199 -51 -300 29 l-39 31 40 61 c39 62 77
163 99 271 l12 58 31 -24 c58 -44 79 -85 75 -145 -5 -60 -27 -95 -82 -132 -44
-29 -31 -40 16 -13 45 26 71 66 78 120 11 88 -13 145 -79 190 l-33 22 -2 233
c-2 128 -6 256 -11 284 l-8 52 54 16 c30 9 72 25 94 35 22 11 45 20 52 20 6 1
30 -20 52 -46z m-339 -635 c-1 -129 -48 -344 -73 -335 -25 8 -70 98 -75 147
-4 40 1 60 23 105 38 79 125 136 125 83z"/>
<path d="M4028 3576 c-172 -38 -355 -169 -426 -305 -49 -93 -66 -158 -66 -251
-1 -68 4 -95 23 -137 28 -63 112 -146 178 -175 65 -29 218 -37 294 -15 29 9
54 15 55 14 0 -1 4 -16 7 -34 l6 -31 -61 -11 c-69 -12 -104 -31 -120 -67 -10
-20 -8 -29 9 -52 23 -31 48 -40 124 -41 l57 -1 6 -62 c15 -151 26 -310 26
-399 0 -95 -1 -97 -25 -103 -44 -11 -101 -76 -119 -135 -9 -30 -16 -68 -16
-85 0 -35 28 -101 62 -148 l22 -31 -43 -38 c-63 -56 -124 -82 -190 -82 -105 0
-180 55 -234 171 -26 56 -31 80 -35 166 -3 85 -1 110 17 156 45 119 130 190
209 175 115 -22 179 -223 113 -354 -24 -46 -84 -101 -112 -101 -11 0 -17 -4
-14 -10 10 -16 77 17 107 52 43 50 61 118 56 207 -10 166 -109 254 -233 207
-55 -22 -107 -80 -137 -155 -30 -76 -32 -230 -4 -314 29 -88 81 -156 146 -190
49 -26 62 -28 126 -25 80 5 159 37 215 86 l36 31 22 -23 c13 -13 50 -39 84
-58 59 -31 67 -33 162 -32 125 1 192 25 268 94 114 104 168 272 168 520 0 132
-22 237 -72 338 -34 70 -139 188 -198 224 -20 12 -37 22 -39 23 -2 2 26 30 62
65 174 167 214 421 101 658 -100 212 -367 332 -617 278z m262 -34 c120 -58
232 -185 270 -308 25 -84 28 -288 5 -379 -18 -70 -75 -189 -109 -226 -23 -27
-23 -27 -82 -13 -33 7 -80 14 -106 14 -54 0 -53 -1 -62 104 l-5 59 49 44 c63
57 91 114 92 192 1 68 -13 98 -69 147 -34 30 -35 31 -20 60 18 34 74 89 135
132 67 47 30 49 -43 2 -35 -23 -82 -66 -105 -95 l-41 -53 -87 1 c-103 2 -149
-12 -204 -61 -49 -45 -116 -172 -90 -172 5 0 14 17 20 38 17 58 65 117 119
149 43 25 58 28 135 28 47 0 89 -3 92 -6 4 -3 -5 -32 -19 -63 -41 -92 -65
-194 -72 -300 l-6 -99 -45 -20 c-64 -28 -153 -33 -232 -13 -98 25 -173 83
-228 175 -34 58 -42 171 -17 257 55 191 223 350 440 416 84 25 223 21 285 -10z
m-19 -389 c57 -48 74 -127 44 -201 -15 -36 -91 -122 -107 -122 -4 0 -8 50 -8
112 0 114 16 238 30 238 5 0 23 -12 41 -27z m-171 -582 c0 -27 3 -56 6 -65 5
-14 -4 -16 -63 -16 -82 0 -116 18 -111 58 4 34 74 72 130 72 l38 0 0 -49z
m273 20 c15 -6 27 -15 27 -20 0 -13 -118 -71 -145 -71 -19 0 -23 7 -29 50 -4
28 -5 54 -2 59 6 9 111 -3 149 -18z m196 -215 c76 -150 104 -335 82 -536 -13
-118 -27 -174 -65 -249 -52 -102 -157 -177 -262 -188 -47 -5 -63 -2 -117 25
-34 17 -72 41 -84 54 l-22 23 38 56 c42 63 87 190 97 273 4 31 9 56 12 56 14
0 76 -56 93 -84 46 -75 7 -180 -86 -229 -25 -14 -27 -16 -9 -17 31 0 84 40
105 80 24 43 25 139 4 181 -9 16 -34 43 -57 59 l-41 30 -2 222 c-1 123 -5 250
-10 284 l-7 60 91 33 c50 18 94 38 98 44 11 19 99 -89 142 -177z m-424 -553
c-3 -38 -8 -90 -11 -117 -6 -54 -43 -176 -54 -176 -29 0 -80 107 -80 167 0 59
46 145 93 173 53 33 58 28 52 -47z"/>
</g>
</svg>
